<?xml version="1.0" encoding="utf-8"?>
<svg version="1.1" xmlns="http://www.w3.org/2000/svg" xmlns:xlink="http://www.w3.org/1999/xlink" x="0px" y="0px" width="70" height="72" viewBox="0 0 70 72" enable-background="new 0 0 70 72" xml:space="preserve">
<g id="bounds"><rect opacity="0" width="70" height="72"/></g>
<g id="icon">
<path d="M59,9H11c-4.418,0-8,3.581-8,8v35c0,4.418,3.582,8,8,8h48c4.418,0,8-3.582,8-8V17C67,12.581,63.418,9,59,9z M30.014,28.327l-3.676,2.941c-0.898-0.957-2.127-1.518-3.449-1.518c-2.619,0-4.75,2.13-4.75,4.75s2.131,4.75,4.75,4.75c0.87,0,1.673-0.252,2.375-0.66v-1.715h-3.562v-3.564h8.312v7.452C28.273,42.743,25.728,44,22.889,44c-5.237,0-9.5-4.262-9.5-9.5c0-5.238,4.263-9.5,9.5-9.5c2.748,0,5.318,1.183,7.125,3.237V28.327z M39,44h-5V25h5V44z M56,30h-8v3h6v5h-6v6h-5V25h13V30z"/>
</g>
</svg>
