<?xml version="1.0" encoding="utf-8"?>
<svg version="1.1" id="Layer_1" xmlns="http://www.w3.org/2000/svg" xmlns:xlink="http://www.w3.org/1999/xlink" x="0px" y="0px"
	 width="50px" height="40px" viewBox="0 0 50 40" enable-background="new 0 0 50 40" xml:space="preserve">
<g>
	<g>
		<path fill="#66757F" d="M40.961,16.61c0,0-0.788-7.051-7.905-7.051l-0.01,0h-1.979l0,0c0-1.098-0.891-1.989-1.989-1.989h-8.155
			c-1.098,0-1.989,0.891-1.989,1.989l0,0h-1.979c-0.003,0-0.006,0-0.01,0c-7.117,0-7.905,7.051-7.905,7.051S7,29.261,7,29.447
			c0,1.648,1.335,2.983,2.983,2.983c0.676,0,1.293-0.233,1.793-0.613l4.712-3.757c0.893,0.857,2.103,1.387,3.439,1.387
			c2.406,0,4.412-1.708,4.872-3.978H25h0.2c0.461,2.27,2.467,3.978,4.872,3.978c1.336,0,2.546-0.53,3.439-1.387l4.712,3.757
			c0.5,0.38,1.117,0.613,1.793,0.613c1.648,0,2.983-1.335,2.983-2.983C43,29.261,40.961,16.61,40.961,16.61z"/>
	</g>
	<g>
		<circle fill="#FFFFFF" cx="29.972" cy="24.861" r="2.5"/>
	</g>
	<g>
		<circle fill="#FAB81E" cx="33.767" cy="16.456" r="4"/>
	</g>
	<g>
		<circle fill="#FFFFFF" cx="20.028" cy="24.861" r="2.5"/>
	</g>
	<g>
		<circle fill="#FAB81E" cx="16.233" cy="16.456" r="4"/>
	</g>
</g>
</svg>
