<?xml version="1.0" encoding="utf-8"?>
<svg version="1.1" xmlns="http://www.w3.org/2000/svg" xmlns:xlink="http://www.w3.org/1999/xlink" x="0px" y="0px" width="60" height="72" viewBox="0 0 60 72" enable-background="new 0 0 60 72" xml:space="preserve">
<g id="bounds"><rect opacity="0" width="60" height="72"/></g>
<g id="icon">
<path d="M29.988,28c-4.136,0-7.5,3.365-7.5,7.5c0,4.135,3.365,7.5,7.5,7.5c4.135,0,7.5-3.365,7.5-7.5C37.488,31.364,34.123,28,29.988,28z M29.988,40c-2.486,0-4.5-2.015-4.5-4.5s2.015-4.5,4.5-4.5c2.485,0,4.5,2.015,4.5,4.5S32.473,40,29.988,40z"/>
<path d="M30,9C15.112,9,3,21.112,3,36s12.112,27,27,27s27-12.112,27-27S44.888,9,30,9z M44,43c0,2.2-1.8,4-4,4H20c-2.2,0-4-1.8-4-4V29c0-2.2,1.8-4,4-4h2.55c0.367-0.644,0.854-1.488,1.168-1.983C24.271,22.144,24.935,22,25.753,22h8.493c0.818,0,1.482,0.144,2.035,1.017c0.314,0.495,0.801,1.339,1.168,1.983H40c2.2,0,4,1.8,4,4V43z"/>
<circle cx="39.238" cy="29.75" r="1.75"/>
</g>
</svg>
