<?xml version="1.0" encoding="utf-8"?>
<svg version="1.1" xmlns="http://www.w3.org/2000/svg" xmlns:xlink="http://www.w3.org/1999/xlink" x="0px" y="0px" width="60" height="72" viewBox="0 0 60 72" enable-background="new 0 0 60 72" xml:space="preserve">
<g id="bounds"><rect opacity="0" width="60" height="72"/></g>
<g id="icon">
<path d="M30,9C15.112,9,3,21.112,3,36s12.112,27,27,27s27-12.112,27-27S44.888,9,30,9z M39.41,27.511l0.549-0.348l-0.19,0.622c-0.224,0.733-0.534,1.256-1.027,1.964c-1.034,1.486-2.213,1.964-3.997,2.688c-0.23,0.093-0.47,0.191-0.722,0.295c-1.078,0.447-1.803,1.334-2.144,1.831c1.162-0.048,2.337-0.332,3.499-0.844l0.458-0.202L35.709,34c-0.678,2.556-3.489,3.666-6.557,4.667c-2.78,0.907-3.972,2.013-5.799,5.379c-0.625,1.146-1.156,2.084-1.595,2.86c-0.201,0.355-0.383,0.676-0.545,0.967c-0.621,1.116-1.765,2.687-2.365,2.687l-0.08-0.006l-0.036-0.011c-0.07-0.022-0.169-0.078-0.24-0.218c-0.25-0.489-0.05-1.98,0.486-3.627l0.052-0.164c0.389-1.219,1.421-4.457,4.179-9.174c4.979-8.539,10.525-13.565,16.957-15.364l0.219-0.061l0.074,0.214c0.019,0.054,0.428,1.333-1.667,3.303c-0.459,0.431-0.935,0.798-1.396,1.153c-0.91,0.7-1.775,1.366-2.344,2.419C36.219,28.893,38.247,28.249,39.41,27.511z"/>
</g>
</svg>
