<?xml version="1.0" encoding="utf-8"?>
<svg version="1.1" xmlns="http://www.w3.org/2000/svg" xmlns:xlink="http://www.w3.org/1999/xlink" x="0px" y="0px" width="48" height="56" viewBox="0 0 48 56" enable-background="new 0 0 48 56" xml:space="preserve">
<g id="bounds"><rect opacity="0" width="48" height="56"/></g>
<g id="icon">
<path d="M38.8,7H9.2C5.8,7,3,9.8,3,13.2v29.6C3,46.2,5.8,49,9.2,49h29.6c3.4,0,6.2-2.8,6.2-6.2V13.2C45,9.8,42.2,7,38.8,7zM34.7,30.3h-8.4v8.4c0,1.3-1,2.3-2.3,2.3c-1.3,0-2.3-1-2.3-2.3v-8.4h-8.4c-1.3,0-2.3-1-2.3-2.3s1-2.3,2.3-2.3h8.4v-8.4c0-1.3,1-2.3,2.3-2.3c1.3,0,2.3,1,2.3,2.3v8.4h8.4c1.3,0,2.3,1,2.3,2.3C37,29.3,36,30.3,34.7,30.3z"/>
</g>
</svg>
