<?xml version="1.0" encoding="utf-8"?>
<!-- Generator: Adobe Illustrator 18.1.0, SVG Export Plug-In . SVG Version: 6.00 Build 0)  -->
<svg version="1.1" id="Layer_1" xmlns="http://www.w3.org/2000/svg" xmlns:xlink="http://www.w3.org/1999/xlink" x="0px" y="0px"
	 width="72px" height="72px" viewBox="0 0 72 72" enable-background="new 0 0 72 72" xml:space="preserve">
<g>
	<path d="M28.636,36c0-4.067,3.297-7.364,7.364-7.364s7.364,3.297,7.364,7.364S40.067,43.364,36,43.364S28.636,40.067,28.636,36"/>
	<path d="M60.052,23.742L63,9l-14.742,2.948C44.579,10.068,40.416,9,36,9C21.088,9,9,21.088,9,36c0,14.911,12.088,27,27,27s27-12.089,27-27C63,31.584,61.932,27.421,60.052,23.742 M36,54.159c-10.029,0-18.159-8.13-18.159-18.159S25.971,17.841,36,17.841S54.159,25.971,54.159,36S46.029,54.159,36,54.159"/>
</g>
</svg>
