<?xml version="1.0" encoding="utf-8"?>
<svg version="1.1" id="Layer_1" xmlns="http://www.w3.org/2000/svg" xmlns:xlink="http://www.w3.org/1999/xlink" x="0px" y="0px"
	 width="50px" height="40px" viewBox="0 0 50 40" enable-background="new 0 0 50 40" xml:space="preserve">
<g>
	<g>
		<g>
			<rect x="31.407" y="9.575" fill="#292F33" width="1.5" height="3"/>
		</g>
		<g>
			<rect x="18.343" y="9.561" fill="#292F33" width="1.5" height="3"/>
		</g>
		<rect x="15.625" y="3.966" fill="#1DA1F2" width="20" height="6"/>
	</g>
	<g>
		<g>
			<rect x="3.875" y="15.284" fill="#292F33" width="1.5" height="1.5"/>
		</g>
		<rect x="6.875" y="16.784" fill="#F5F8FA" width="37.5" height="17.75"/>
		<g>
			<rect x="6.875" y="13.784" fill="#FFFFFF" width="37.5" height="1.5"/>
			<path fill="#8899A6" d="M5.375,12.284v23.75h40.5v-23.75H5.375z M44.375,34.534h-37.5v-17.75h37.5V34.534z M6.875,15.284v-1.5
				h37.5v1.5H6.875z"/>
		</g>
		<g>
			<rect x="24.375" y="19.784" fill="#FFFFFF" width="17" height="11.25"/>
			<path fill="#AAB8C2" d="M22.875,18.284v14.25h20v-14.25H22.875z M41.375,31.034h-17v-11.25h17V31.034z"/>
		</g>
		<path fill="#E81C4F" d="M10.125,21.562l-2.75-2.778v1h-1.25c-1.241,0-2.25-1.009-2.25-2.25v-7.75l-1.75,1.25l-1.75-1.25v7.75
			c0,3.171,2.579,5.75,5.75,5.75h1.25v1.056L10.125,21.562z"/>
		<polygon fill="#E1E8EC" points="32.875,21.909 33.569,22.718 34.559,22.324 34.798,23.363 35.858,23.474 35.586,24.505 
			36.473,25.096 35.753,25.882 36.264,26.818 35.261,27.18 35.278,28.245 34.222,28.1 33.742,29.052 32.875,28.432 32.008,29.052 
			31.528,28.1 30.472,28.245 30.489,27.18 29.486,26.818 29.997,25.882 29.277,25.096 30.164,24.505 29.892,23.474 30.952,23.363 
			31.191,22.324 32.181,22.718 		"/>
	</g>
	<path fill="#8899A6" d="M12.375,19.534v16.5h8v-16.5H12.375z M13.875,21.034h5v13.5h-5"/>
	<g>
		<rect x="1.625" y="34.534" fill="#292F33" width="48" height="1.5"/>
	</g>
</g>
</svg>
