<?xml version="1.0" encoding="utf-8"?>
<svg version="1.1" id="Layer_1" xmlns="http://www.w3.org/2000/svg" xmlns:xlink="http://www.w3.org/1999/xlink" x="0px" y="0px"
	 width="50px" height="40px" viewBox="0 0 50 40" enable-background="new 0 0 50 40" xml:space="preserve">
<g>
	<g>
		<g>
			<rect x="6.963" y="5.964" fill="#CCD6DD" width="37.073" height="27.097"/>
			<path fill="#AAB8C2" d="M5.5,4.513v30h40v-30H5.5z M44.037,33.061H6.963V5.964h37.073V33.061z"/>
		</g>
		<path fill="#FFFFFF" d="M43.549,10.319h-14.69c-0.211,0-0.398-0.134-0.464-0.333l-0.419-1.995
			c-0.066-0.199-0.143-0.333-0.354-0.333h-9.756c-0.211,0-0.288,0.134-0.354,0.333l-0.419,1.995
			c-0.066,0.199-0.253,0.333-0.464,0.333H7.451c-0.269,0-0.488,0.217-0.488,0.484v22.258h37.073V10.803
			C44.037,10.536,43.818,10.319,43.549,10.319z"/>
		<ellipse fill="#E81C4F" cx="8.963" cy="8.049" rx="1" ry="0.967"/>
		<ellipse fill="#FAB81E" cx="11.963" cy="8.049" rx="1" ry="0.967"/>
		<ellipse fill="#5C913B" cx="14.963" cy="8.049" rx="1" ry="0.967"/>
		<g id="window-title_27_">
			<rect x="28.017" y="14.171" fill="#8899A6" width="9" height="1"/>
		</g>
		<g id="window-title_26_">
			<rect x="28.017" y="23.171" fill="#E81C4F" width="8" height="2"/>
		</g>
		<g id="window-title_25_">
			<rect x="28.017" y="17.171" fill="#CCD6DD" width="10" height="1"/>
		</g>
		<g id="window-title_28_">
			<rect x="28.017" y="19.171" fill="#CCD6DD" width="10" height="1"/>
		</g>
		<rect x="13.354" y="14.654" fill="#CCD6DD" width="12.569" height="14.502"/>
	</g>
	<g>
		<circle fill="#FFFFFF" cx="12.5" cy="27.487" r="9.333"/>
		<g>
			<path fill="#66757F" d="M21.832,23.9c-0.269-0.698-0.613-1.36-1.025-1.973c-1.503-2.238-3.885-3.836-6.648-4.299
				c-0.193-0.032-0.387-0.06-0.583-0.082c-0.354-0.038-0.712-0.059-1.076-0.059s-0.722,0.021-1.076,0.059
				c-0.196,0.021-0.391,0.049-0.583,0.082c-2.763,0.464-5.145,2.062-6.648,4.299C3.781,22.54,3.437,23.201,3.168,23.9
				C2.738,25.014,2.5,26.223,2.5,27.487s0.238,2.473,0.668,3.588c0.269,0.698,0.613,1.36,1.025,1.973
				c1.503,2.238,3.885,3.836,6.648,4.299c0.193,0.032,0.387,0.06,0.583,0.082c0.354,0.038,0.712,0.059,1.076,0.059
				s0.722-0.021,1.076-0.059c0.196-0.021,0.391-0.049,0.583-0.082c2.763-0.464,5.145-2.062,6.648-4.299
				c0.412-0.613,0.756-1.274,1.025-1.973c0.43-1.114,0.668-2.323,0.668-3.588S22.262,25.014,21.832,23.9z M18.782,22.921
				c-0.72,0.294-1.464,0.541-2.23,0.733c-0.238-1.152-0.585-2.264-1.023-3.329C16.837,20.879,17.956,21.787,18.782,22.921z
				 M14.722,27.487c0,0.417-0.021,0.83-0.051,1.24c-0.713-0.082-1.437-0.129-2.171-0.129c-0.735,0-1.458,0.047-2.171,0.129
				c-0.03-0.41-0.051-0.822-0.051-1.24s0.021-0.83,0.051-1.24c0.713,0.082,1.437,0.129,2.171,0.129c0.735,0,1.458-0.047,2.171-0.129
				C14.702,26.657,14.722,27.07,14.722,27.487z M12.797,35.25c-0.099,0.004-0.197,0.015-0.297,0.015s-0.198-0.011-0.297-0.015
				c-0.71-1.344-1.244-2.794-1.566-4.323c0.612-0.068,1.233-0.107,1.863-0.107c0.63,0,1.251,0.038,1.863,0.107
				C14.041,32.456,13.508,33.906,12.797,35.25z M12.202,19.725c0.099-0.004,0.197-0.015,0.297-0.015s0.198,0.011,0.297,0.015
				c0.71,1.344,1.244,2.794,1.566,4.323c-0.612,0.068-1.233,0.107-1.863,0.107c-0.63,0-1.251-0.038-1.863-0.107
				C10.959,22.519,11.492,21.068,12.202,19.725z M9.47,20.324c-0.438,1.065-0.784,2.177-1.023,3.329
				c-0.766-0.192-1.51-0.438-2.23-0.733C7.044,21.787,8.163,20.879,9.47,20.324z M4.722,27.487c0-0.909,0.165-1.778,0.453-2.59
				c0.948,0.4,1.936,0.721,2.955,0.963c-0.046,0.537-0.075,1.078-0.075,1.627s0.029,1.09,0.075,1.627
				c-1.019,0.242-2.007,0.563-2.955,0.963C4.887,29.266,4.722,28.396,4.722,27.487z M6.218,32.054
				c0.72-0.294,1.464-0.541,2.23-0.733c0.238,1.152,0.585,2.264,1.023,3.329C8.163,34.095,7.044,33.188,6.218,32.054z M15.53,34.65
				c0.438-1.065,0.784-2.177,1.023-3.329c0.766,0.192,1.51,0.438,2.23,0.733C17.956,33.188,16.837,34.095,15.53,34.65z
				 M16.87,29.114c0.046-0.537,0.075-1.078,0.075-1.627s-0.029-1.09-0.075-1.627c1.019-0.242,2.007-0.563,2.955-0.963
				c0.288,0.812,0.453,1.681,0.453,2.59s-0.165,1.778-0.453,2.59C18.877,29.677,17.888,29.357,16.87,29.114z"/>
		</g>
	</g>
</g>
</svg>
