<?xml version="1.0" encoding="utf-8"?>
<svg version="1.1" id="Layer_1" xmlns="http://www.w3.org/2000/svg" xmlns:xlink="http://www.w3.org/1999/xlink" x="0px" y="0px"
	 width="50px" height="40px" viewBox="0 0 50 40" enable-background="new 0 0 50 40" xml:space="preserve">
<g>
	<g>
		<g>
			<path fill="#CCD6DD" d="M10.327,31.011h9.362L25,38l5.311-6.989h9.362V4H10.327V31.011z M12.328,6.001h25.344v23.01h-8.233
				L25,34.693l-4.439-5.683h-8.233V6.001z"/>
			<g>
				<polygon fill="#FFFFFF" points="14.329,27.01 20.665,27.01 21.537,27.01 25,31.443 28.463,27.01 29.669,27.01 35.671,27.01 
					35.671,8.001 14.329,8.001 				"/>
				<path fill="#19CF86" d="M12.328,6.001v23.01h8.233L25,34.693l4.439-5.683h8.233V6.001H12.328z M35.671,27.01h-7.208L25,31.443
					l-3.463-4.434h-7.208V8.001h21.343V27.01z"/>
			</g>
		</g>
	</g>
</g>
</svg>
