<svg xmlns="http://www.w3.org/2000/svg" width="24" height="24" viewBox="0 0 24 24">
    <path id="bounds" opacity="0" d="M0 0h24v24H0z"/>
    <path d="M11.9 17.02c.573 0 1.032-.45 1.072-1.013h-2.146c.04.565.5 1.014 1.073 1.014z"/>
    <path d="M11.903 1.25C5.975 1.25 1.153 6.072 1.153 12s4.822 10.75 10.75 10.75 10.75-4.822 10.75-10.75S17.83 1.25 11.903 1.25zm-5.98 10.235c.007.265-.202.485-.468.492h-.013c-.26 0-.473-.206-.48-.467-.024-.876.063-2.048.958-3.328.893-1.282 1.963-1.767 2.795-2.047.25-.082.524.05.608.302s-.05.523-.302.608c-.77.26-1.586.643-2.313 1.685-.73 1.045-.806 1.98-.785 2.755zm1.486.602h-.015c-.26 0-.473-.206-.48-.466-.016-.603.044-1.407.66-2.29.615-.88 1.35-1.215 1.92-1.408.253-.08.523.05.61.302.083.25-.052.523-.303.608-.48.162-.99.402-1.44 1.05-.452.645-.5 1.204-.487 1.712.008.265-.2.486-.466.493zm8.58 3.7c-.045.13-.168.22-.307.22H13.98c-.04 1.117-.954 2.015-2.08 2.015s-2.042-.898-2.082-2.014H8.115c-.14 0-.265-.09-.31-.224-.043-.133.003-.28.116-.362.034-.025.868-.69.853-2.453-.01-1.04.334-1.966.965-2.605.566-.572 1.332-.89 2.157-.895h.007c.825.004 1.592.32 2.157.895.63.64.973 1.563.964 2.604-.015 1.762.82 2.427.855 2.454.11.085.155.23.11.362zm.42-3.7h-.014c-.265-.007-.474-.228-.466-.493.014-.507-.035-1.066-.487-1.714-.45-.646-.96-.886-1.44-1.048-.25-.085-.386-.357-.302-.608.087-.25.358-.382.61-.302.57.193 1.305.527 1.92 1.41.616.882.676 1.687.66 2.29-.007.26-.22.465-.48.465zm2.433-.576c-.007.262-.22.468-.48.468h-.012c-.264-.007-.473-.228-.466-.492.02-.816-.06-1.715-.785-2.755-.728-1.04-1.543-1.425-2.315-1.685-.25-.085-.386-.357-.302-.608.085-.25.357-.384.608-.302.833.28 1.902.766 2.796 2.047.887 1.27.98 2.395.957 3.33z"/>
</svg>
