<svg xmlns="http://www.w3.org/2000/svg" width="24" height="24" viewBox="0 0 24 24">
    <path id="bounds" opacity="0" d="M0 0h24v24H0z"/>
    <path d="M18.114 12.77c.017-2.026-.653-3.83-1.886-5.078-1.11-1.122-2.608-1.744-4.223-1.75H12h-.008c-1.613.006-3.113.628-4.222 1.75-1.232 1.248-1.902 3.052-1.885 5.08.028 3.302-1.522 4.55-1.582 4.596-.26.192-.366.53-.265.837.102.308.39.515.712.515h3.712c.16 1.82 1.676 3.26 3.538 3.26s3.378-1.44 3.538-3.26h3.712c.32 0 .602-.206.706-.51.104-.302 0-.64-.252-.837-.066-.052-1.618-1.3-1.59-4.602zM12 20.48c-1.035 0-1.887-.767-2.038-1.76h4.076c-.15.993-1.003 1.76-2.038 1.76zm-5.684-3.26c.548-.93 1.086-2.376 1.068-4.46-.013-1.65.49-3.037 1.453-4.013.826-.837 1.95-1.3 3.162-1.306 1.212.006 2.335.47 3.16 1.306.965.976 1.468 2.364 1.454 4.013-.018 2.084.52 3.53 1.068 4.46H6.316zM16.233 4.015c-.396-.13-.818.08-.95.47-.133.394.077.82.47.952.843.284 1.73.703 2.52 1.833.788 1.13.875 2.107.85 2.995-.01.414.316.76.73.77h.02c.406 0 .74-.32.75-.728.028-1.026-.074-2.396-1.12-3.896-1.047-1.497-2.297-2.066-3.27-2.395z"/>
    <path d="M22.01 4.724c-1.513-2.17-3.26-2.984-4.77-3.495-.397-.132-.818.078-.952.47-.132.393.078.818.47.95 1.345.454 2.763 1.124 4.023 2.933 1.27 1.814 1.402 3.438 1.365 4.785-.01.414.315.76.73.77h.02c.405 0 .738-.32.75-.728.042-1.595-.118-3.515-1.634-5.686zM4.147 11.035c.414-.012.74-.356.73-.77-.024-.888.062-1.866.852-2.995.787-1.13 1.675-1.55 2.518-1.833.392-.133.602-.56.47-.952-.133-.39-.553-.6-.95-.47-.974.33-2.224.898-3.27 2.395-1.046 1.5-1.148 2.87-1.12 3.896.01.407.344.73.75.73h.02z"/>
    <path d="M7.242 2.65c.393-.133.603-.56.47-.95-.133-.39-.553-.602-.95-.47-1.51.51-3.26 1.323-4.773 3.493C.47 6.895.31 8.816.354 10.41c.012.406.345.728.75.728h.02c.415-.012.74-.356.73-.77-.037-1.348.097-2.972 1.365-4.787 1.26-1.807 2.678-2.476 4.022-2.93z"/>
</svg>
