<svg xmlns="http://www.w3.org/2000/svg" width="24" height="24" viewBox="0 0 24 24">
    <path id="bounds" opacity="0" d="M0 0h24v24H0z"/>
    <path d="M11.98 18.23c.766 0 1.39-.603 1.43-1.36h-2.86c.04.757.664 1.36 1.43 1.36z"/>
    <path d="M20.75 2H3.25C2.007 2 1 3.007 1 4.25v15.5C1 20.993 2.007 22 3.25 22h17.5c1.243 0 2.25-1.007 2.25-2.25V4.25C23 3.007 21.993 2 20.75 2zM4.906 11.34c.007.268-.205.49-.474.498H4.42c-.264 0-.48-.21-.487-.474-.03-1.082.08-2.387 1.108-3.86C6.07 6.03 7.257 5.48 8.28 5.132c.258-.084.532.05.618.305.086.255-.05.53-.305.617-.874.296-1.887.765-2.752 2.007-.866 1.243-.958 2.355-.934 3.28zm1.805.626c-.262 0-.478-.21-.485-.473-.02-.696.05-1.625.76-2.64C7.694 7.834 8.54 7.45 9.2 7.228c.255-.085.53.05.616.305.086.255-.05.53-.305.616-.576.195-1.186.48-1.728 1.26-.542.775-.602 1.446-.585 2.056.008.27-.204.493-.473.5H6.71zm10.253 4.642c-.053.156-.198.263-.363.263h-2.19c-.04 1.31-1.112 2.36-2.43 2.36s-2.388-1.05-2.43-2.36H7.36c-.165 0-.312-.105-.365-.264-.052-.158.003-.33.137-.43.04-.032 1.062-.847 1.044-3.004-.01-1.268.407-2.394 1.176-3.17.688-.698 1.62-1.084 2.624-1.09h.008c1.004.006 1.936.393 2.625 1.09.77.777 1.186 1.903 1.175 3.17-.02 2.157 1.005 2.972 1.048 3.005.13.1.184.275.13.43zm.81-5.115c-.008.264-.225.473-.487.473h-.014c-.27-.007-.48-.23-.473-.5.016-.61-.044-1.28-.586-2.057-.542-.778-1.15-1.064-1.73-1.26-.254-.084-.39-.36-.305-.615.085-.256.36-.394.615-.306.658.22 1.506.604 2.217 1.622.71 1.016.78 1.945.76 2.64zm2.29-.13c-.007.266-.224.475-.486.475h-.013c-.27-.007-.48-.23-.474-.5.024-.922-.067-2.033-.935-3.277-.867-1.24-1.88-1.71-2.754-2.006-.254-.086-.39-.362-.305-.616.086-.255.365-.393.616-.306 1.026.346 2.214.898 3.243 2.372 1.03 1.475 1.14 2.78 1.11 3.86z"/>
</svg>
