<svg xmlns="http://www.w3.org/2000/svg" width="24" height="24" viewBox="0 0 24 24">
    <path id="bounds" opacity="0" d="M0 0h24v24H0z"/>
    <path d="M12 1.25C6.072 1.25 1.25 6.072 1.25 12S6.072 22.75 12 22.75 22.75 17.928 22.75 12 17.928 1.25 12 1.25zm3.85 10.203c-.147.146-.34.22-.53.22s-.385-.073-.53-.22l-2.04-2.038v6.772c0 .414-.336.75-.75.75s-.75-.336-.75-.75V9.415l-2.038 2.038c-.293.293-.768.293-1.06 0s-.294-.768 0-1.06l3.317-3.32c.292-.292.767-.292 1.06 0l3.318 3.32c.294.293.294.767 0 1.06z"/>
</svg>
