<svg xmlns="http://www.w3.org/2000/svg" width="24" height="24" viewBox="0 0 24 24">
    <path id="bounds" opacity="0" d="M0 0h24v24H0z"/>
    <path d="M11.97 1.25C6.044 1.25 1.22 6.072 1.22 12s4.823 10.75 10.75 10.75c5.93 0 10.75-4.822 10.75-10.75S17.9 1.25 11.97 1.25zm6.18 11.534c0 .11-.09.2-.2.2H8.46v1.084h5.25c.112 0 .202.09.202.2v1.67c0 .112-.09.2-.2.2H8.458v.725c0 .297-.24.537-.538.537-.297 0-.537-.24-.537-.537v-9.79c0-.296.24-.536.537-.536.297 0 .537.24.537.537v.684h7.263c.11 0 .2.09.2.2v1.67c0 .11-.09.2-.2.2H8.46v1.085h9.49c.11 0 .2.09.2.2v1.67z"/>
</svg>
