<svg xmlns="http://www.w3.org/2000/svg" width="24" height="24" viewBox="0 0 24 24">
    <path id="bounds" opacity="0" d="M0 0h24v24H0z"/>
    <path d="M23.25 3.184h-2.425V.76c0-.415-.336-.75-.75-.75s-.75.335-.75.75v2.424H16.9c-.414 0-.75.336-.75.75s.336.75.75.75h2.425V7.11c0 .413.336.75.75.75s.75-.337.75-.75V4.683h2.425c.414 0 .75-.336.75-.75s-.336-.75-.75-.75zM20.075 10.06c-.414 0-.75.337-.75.75v8.08c0 .413-.337.75-.75.75H4.095c-.412 0-.75-.337-.75-.75V8.23l6.778 4.518c.368.246.79.37 1.213.37.422 0 .844-.124 1.212-.37l4.53-3.013c.336-.223.428-.676.204-1.012-.223-.334-.675-.427-1.012-.203l-4.53 3.015c-.246.162-.563.163-.808 0l-7.586-5.06V5.435c0-.414.337-.75.75-.75h9.094c.414 0 .75-.336.75-.75s-.336-.75-.75-.75H4.096c-1.24 0-2.25 1.01-2.25 2.25V18.89c0 1.24 1.01 2.25 2.25 2.25h14.48c1.24 0 2.25-1.01 2.25-2.25v-8.08c0-.414-.337-.75-.75-.75z"/>
</svg>
