<svg xmlns="http://www.w3.org/2000/svg" width="24" height="24" viewBox="0 0 24 24">
    <path id="bounds" opacity="0" d="M0 0h24v24H0z"/>
    <path d="M17.25 1.25h-7.5c-.414 0-.75.336-.75.75s.336.75.75.75h7.5c.413 0 .75.337.75.75v14.75c0 .414.336.75.75.75s.75-.336.75-.75V3.5c0-1.24-1.01-2.25-2.25-2.25z"/>
    <path d="M14.5 4h-7C6.26 4 5.25 5.01 5.25 6.25v13.5C5.25 20.99 6.26 22 7.5 22h7c1.24 0 2.25-1.01 2.25-2.25V6.25C16.75 5.01 15.74 4 14.5 4zm.75 15.75c0 .413-.337.75-.75.75h-7c-.413 0-.75-.337-.75-.75V6.25c0-.413.337-.75.75-.75h7c.413 0 .75.337.75.75v13.5z"/>
    <path d="M13.125 12.25H11.75v-1.375c0-.414-.336-.75-.75-.75s-.75.336-.75.75v1.375H8.875c-.414 0-.75.336-.75.75s.336.75.75.75h1.375v1.375c0 .414.336.75.75.75s.75-.336.75-.75V13.75h1.375c.414 0 .75-.336.75-.75s-.336-.75-.75-.75z"/>
</svg>
