<svg xmlns="http://www.w3.org/2000/svg" width="24" height="24" viewBox="0 0 24 24">
    <path id="bounds" opacity="0" d="M0 0h24v24H0z"/>
    <path d="M19.944 16.503v-3.476c0-4.128-3.164-7.527-7.194-7.906V4.5h1.306c.414 0 .75-.336.75-.75S14.47 3 14.056 3H9.944c-.414 0-.75.336-.75.75s.336.75.75.75h1.306v.62c-4.03.38-7.194 3.78-7.194 7.907v3.476C2.874 16.833 2 17.91 2 19.193 2 20.742 3.26 22 4.806 22h14.39C20.74 22 22 20.74 22 19.194c0-1.285-.874-2.36-2.056-2.69zM12 6.583c3.554 0 6.444 2.89 6.444 6.444v3.36H5.556v-3.36c0-3.553 2.89-6.444 6.444-6.444zM19.194 20.5H4.806c-.72 0-1.306-.586-1.306-1.306s.586-1.306 1.306-1.306h14.39c.72 0 1.305.586 1.305 1.306s-.586 1.306-1.306 1.306z"/>
</svg>
