<svg xmlns="http://www.w3.org/2000/svg" width="24" height="24" viewBox="0 0 24 24">
    <path id="bounds" opacity="0" d="M0 0h24v24H0z"/>
    <path d="M11.984 8.024c-.592 1.176-1.23 1.967-1.773 2.636-.823 1.02-1.368 1.692-1.368 3.15 0 .194.026.39.07.582l6.178-1.196c-.135-1.057-.633-1.672-1.332-2.537-.542-.67-1.182-1.46-1.774-2.636z"/>
    <path d="M12 1.25C6.072 1.25 1.25 6.072 1.25 12S6.072 22.75 12 22.75 22.75 17.928 22.75 12 17.928 1.25 12 1.25zm4.36 12.702c-.077 1.984-1.738 4.068-4.383 4.068-2.71 0-4.386-2.186-4.386-4.21 0-1.9.765-2.845 1.648-3.938.705-.87 1.503-1.857 2.158-3.64.182-.493.992-.493 1.174 0 .655 1.78 1.453 2.77 2.158 3.64.883 1.093 1.646 2.036 1.646 3.937.002.05-.004.097-.015.142z"/>
</svg>
