<svg xmlns="http://www.w3.org/2000/svg" width="24" height="24" viewBox="0 0 24 24">
    <path id="bounds" opacity="0" d="M0 0h24v24H0z"/>
    <path d="M12 1.25C6.072 1.25 1.25 6.072 1.25 12S6.072 22.75 12 22.75 22.75 17.928 22.75 12 17.928 1.25 12 1.25zm.025 16.468c-.708 0-1.28-.574-1.28-1.28 0-.71.572-1.282 1.28-1.282.708 0 1.28.573 1.28 1.28.002.708-.57 1.282-1.28 1.282zM14.47 7.636l-1.815 6.098c-.063.212-.258.357-.48.357h-.298c-.222 0-.416-.145-.48-.356L9.583 7.636c-.045-.152-.016-.316.08-.442.093-.127.24-.2.4-.2h3.927c.157 0 .306.073.4.2.094.126.124.29.08.442z"/>
</svg>
