<svg xmlns="http://www.w3.org/2000/svg" width="24" height="24" viewBox="0 0 24 24">
    <path id="bounds" opacity="0" d="M0 0h24v24H0z"/>
    <path d="M12 1.25C6.072 1.25 1.25 6.072 1.25 12S6.072 22.75 12 22.75 22.75 17.928 22.75 12 17.928 1.25 12 1.25zm1.397 15.268c-.08.03-.176.03-.24-.06-.097-.13.037-.315.037-.315.508-.896 1.158-2.437-.47-5.172-.056.53-.286 1.267-.99 2.08-1.326 1.526-.078 4.066.078 4.368.043.084.073.155-.008.266-.062.085-.213.062-.24.05-.145-.064-3.58-1.6-4.198-3.975-.24-.925-.022-1.848.652-2.743 1.412-1.875 1.647-2.615 1.65-2.622.028-.095.12-.154.22-.145.1.01.175.092.18.19.062 1.01.284 1.72.428 2.084 1.556-1.964 1.683-4.21 1.684-4.235.005-.09.067-.168.154-.19.088-.022.18.015.226.092.01.02 1.173 1.913 2.542 3.743.97 1.296 1.35 2.426 1.35 3.44 0 1.224-1.21 2.48-3.055 3.143z"/>
</svg>
