<svg xmlns="http://www.w3.org/2000/svg" width="24" height="24" viewBox="0 0 24 24">
    <path id="bounds" opacity="0" d="M0 0h24v24H0z"/>
    <path d="M17.597 8.596c-2.352-3.146-4.35-6.4-4.37-6.433-.08-.132-.238-.198-.388-.158-.15.038-.26.17-.266.325-.002.04-.22 3.904-2.894 7.28-.248-.627-.63-1.846-.734-3.58-.01-.17-.142-.31-.31-.33-.172-.015-.33.087-.38.25-.005.013-.408 1.286-2.836 4.51-1.16 1.537-1.536 3.123-1.12 4.712 1.064 4.082 6.967 6.724 7.218 6.834.046.02.094.03.142.03h.007c.195 0 .353-.158.353-.353 0-.084-.03-.16-.077-.22-.268-.52-2.414-4.885-.137-7.51 1.212-1.396 1.607-2.664 1.703-3.57 2.798 4.7 1.045 7.79.17 9.33l-.077.14c-.072.13-.057.29.038.4.096.114.252.155.39.106 3.172-1.14 5.085-2.732 5.687-4.734.605-2.014-.088-4.313-2.12-7.03z"/>
</svg>
