<svg xmlns="http://www.w3.org/2000/svg" width="24" height="24" viewBox="0 0 24 24">
    <path id="bounds" opacity="0" d="M0 0h24v24H0z"/>
    <path d="M21.824 6.815c-.374-.185-.82-.03-1.005.34l-2.694 5.434-1.58-1.68c-.284-.3-.758-.314-1.06-.03-.302.284-.316.76-.032 1.06l2.32 2.464c.146.156.345.235.544.235.277-.002.542-.155.672-.418l3.172-6.4c.185-.373.033-.823-.338-1.007zM9.434 11.65c-1.335 0-2.828-.146-3.78-1.236-.802-.916-1.062-2.33-.794-4.324.374-2.783 2.084-4.443 4.574-4.443 2.49 0 4.2 1.66 4.574 4.443.268 1.993.008 3.408-.793 4.324-.953 1.09-2.446 1.237-3.78 1.237zM15.48 22H3.388c-.685 0-1.29-.29-1.706-.813-.437-.55-.595-1.31-.425-2.033.863-3.65 4.225-5.78 8.176-5.78s7.313 2.13 8.176 5.78c.17.722.01 1.482-.426 2.033-.412.524-1.018.813-1.704.813z"/>
</svg>
