<svg xmlns="http://www.w3.org/2000/svg" width="24" height="24" viewBox="0 0 24 24">
    <path id="bounds" opacity="0" d="M0 0h24v24H0z"/>
    <path d="M12 1.25C6.072 1.25 1.25 6.072 1.25 12S6.072 22.75 12 22.75 22.75 17.928 22.75 12 17.928 1.25 12 1.25zM8.255 8.71c.202-1.503 1.126-2.4 2.472-2.4s2.27.897 2.472 2.4c.144 1.078.003 1.843-.43 2.338-.515.59-1.322.668-2.043.668-.72 0-1.528-.08-2.043-.668-.433-.496-.573-1.26-.43-2.337zm6.662 8.16c-.224.283-.55.44-.922.44H7.46c-.37 0-.698-.157-.922-.44-.236-.298-.322-.71-.23-1.1.467-1.972 2.285-3.122 4.42-3.122s3.952 1.15 4.42 3.123c.09.39.005.802-.23 1.1zm3.916-7.69l-1.98 4.058c-.09.18-.26.308-.46.34-.033.007-.067.01-.102.01-.163 0-.323-.064-.44-.183l-1.397-1.395c-.243-.244-.243-.64 0-.885.244-.244.64-.244.885 0l.776.776 1.596-3.27c.15-.31.528-.436.837-.286.31.152.437.526.286.837z"/>
</svg>
