<svg xmlns="http://www.w3.org/2000/svg" width="24" height="24" viewBox="0 0 24 24">
    <path id="bounds" opacity="0" d="M0 0h24v24H0z"/>
    <path d="M9.434 11.65c1.335 0 2.828-.146 3.78-1.236.802-.916 1.062-2.33.794-4.324-.373-2.783-2.083-4.443-4.574-4.443-2.49 0-4.2 1.66-4.574 4.443-.268 1.993-.008 3.408.793 4.324.953 1.09 2.446 1.237 3.78 1.237zM9.434 13.375c-3.95 0-7.313 2.13-8.176 5.78-.17.72-.012 1.48.425 2.032.414.524 1.02.813 1.705.813H15.48c.685 0 1.29-.29 1.706-.813.437-.55.595-1.31.425-2.033-.863-3.65-4.225-5.78-8.176-5.78zM20.644 10.862l1.97-1.97c.293-.293.293-.768 0-1.06s-.768-.294-1.06 0l-1.97 1.97-1.97-1.97c-.294-.294-.77-.294-1.062 0s-.293.767 0 1.06l1.97 1.97-1.97 1.97c-.293.293-.293.768 0 1.06.146.147.338.22.53.22s.384-.072.53-.22l1.97-1.97 1.97 1.97c.146.147.338.22.53.22s.384-.072.53-.22c.293-.292.293-.767 0-1.06l-1.968-1.97z"/>
</svg>
