<svg xmlns="http://www.w3.org/2000/svg" width="24" height="24" viewBox="0 0 24 24">
    <path id="bounds" opacity="0" d="M0 0h24v24H0z"/>
    <path d="M20.644 10.862l1.97-1.97c.293-.293.293-.768 0-1.06s-.768-.294-1.06 0l-1.97 1.97-1.97-1.97c-.294-.294-.77-.294-1.062 0s-.293.767 0 1.06l1.97 1.97-1.97 1.97c-.293.293-.293.768 0 1.06.146.147.338.22.53.22s.384-.072.53-.22l1.97-1.97 1.97 1.97c.146.147.338.22.53.22s.384-.072.53-.22c.293-.292.293-.767 0-1.06l-1.968-1.97zM9.435 11.816c1.355 0 2.872-.15 3.84-1.256.813-.93 1.077-2.367.806-4.392-.38-2.826-2.115-4.513-4.645-4.513S5.17 3.343 4.79 6.17c-.273 2.022-.01 3.46.805 4.39.967 1.107 2.484 1.256 3.84 1.256zm-3.16-5.448c.16-1.2.786-3.212 3.16-3.212s2.997 2.013 3.158 3.212c.208 1.55.057 2.627-.45 3.205-.454.52-1.265.743-2.71.743s-2.253-.222-2.71-.743c-.505-.578-.656-1.656-.448-3.205zM9.435 13.247c-3.998 0-7.403 2.463-8.28 5.988-.172.693-.028 1.4.395 1.94.408.522 1.04.822 1.733.822h12.305c.693 0 1.325-.3 1.733-.822.424-.54.567-1.247.395-1.94-.877-3.525-4.282-5.988-8.28-5.988zm6.704 7.005c-.127.16-.317.246-.553.246H3.282c-.235 0-.426-.085-.552-.246-.137-.174-.18-.412-.12-.654.71-2.855 3.517-4.85 6.824-4.85s6.114 1.994 6.824 4.85c.06.242.017.48-.12.654z"/>
</svg>
