<svg xmlns="http://www.w3.org/2000/svg" width="32" height="24" viewBox="0 0 32 24">
    <path id="bounds" opacity="0" d="M0 0h32v24H0z"/>
    <path d="M25.994 9.072v2.256h4.504v3.752h-4.504v4.507H22.24V5.32H32v3.753h-6.006zM15.482 19.587h3.752V5.32H15.48v14.267h.002zm-9.236-5.35h2.672v1.288c-.525.307-1.13.496-1.782.496-1.968 0-3.568-1.6-3.568-3.567s1.6-3.565 3.568-3.565c.992 0 1.912.42 2.587 1.14l2.76-2.21v-.07c-1.357-1.54-3.286-2.43-5.35-2.43h.003C3.2 5.317 0 8.517 0 12.452s3.2 7.136 7.136 7.136c2.128 0 4.04-.945 5.35-2.433V11.56h-6.24v2.677z"/>
</svg>
