<svg xmlns="http://www.w3.org/2000/svg" width="24" height="24" viewBox="0 0 24 24">
    <path id="bounds" opacity="0" d="M0 0h24v24H0z"/>
    <path d="M10.488 9.96l-1.24.99c-.303-.322-.717-.51-1.163-.51-.882 0-1.602.717-1.602 1.6s.72 1.6 1.602 1.6c.293 0 .564-.083.8-.22v-.58h-1.2v-1.2h2.802v2.516c-.587.666-1.445 1.09-2.402 1.09-1.766 0-3.203-1.437-3.203-3.205 0-1.764 1.437-3.2 3.202-3.2.928 0 1.794.4 2.404 1.09v.03zm2.862 5.284h-1.686V8.838h1.686v6.406zm5.62-4.72h-2.7v1.01h2.032v1.686h-2.03v2.023H14.59V8.838h4.383v1.685h-.003z"/>
    <path d="M20.5 2.02h-17c-1.24 0-2.25 1.007-2.25 2.247v15.507c0 1.238 1.01 2.246 2.25 2.246h17c1.24 0 2.25-1.008 2.25-2.246V4.267c0-1.24-1.01-2.247-2.25-2.247zm.75 17.754c0 .41-.336.746-.75.746h-17c-.414 0-.75-.336-.75-.746V4.267c0-.412.336-.747.75-.747h17c.414 0 .75.335.75.747v15.507z"/>
</svg>
