<svg xmlns="http://www.w3.org/2000/svg" width="24" height="24" viewBox="0 0 24 24">
    <path id="bounds" opacity="0" d="M0 0h24v24H0z"/>
    <path d="M9.5 11h-6C2.675 11 2 10.325 2 9.5v-6C2 2.675 2.675 2 3.5 2h6c.825 0 1.5.675 1.5 1.5v6c0 .825-.675 1.5-1.5 1.5zM9.5 22h-6c-.825 0-1.5-.675-1.5-1.5v-6c0-.825.675-1.5 1.5-1.5h6c.825 0 1.5.675 1.5 1.5v6c0 .825-.675 1.5-1.5 1.5zM20.5 11h-6c-.825 0-1.5-.675-1.5-1.5v-6c0-.825.675-1.5 1.5-1.5h6c.825 0 1.5.675 1.5 1.5v6c0 .825-.675 1.5-1.5 1.5zM20.5 22h-6c-.825 0-1.5-.675-1.5-1.5v-6c0-.825.675-1.5 1.5-1.5h6c.825 0 1.5.675 1.5 1.5v6c0 .825-.675 1.5-1.5 1.5z"/>
</svg>
