<svg xmlns="http://www.w3.org/2000/svg" width="24" height="24" viewBox="0 0 24 24">
    <path id="bounds" opacity="0" d="M0 0h24v24H0z"/>
    <path opacity="0.2" fill="#FFFFFF" d="M12 1.65C6.293 1.65 1.65 6.293 1.65 12S6.293 22.35 12 22.35 22.35 17.707 22.35 12 17.707 1.65 12 1.65z"/>
    <path fill="#FFFFFF" d="M14.353 7.58c-1.067 0-1.864.647-2.353 1.25-.49-.603-1.286-1.25-2.353-1.25-1.554 0-2.918 1.446-2.918 3.095 0 3.318 3.906 6.82 5.26 6.845h.02c1.355-.025 5.263-3.527 5.263-6.845 0-1.65-1.365-3.096-2.92-3.096zM12 16.397c-.747-.068-4.15-2.985-4.15-5.723 0-1.033.857-1.974 1.797-1.974 1.156 0 1.83 1.377 1.834 1.39.087.21.29.345.518.346H12c.227 0 .43-.137.52-.345.005-.013.678-1.39 1.833-1.39.94 0 1.797.942 1.797 1.975 0 2.738-3.403 5.655-4.15 5.723z"/>
</svg>
