<svg xmlns="http://www.w3.org/2000/svg" width="24" height="24" viewBox="0 0 24 24">
    <path id="bounds" opacity="0" d="M0 0h24v24H0z"/>
    <path d="M12 1.65C6.293 1.65 1.65 6.293 1.65 12S6.293 22.35 12 22.35 22.35 17.707 22.35 12 17.707 1.65 12 1.65z"/>
    <path fill="#FFFFFF" d="M14.745 8.395c-1.69-.395-2.62 1.322-2.74 1.498-.116-.17-.966-1.75-2.534-1.538-1.128.154-1.93 1.17-1.96 2.308-.078 2.963 3.504 6.083 4.494 6.1 1.008-.017 4.706-3.254 4.486-6.265-.074-.997-.77-1.876-1.745-2.103z"/>
</svg>
