<svg xmlns="http://www.w3.org/2000/svg" width="24" height="24" viewBox="0 0 24 24">
    <path id="bounds" opacity="0" d="M0 0h24v24H0z"/>
    <path d="M15.407 9.75h-.682v4.062c0 .55-.45 1-1 1h-3.587v.69c0 .275.225.5.5.5h4.77c.275 0 .5-.225.5-.5V10.25c0-.275-.225-.5-.5-.5z"/>
    <path d="M11.97 1.25C6.044 1.25 1.22 6.072 1.22 12s4.823 10.75 10.75 10.75c5.93 0 10.75-4.822 10.75-10.75S17.9 1.25 11.97 1.25zm4.937 14.253c0 .827-.673 1.5-1.5 1.5h-4.77c-.827 0-1.5-.673-1.5-1.5v-.69h-1.02c-.55 0-1-.45-1-1v-5.61c0-.55.45-1 1-1h5.608c.55 0 1 .45 1 1v.547h.682c.827 0 1.5.673 1.5 1.5v5.253z"/>
</svg>
