<svg xmlns="http://www.w3.org/2000/svg" width="24" height="24" viewBox="0 0 24 24">
    <path id="bounds" opacity="0" d="M0 0h24v24H0z"/>
    <path d="M12.013 1.25C6.085 1.25 1.263 6.072 1.263 12s4.822 10.75 10.75 10.75 10.75-4.822 10.75-10.75S17.94 1.25 12.013 1.25zM9.07 9.628c.245-.244.64-.245.885 0l1.433 1.43V6.572c0-.344.28-.624.625-.624s.625.28.625.625v4.49l1.433-1.433c.243-.244.64-.243.885 0s.243.64 0 .885l-2.5 2.498c-.12.122-.28.183-.44.183s-.32-.06-.442-.183l-2.5-2.498c-.245-.244-.246-.64-.002-.884zm8.065 5.41c0 .91-.74 1.652-1.653 1.652H8.544c-.912 0-1.653-.74-1.653-1.653v-2.47c0-.345.28-.625.626-.625s.625.28.625.625v2.47c0 .22.186.403.404.403h6.938c.22 0 .403-.185.403-.403v-2.47c0-.345.28-.625.625-.625s.625.28.625.625v2.47z"/>
</svg>
