<svg xmlns="http://www.w3.org/2000/svg" width="24" height="24" viewBox="0 0 24 24">
    <path id="bounds" opacity="0" d="M0 0h24v24H0z"/>
    <path d="M12 1.25C6.072 1.25 1.25 6.072 1.25 12S6.072 22.75 12 22.75 22.75 17.928 22.75 12 17.928 1.25 12 1.25zm2.406 12.375c-.125.834-.568 1.57-1.247 2.072l-1.993 1.472c-.548.404-1.197.618-1.876.618-.998 0-1.95-.48-2.542-1.282-.502-.68-.71-1.512-.584-2.347.125-.836.568-1.572 1.247-2.073l1.344-.992c.043.443.15.88.35 1.296l-.95.702c-.41.303-.678.748-.754 1.253-.076.504.05 1.008.353 1.418.364.493.925.775 1.538.775.41 0 .803-.13 1.134-.374l1.992-1.472c.847-.626 1.027-1.824.4-2.67-.29-.393-.705-.644-1.17-.734-.23-.39-.212-.863.036-1.226.834.11 1.63.524 2.14 1.216.502.68.71 1.513.584 2.347zm3.34-3.92c-.125.836-.568 1.572-1.247 2.073l-1.344.992c-.043-.443-.15-.88-.35-1.296l.95-.7c.41-.304.678-.75.754-1.254.076-.504-.05-1.008-.353-1.418-.364-.493-.925-.775-1.538-.775-.41 0-.803.13-1.134.374l-1.992 1.473c-.847.626-1.027 1.824-.4 2.67.29.393.705.644 1.17.734.234.398.208.878-.05 1.243-.84-.114-1.617-.544-2.126-1.233-.502-.68-.71-1.512-.584-2.347.125-.834.568-1.57 1.247-2.072l1.993-1.472c1.353-1 3.422-.686 4.42.663.5.678.708 1.51.583 2.346z"/>
</svg>
