<svg xmlns="http://www.w3.org/2000/svg" width="24" height="24" viewBox="0 0 24 24">
    <path id="bounds" opacity="0" d="M0 0h24v24H0z"/>
    <path d="M12 1.25C6.072 1.25 1.25 6.072 1.25 12S6.072 22.75 12 22.75 22.75 17.928 22.75 12 17.928 1.25 12 1.25zm4.747 14.497c0 .55-.45 1-1 1H8.253c-.55 0-1-.45-1-1V8.253c0-.55.45-1 1-1h7.494c.55 0 1 .45 1 1v7.494z"/>
    <path d="M14.407 10.43H9.593c-.276 0-.5-.225-.5-.5s.224-.5.5-.5h4.813c.276 0 .5.223.5.5s-.223.5-.5.5zM14.407 12.5H9.593c-.276 0-.5-.224-.5-.5s.224-.5.5-.5h4.813c.276 0 .5.224.5.5s-.223.5-.5.5zM11.52 14.57H9.592c-.276 0-.5-.223-.5-.5s.224-.5.5-.5h1.925c.276 0 .5.225.5.5s-.223.5-.5.5z"/>
</svg>
