<svg xmlns="http://www.w3.org/2000/svg" width="24" height="24" viewBox="0 0 24 24">
    <path id="bounds" opacity="0" d="M0 0h24v24H0z"/>
    <circle cx="11.971" cy="11.395" r="1.89"/>
    <path d="M12 1.25C6.072 1.25 1.25 6.072 1.25 12S6.072 22.75 12 22.75 22.75 17.928 22.75 12 17.928 1.25 12 1.25zm3.723 13.07c-.884 1.124-3.395 3.114-3.5 3.198-.075.06-.163.088-.252.088-.088 0-.177-.03-.25-.088-.106-.084-2.617-2.074-3.496-3.192-.62-.825-.946-1.8-.946-2.826 0-2.587 2.105-4.693 4.693-4.693 2.59 0 4.694 2.105 4.694 4.693 0 1.026-.325 2-.94 2.82z"/>
</svg>
