<svg xmlns="http://www.w3.org/2000/svg" width="24" height="24" viewBox="0 0 24 24">
    <path id="bounds" opacity="0" d="M0 0h24v24H0z"/>
    <path d="M11.95 6.888c-1.11 0-2.015.858-2.11 1.945h4.223c-.096-1.087-1-1.945-2.112-1.945z"/>
    <path d="M11.95 1.25C6.024 1.25 1.2 6.072 1.2 12s4.823 10.75 10.75 10.75c5.93 0 10.75-4.822 10.75-10.75S17.88 1.25 11.95 1.25zm5.118 14.29c0 .55-.45 1-1 1H7.834c-.55 0-1-.45-1-1V9.834c0-.55.45-1 1-1H8.84c.098-1.638 1.45-2.945 3.11-2.945s3.015 1.307 3.112 2.945h1.006c.55 0 1 .45 1 1v5.708z"/>
    <path d="M13.187 12.176c0-.683-.553-1.236-1.236-1.236-.682 0-1.235.553-1.235 1.236 0 .504.304.934.736 1.126v.715c0 .276.225.5.5.5s.5-.224.5-.5v-.715c.433-.192.737-.622.737-1.126z"/>
</svg>
