<svg xmlns="http://www.w3.org/2000/svg" width="32" height="32" viewBox="0 0 32 32">
    <path id="bounds" opacity="0" d="M0 0h32v32H0z"/>
    <path d="M26.85 3.342H5.35c-1.24 0-2.25 1.01-2.25 2.25v21.5c0 1.24 1.01 2.25 2.25 2.25h21.5c1.24 0 2.25-1.01 2.25-2.25v-21.5c0-1.24-1.01-2.25-2.25-2.25zm-21.5 1.5h21.5c.414 0 .75.337.75.75V19.48l-5.525-5.525c-.14-.14-.332-.22-.53-.22h-.002c-.2 0-.392.08-.532.224l-5.887 5.98-2.576-2.566c-.14-.14-.33-.22-.53-.22-.197-.032-.394.082-.535.227l-6.88 7.03V5.593c0-.413.337-.75.75-.75H5.35zm-.75 22.25v-.536l7.423-7.585 8.91 8.873H5.35c-.413 0-.75-.337-.75-.75zm22.25.75h-3.792l-6.874-6.845 5.364-5.448L27.6 21.6v5.492c0 .413-.336.75-.75.75z"/>
    <circle cx="11.952" cy="11.454" r="2.042"/>
</svg>
