<svg xmlns="http://www.w3.org/2000/svg" width="24" height="24" viewBox="0 0 24 24">
    <path id="bounds" opacity="0" d="M0 0h24v24H0z"/>
    <path d="M19.75 7.25h-4.255c-.414 0-.75.336-.75.75s.336.75.75.75h4.255c.413 0 .75.337.75.75v10.25c0 .413-.337.75-.75.75H9.5c-.413 0-.75-.337-.75-.75v-4.255c0-.414-.336-.75-.75-.75s-.75.336-.75.75v4.255C7.25 20.99 8.26 22 9.5 22h10.25c1.24 0 2.25-1.01 2.25-2.25V9.5c0-1.24-1.01-2.25-2.25-2.25z"/>
    <path d="M12.5 11.75V5.11c0-.414-.336-.75-.75-.75s-.75.336-.75.75v4.815L3.32 2.247c-.296-.297-.776-.297-1.073 0s-.297.777 0 1.074L9.927 11H5.12c-.414 0-.75.336-.75.75s.336.75.75.75h6.63c.414 0 .75-.336.75-.75z"/>
</svg>
