<svg xmlns="http://www.w3.org/2000/svg" width="24" height="24" viewBox="0 0 24 24">
    <path id="bounds" opacity="0" d="M0 0h24v24H0z"/>
    <path d="M12 22C6.486 22 2 17.514 2 12S6.486 2 12 2c.19 0 .375.013.562.025l.11.008c.323.02.597.25.677.564.078.315-.055.646-.33.818-1.616 1.016-2.582 2.754-2.582 4.652 0 3.03 2.465 5.494 5.494 5.494 1.898 0 3.637-.965 4.652-2.58.172-.276.5-.406.818-.33.315.08.543.354.564.678l.008.11c.013.187.026.373.026.562 0 5.514-4.486 10-10 10zM10.53 3.627C6.54 4.325 3.5 7.814 3.5 12c0 4.687 3.813 8.5 8.5 8.5 4.186 0 7.675-3.04 8.373-7.03-1.232 1.02-2.79 1.593-4.44 1.593-3.857 0-6.995-3.138-6.995-6.994 0-1.654.573-3.21 1.592-4.443z"/>
</svg>
