<svg xmlns="http://www.w3.org/2000/svg" width="24" height="24" viewBox="0 0 24 24">
    <path id="bounds" opacity="0" d="M0 0h24v24H0z"/>
    <path d="M11.855 13.857h-2.45c-.285 0-.516.23-.516.516s.23.516.515.516h2.45c.285 0 .516-.232.516-.517s-.23-.516-.515-.516zM13.532 9.11H9.405c-.285 0-.516.232-.516.517 0 .285.23.516.515.516h4.127c.285 0 .516-.23.516-.516 0-.285-.23-.516-.516-.516zM13.532 11.484H9.405c-.285 0-.516.23-.516.516 0 .285.23.516.515.516h4.127c.285 0 .516-.23.516-.516 0-.285-.23-.516-.516-.516zM15.853 15.74c0 .285.23.516.516.516.284 0 .515-.23.515-.516v-3.224h-1.032v3.224z"/>
    <path d="M12 1.25C6.072 1.25 1.25 6.072 1.25 12S6.072 22.75 12 22.75 22.75 17.928 22.75 12 17.928 1.25 12 1.25zm5.917 14.49c0 .855-.693 1.548-1.548 1.548H8.082c-.552 0-1-.448-1-1V7.712c0-.552.448-1 1-1h6.77c.552 0 1 .448 1 1v3.772H17.4c.286 0 .517.23.517.516v3.74z"/>
    <path d="M13.532 11.484H9.405c-.285 0-.516.23-.516.516s.23.516.515.516h4.127c.285 0 .516-.23.516-.516s-.23-.516-.516-.516zM11.855 13.857h-2.45c-.285 0-.516.23-.516.516s.23.516.515.516h2.45c.285 0 .516-.232.516-.517s-.23-.516-.515-.516zM13.532 9.11H9.405c-.285 0-.516.232-.516.517s.23.516.515.516h4.127c.285 0 .516-.23.516-.516s-.23-.516-.516-.516zM15.853 15.74c0 .285.23.516.516.516s.515-.23.515-.516v-3.224h-1.032v3.224z"/>
</svg>
