<svg xmlns="http://www.w3.org/2000/svg" width="24" height="24" viewBox="0 0 24 24">
    <path id="bounds" opacity="0" d="M0 0h24v24H0z"/>
    <path d="M12.084 16.7c.89 0 1.612-.71 1.637-1.595h-3.273c.025.884.748 1.596 1.637 1.596z"/>
    <path d="M12.085 1.25C6.157 1.25 1.335 6.072 1.335 12s4.822 10.75 10.75 10.75 10.75-4.822 10.75-10.75-4.823-10.75-10.75-10.75zm5.468 13.593c-.053.156-.2.263-.364.263h-2.47c-.024 1.435-1.195 2.596-2.636 2.596s-2.612-1.16-2.637-2.596H6.98c-.167 0-.315-.106-.367-.265-.05-.157.003-.33.137-.43.046-.035 1.192-.943 1.172-3.352-.012-1.39.445-2.623 1.286-3.475.754-.763 1.773-1.185 2.872-1.19h.006c1.098.006 2.118.428 2.872 1.19.842.852 1.3 2.086 1.287 3.476-.02 2.407 1.125 3.315 1.174 3.353.133.1.186.274.133.43z"/>
</svg>
