<svg xmlns="http://www.w3.org/2000/svg" width="24" height="24" viewBox="0 0 24 24">
    <path id="bounds" opacity="0" d="M0 0h24v24H0z"/>
    <path d="M15.11 22H8.89c-1.24 0-2.25-1.01-2.25-2.25V4.25C6.64 3.01 7.65 2 8.89 2h6.222c1.24 0 2.25 1.01 2.25 2.25v15.5c0 1.24-1.01 2.25-2.25 2.25zM8.89 3.5c-.414 0-.75.337-.75.75v15.5c0 .413.336.75.75.75h6.222c.413 0 .75-.337.75-.75V4.25c0-.413-.337-.75-.75-.75H8.89zM20.5 18.75h-1c-.414 0-.75-.336-.75-.75s.336-.75.75-.75h1c.413 0 .75-.337.75-.75v-9c0-.413-.337-.75-.75-.75h-1c-.414 0-.75-.336-.75-.75s.336-.75.75-.75h1c1.24 0 2.25 1.01 2.25 2.25v9c0 1.24-1.01 2.25-2.25 2.25zM4.5 18.75h-1c-1.24 0-2.25-1.01-2.25-2.25v-9c0-1.24 1.01-2.25 2.25-2.25h1c.414 0 .75.336.75.75s-.336.75-.75.75h-1c-.413 0-.75.337-.75.75v9c0 .413.337.75.75.75h1c.414 0 .75.336.75.75s-.336.75-.75.75z"/>
</svg>
