<svg xmlns="http://www.w3.org/2000/svg" width="24" height="24" viewBox="0 0 24 24">
    <path id="bounds" opacity="0" d="M0 0h24v24H0z"/>
    <circle cx="8.868" cy="8.309" r="1.542"/>
    <path d="M19.75 2H4.25C3.01 2 2 3.01 2 4.25v15.5C2 20.99 3.01 22 4.25 22h15.5c1.24 0 2.25-1.01 2.25-2.25V4.25C22 3.01 20.99 2 19.75 2zM4.25 3.5h15.5c.413 0 .75.337.75.75v9.676l-3.858-3.858c-.14-.14-.33-.22-.53-.22-.2.033-.394.08-.534.224l-3.275 3.326 7.134 7.103H17.31l-7.864-7.85c-.14-.14-.33-.22-.53-.22-.208-.03-.395.08-.535.227L3.5 17.642V4.25c0-.413.337-.75.75-.75z"/>
</svg>
