<svg xmlns="http://www.w3.org/2000/svg" width="24" height="24" viewBox="0 0 24 24">
    <path id="bounds" opacity="0" d="M0 0h24v24H0z"/>
    <path d="M14.25 7.214h-4.5c-.138 0-.25.112-.25.25v7.123l1.74-1.763c.068-.07.164-.11.264-.11.113.003.195.038.267.108l2.73 2.715V7.464c0-.138-.112-.25-.25-.25zm-2.745 3.58c-.447 0-.81-.362-.81-.81s.362-.81.81-.81.81.362.81.81-.363.81-.81.81z"/>
    <path d="M12 1.25C6.072 1.25 1.25 6.072 1.25 12S6.072 22.75 12 22.75 22.75 17.928 22.75 12 17.928 1.25 12 1.25zm3.5 15.286c0 .69-.56 1.25-1.25 1.25h-4.5c-.69 0-1.25-.56-1.25-1.25V7.464c0-.69.56-1.25 1.25-1.25h4.5c.69 0 1.25.56 1.25 1.25v9.072z"/>
</svg>
