<svg xmlns="http://www.w3.org/2000/svg" width="24" height="24" viewBox="0 0 24 24">
    <path id="bounds" opacity="0" d="M0 0h24v24H0z"/>
    <path d="M12 1.25C6.072 1.25 1.25 6.072 1.25 12S6.072 22.75 12 22.75 22.75 17.928 22.75 12 17.928 1.25 12 1.25zm-1.017 7.034h3.313c.74 0 1.34.602 1.34 1.34v3.313c0 .345-.28.625-.624.625s-.625-.28-.625-.625V9.625c0-.05-.04-.09-.09-.09h-3.314c-.345 0-.625-.28-.625-.626s.28-.626.625-.626zM7.23 9.534h-.736c-.345 0-.625-.28-.625-.625s.28-.626.624-.626h.737c.346 0 .626.28.626.625s-.28.624-.625.624zm8.408 7.894c0 .345-.28.625-.625.625s-.625-.28-.625-.625v-.738c0-.345.28-.625.625-.625s.625.28.625.625v.738zm1.342-1.99H9.823c-.74 0-1.34-.602-1.34-1.34V6.94c0-.345.28-.625.624-.625s.625.28.625.625v7.157c0 .05.04.09.09.09h7.158c.345 0 .625.28.625.626s-.28.625-.625.625z"/>
</svg>
