<svg xmlns="http://www.w3.org/2000/svg" width="24" height="24" viewBox="0 0 24 24">
    <path id="bounds" opacity="0" d="M0 0h24v24H0z"/>
    <path d="M21.572 11.353L5.622 2.1c-.23-.133-.516-.134-.747 0-.232.133-.375.38-.375.648v4.53c0 .164.054.323.154.454l3.254 4.243-3.23 3.788c-.115.135-.178.307-.178.485v5.004c0 .267.143.514.375.648.115.067.244.1.373.1.13 0 .26-.034.375-.1l15.95-9.253c.23-.134.37-.38.37-.647s-.14-.513-.37-.647zM5.995 7.023V4.046l12.423 7.207h-9.18l-3.243-4.23zm0 9.5l3.22-3.775h9.202L5.995 19.954v-3.43z"/>
</svg>
