<svg xmlns="http://www.w3.org/2000/svg" width="24" height="24" viewBox="0 0 24 24">
    <path id="bounds" opacity="0" d="M0 0h24v24H0z"/>
    <path d="M12 1.25C6.072 1.25 1.25 6.072 1.25 12S6.072 22.75 12 22.75 22.75 17.928 22.75 12 17.928 1.25 12 1.25zm3.728 12.955c-.1.09-.208.178-.318.258l-3.932 2.95c-.073.054-.16.082-.25.082-.062 0-.126-.014-.184-.044-.14-.07-.23-.213-.23-.37v-1.87c-2.073-.108-3.727-1.83-3.727-3.93 0-2.17 1.765-3.935 3.935-3.935h2.07c2.17 0 3.936 1.765 3.936 3.935 0 1.114-.473 2.18-1.3 2.925z"/>
</svg>
