<svg xmlns="http://www.w3.org/2000/svg" width="24" height="24" viewBox="0 0 24 24">
    <path id="bounds" opacity="0" d="M0 0h24v24H0z"/>
    <path d="M12 1.65C6.293 1.65 1.65 6.293 1.65 12S6.293 22.35 12 22.35 22.35 17.707 22.35 12 17.707 1.65 12 1.65zm.264 14.53H9.72c-1.103 0-2.002-.898-2.002-2.004V9.768l-.776.776c-.228.228-.597.226-.826 0-.227-.228-.227-.598 0-.826l1.75-1.75c.23-.227.598-.227.826 0l1.75 1.75c.228.228.228.597 0 .826-.114.113-.263.17-.413.17s-.3-.056-.412-.17l-.778-.776v4.407c0 .486.395.88.88.88h2.544c.31 0 .56.252.56.562s-.25.563-.56.563zm5.62-1.9l-1.75 1.75c-.114.115-.263.17-.413.17-.15 0-.297-.056-.41-.17l-1.75-1.75c-.23-.227-.23-.597 0-.825.23-.228.596-.228.824 0l.777.777V9.825c0-.486-.394-.88-.88-.88h-2.543c-.31 0-.56-.252-.56-.562 0-.31.25-.562.56-.562h2.543c1.104 0 2.003.898 2.003 2.004v4.407l.777-.776c.228-.228.597-.228.826 0s.224.598-.002.827z"/>
</svg>
