<svg xmlns="http://www.w3.org/2000/svg" width="24" height="24" viewBox="0 0 24 24">
    <path id="bounds" opacity="0" d="M0 0h24v24H0z"/>
    <path d="M12 1.65C6.293 1.65 1.65 6.293 1.65 12S6.293 22.35 12 22.35 22.35 17.707 22.35 12 17.707 1.65 12 1.65z"/>
    <path fill="#FFFFFF" d="M12.825 15.617c0 .31-.25.563-.56.563H9.72c-1.103 0-2.002-.898-2.002-2.004V9.768l-.776.776c-.228.228-.597.226-.825 0-.227-.228-.227-.598 0-.826l1.75-1.75c.23-.227.598-.227.825 0l1.75 1.75c.228.228.228.597 0 .826-.114.113-.263.17-.413.17s-.3-.057-.412-.17l-.778-.776v4.408c0 .486.395.88.88.88h2.544c.31 0 .56.25.56.56zm5.06-2.163c-.23-.228-.598-.228-.826 0l-.778.777V9.825c0-1.105-.9-2.003-2.003-2.003h-2.544c-.31 0-.56.253-.56.563 0 .31.25.56.56.56h2.543c.485 0 .88.396.88.882v4.408l-.777-.777c-.228-.228-.595-.228-.824 0-.23.228-.23.598 0 .825l1.75 1.75c.112.115.26.17.41.17.15 0 .3-.056.413-.17l1.75-1.75c.227-.228.23-.598.002-.826z"/>
</svg>
