<svg xmlns="http://www.w3.org/2000/svg" width="24" height="24" viewBox="0 0 24 24">
    <path id="bounds" opacity="0" d="M0 0h24v24H0z"/>
    <path d="M23.578 11.948l-2.667-2.68c-.15-.152-.38-.198-.58-.116-.2.082-.33.277-.33.493v5.333c0 .215.13.41.33.493.065.03.135.042.204.042.138 0 .274-.054.376-.155l2.667-2.654c.1-.1.157-.235.157-.377s-.056-.278-.156-.378zM3.67 9.15c-.2-.08-.43-.036-.582.118L.42 11.948c-.1.1-.154.235-.154.377 0 .142.057.277.157.377l2.667 2.654c.102.1.238.155.376.155.07 0 .138-.012.205-.04.2-.082.33-.277.33-.492V9.645c0-.216-.13-.41-.33-.494zM17.327 12.467c-.035-.557-.494-1-1.06-1-.32 0-.605.144-.8.368v-.368c0-.59-.478-1.067-1.067-1.067-.32 0-.605.144-.8.368V10.4c0-.59-.478-1.067-1.067-1.067-.59 0-1.067.478-1.067 1.067V5.867c0-.59-.478-1.067-1.067-1.067s-1.067.478-1.067 1.067v6.6h-.02c-.12-.412-.816-2.6-1.964-2.6-.968 0-1.068 1-.734 1.733.558 1.227.584 1.69.584 2.8 0 2.762 2.305 5.067 5.067 5.067s5.067-2.305 5.067-5.067v-1.933h-.007z"/>
</svg>
