<svg xmlns="http://www.w3.org/2000/svg" width="24" height="24" viewBox="0 0 24 24">
    <path id="bounds" opacity="0" d="M0 0h24v24H0z"/>
    <path d="M16.52 7.624c-.288-.3-.762-.31-1.06-.023-.3.287-.31.762-.024 1.062.782.818 1.506 1.79 1.506 3.34s-.724 2.52-1.506 3.338c-.286.3-.276.774.024 1.06.145.14.332.21.518.21.197 0 .395-.078.542-.232.895-.937 1.922-2.28 1.922-4.376s-1.027-3.44-1.922-4.378z"/>
    <path d="M18.97 5.053c-.287-.3-.76-.31-1.06-.023s-.31.76-.023 1.06c1.54 1.61 2.356 3.654 2.363 5.91-.007 2.258-.825 4.303-2.363 5.91-.286.3-.276.775.023 1.062.146.14.332.208.52.208.196 0 .394-.077.54-.23 1.81-1.894 2.772-4.295 2.78-6.95-.01-2.653-.97-5.055-2.78-6.947zM13.31 2.067c-.268-.12-.582-.075-.804.118L6.718 7.25H3.5c-1.24 0-2.25 1.01-2.25 2.25v5c0 1.24 1.01 2.25 2.25 2.25h3.218l5.788 5.065c.222.193.536.24.804.118s.44-.39.44-.683V2.75c0-.294-.172-.562-.44-.683zM6.25 15.25H3.5c-.414 0-.75-.336-.75-.75v-5c0-.413.336-.75.75-.75h2.75v6.5zm6 4.348l-4.5-3.938V8.34l4.5-3.938v15.196z"/>
</svg>
