<svg xmlns="http://www.w3.org/2000/svg" width="24" height="24" viewBox="0 0 24 24">
    <path id="bounds" opacity="0" d="M0 0h24v24H0z"/>
    <path d="M20.06 12l2.47-2.47c.294-.293.294-.768 0-1.06s-.767-.294-1.06 0L19 10.94l-2.47-2.47c-.293-.294-.768-.294-1.06 0s-.294.767 0 1.06L17.94 12l-2.47 2.47c-.294.293-.294.768 0 1.06.145.147.337.22.53.22s.383-.072.53-.22L19 13.06l2.47 2.47c.145.147.337.22.53.22s.383-.072.53-.22c.292-.292.292-.767 0-1.06L20.06 12zM13.31 2.067c-.268-.12-.582-.075-.804.118L6.718 7.25H3.5c-1.24 0-2.25 1.01-2.25 2.25v5c0 1.24 1.01 2.25 2.25 2.25h3.218l5.788 5.065c.222.193.536.24.804.118s.44-.39.44-.683V2.75c0-.294-.172-.562-.44-.683zM6.25 15.25H3.5c-.414 0-.75-.336-.75-.75v-5c0-.413.336-.75.75-.75h2.75v6.5zm6 4.348l-4.5-3.938V8.34l4.5-3.938v15.196z"/>
</svg>
