<svg xmlns="http://www.w3.org/2000/svg" width="24" height="24" viewBox="0 0 24 24">
    <path id="bounds" opacity="0" d="M0 0h24v24H0z"/>
    <path d="M22.03 2.324c-.293-.293-.768-.293-1.06 0l-18.5 18.5c-.294.293-.294.768 0 1.06.145.147.337.22.53.22s.383-.072.53-.22l18.5-18.5c.293-.292.293-.767 0-1.06zM4.216 16.315c.136.104.295.153.453.153.226 0 .45-.102.597-.296.25-.33.188-.8-.143-1.05-.158-.122-.25-.304-.25-.502V9.5c0-.413.338-.75.75-.75h2.75v2.667c0 .414.337.75.75.75s.75-.336.75-.75V8.34l4.5-3.937V5.5c0 .414.337.75.75.75s.75-.336.75-.75V2.75c0-.294-.17-.562-.44-.683-.263-.12-.58-.076-.803.118L8.844 7.25H5.625c-1.24 0-2.25 1.01-2.25 2.25v5.12c0 .67.307 1.29.84 1.695zM15.125 12.417c-.414 0-.75.336-.75.75v6.427l-3.1-2.72c-.31-.273-.784-.243-1.058.068s-.242.785.068 1.06l4.345 3.81c.222.192.536.238.804.117s.44-.39.44-.684v-8.08c0-.413-.335-.75-.75-.75z"/>
</svg>
