<svg xmlns="http://www.w3.org/2000/svg" width="24" height="24" viewBox="0 0 24 24">
    <path id="bounds" opacity="0" d="M0 0h24v24H0z"/>
    <path fill="#DD2E44" d="M8.446 6.52c-.06.06-.105.13-.143.21l-.005-.005-5.97 13.45.005.007c-.11.215.074.65.454 1.03s.816.566 1.03.455l.006.005 13.45-5.97-.003-.005c.08-.037.15-.083.21-.143.832-.83-.517-3.528-3.01-6.023-2.496-2.494-5.193-3.842-6.024-3.01z"/>
    <ellipse transform="rotate(-45 13.088 10.91)" fill="#A0041E" cx="13.088" cy="10.91" rx="2.009" ry="6.367"/>
    <path fill="#FFAC33" d="M14.222 10.177c.924.898 1.94.82 2.465.28.526-.54.576-1.558-.347-2.456-.36-.35-.378-.622-.324-.678.054-.054.327-.044.687.307.923.897 1.94.82 2.465.28s.576-1.56-.35-2.457c-.248-.243-.646-.237-.888.01-.24.25-.237.648.013.89.36.35.377.623.324.68-.053.053-.327.044-.686-.306-.924-.898-1.94-.82-2.465-.28-.526.54-.576 1.557.35 2.456.36.35.376.623.322.678-.053.057-.326.047-.687-.304-.924-.9-1.94-.82-2.465-.28-.526.54-.575 1.56.348 2.456.25.242.647.237.89-.012.242-.25.236-.647-.013-.89-.36-.35-.377-.623-.324-.678.052-.055.326-.045.686.305z"/>
    <path fill="#50A5E6" d="M21.13 12.57c-.447-.37-1.175-.56-2.162-.56-1.656 0-3.59.517-4.143.676-.298.084-.51.36-.515.67-.002.07.008.14.027.207.103.367.51.594.877.49.997-.285 2.598-.616 3.827-.616.79 0 1.08.142 1.185.228.03.024.06.05.05.174-.005.05-.193.152-.607.152l-.144-.005c-.37 0-.674.28-.707.65-.032.396.25.732.643.767.073.007.153.01.238.01.9 0 1.896-.38 1.992-1.448.052-.568-.142-1.05-.56-1.397zM10.033 2.308c-1.285.116-1.503 1.51-1.44 2.23.034.367.338.645.767.645h.006c.39-.034.677-.38.643-.766-.02-.316.06-.685.194-.695.088 0 .108.024.13.053.463.56.174 3.044-.387 5.01-.053.183-.03.374.06.54.094.167.246.287.427.338.063.02.128.027.192.027h.014c.315-.005.586-.21.673-.515.32-1.125 1.276-4.904.116-6.306-.342-.414-.826-.606-1.397-.562zm.594 7.13v.002z"/>
</svg>
