<svg xmlns="http://www.w3.org/2000/svg" width="24" height="24" viewBox="0 0 24 24">
    <path id="bounds" opacity="0" d="M0 0h24v24H0z"/>
    <path d="M12 1.25C6.072 1.25 1.25 6.072 1.25 12S6.072 22.75 12 22.75 22.75 17.928 22.75 12 17.928 1.25 12 1.25zm4.62 8.83c.004.095.007.192.007.29 0 2.956-2.25 6.366-6.368 6.366-1.265 0-2.44-.37-3.43-1.005.174.022.352.032.533.032 1.048 0 2.013-.358 2.78-.958-.98-.018-1.806-.665-2.09-1.554.135.026.276.04.42.04.204 0 .402-.028.59-.08-1.024-.204-1.795-1.11-1.795-2.194v-.028c.302.168.647.268 1.014.28-.6-.4-.995-1.087-.995-1.863 0-.41.11-.794.303-1.125 1.104 1.354 2.753 2.245 4.613 2.338-.038-.164-.058-.334-.058-.51 0-1.236 1.002-2.238 2.238-2.238.644 0 1.225.272 1.633.706.51-.1.99-.287 1.42-.543-.166.522-.52.96-.983 1.238.453-.053.884-.174 1.285-.35-.3.45-.68.843-1.118 1.16z"/>
</svg>
