<?xml version="1.0" encoding="utf-8"?>
<svg version="1.1" xmlns="http://www.w3.org/2000/svg" xmlns:xlink="http://www.w3.org/1999/xlink" x="0px" y="0px" width="62" height="72" viewBox="0 0 62 72" enable-background="new 0 0 62 72" xml:space="preserve">
<g id="bounds"><rect opacity="0" width="62" height="72"/></g>
<g id="icon">
<path d="M51,14H11c-4.419,0-8,3.581-8,8v28c0,4.418,3.581,8,8,8h40c4.418,0,8-3.582,8-8V22C59,17.581,55.418,14,51,14z M12.107,36.997C12.071,36.999,12.035,37,11.999,37c-1.056,0-1.938-0.826-1.995-1.894c-0.339-6.354,3.132-12.276,8.844-15.088c0.991-0.487,2.189-0.079,2.677,0.912s0.08,2.189-0.912,2.678c-4.272,2.103-6.869,6.532-6.615,11.285C14.057,35.996,13.21,36.938,12.107,36.997z M19.107,37.997C19.071,37.999,19.035,38,18.999,38c-1.056,0-1.938-0.827-1.995-1.894c-0.234-4.39,2.164-8.478,6.108-10.413c0.992-0.488,2.189-0.079,2.677,0.914c0.487,0.991,0.078,2.189-0.914,2.676c-2.503,1.229-4.025,3.824-3.876,6.61C21.056,36.997,20.21,37.938,19.107,37.997z M40.213,47.107c-0.209,0.774-0.939,1.282-1.733,1.387c-0.093,0.014-0.188,0.021-0.285,0.021c-0.007,0-0.013,0-0.02,0h-3.776C33.931,49.953,32.594,51,31,51c-1.596,0-2.932-1.047-3.398-2.485h-3.779c-0.911,0-1.818-0.544-2.047-1.426c-0.223-0.859,0.042-1.691,0.792-2.144c0.201-0.248,1.048-1.487,1.048-4.711c0-5.406,2.46-8.041,5.273-8.892c0.131-1.054,1.02-1.873,2.109-1.873c1.093,0,1.983,0.824,2.11,1.882c2.827,0.858,5.272,3.485,5.286,8.857c0.008,3.192,0.827,4.462,1.044,4.742c0.014,0.011,0.027,0.021,0.04,0.032C40.196,45.448,40.439,46.268,40.213,47.107z M44.998,36.106C44.941,37.173,44.058,38,43.002,38c-0.036,0-0.072-0.001-0.108-0.003c-1.103-0.059-1.949-1-1.891-2.104c0.148-2.786-1.374-5.381-3.876-6.61c-0.992-0.486-1.401-1.685-0.914-2.676c0.487-0.991,1.685-1.401,2.677-0.914C42.834,27.629,45.231,31.717,44.998,36.106z M51.998,35.106C51.94,36.173,51.058,37,50.002,37c-0.036,0-0.072-0.001-0.108-0.003c-1.103-0.059-1.95-1.001-1.891-2.104c0.254-4.753-2.343-9.183-6.615-11.285c-0.991-0.488-1.399-1.687-0.912-2.678c0.487-0.991,1.686-1.4,2.677-0.912C48.866,22.83,52.337,28.752,51.998,35.106z"/>
</g>
</svg>
