<?xml version="1.0" encoding="utf-8"?>
<svg version="1.1" xmlns="http://www.w3.org/2000/svg" xmlns:xlink="http://www.w3.org/1999/xlink" x="0px" y="0px" width="60" height="72" viewBox="0 0 60 72" enable-background="new 0 0 60 72" xml:space="preserve">
<g id="bounds"><rect opacity="0" width="60" height="72"/></g>
<g id="icon">
<circle fill="#FFFFFF" cx="30" cy="36" r="25"/>
<path d="M30,9C15.112,9,3,21.112,3,36s12.112,27,27,27s27-12.112,27-27S44.888,9,30,9z M14.859,36.688c-0.239,0.266-0.566,0.422-0.996,0.444c-0.71,0-1.296-0.556-1.333-1.266c-0.304-5.68,2.799-10.974,7.905-13.486c0.186-0.092,0.387-0.138,0.588-0.138c0.145,0,0.291,0.024,0.433,0.072c0.338,0.115,0.611,0.355,0.769,0.676c0.325,0.661,0.052,1.464-0.61,1.79c-4.143,2.039-6.661,6.334-6.415,10.943C15.219,36.08,15.098,36.422,14.859,36.688z M20.275,36.756c-0.232,0.258-0.551,0.411-0.969,0.431c-0.691,0-1.261-0.541-1.297-1.231c-0.202-3.773,1.859-7.287,5.25-8.952h0c0.181-0.089,0.376-0.134,0.572-0.134c0.141,0,0.282,0.023,0.419,0.07c0.33,0.112,0.596,0.347,0.749,0.659c0.153,0.312,0.176,0.665,0.063,0.994c-0.112,0.329-0.346,0.594-0.658,0.747c-2.453,1.204-3.944,3.747-3.799,6.478C20.625,36.164,20.508,36.497,20.275,36.756z M37.002,47.099c-0.006-0.001-0.011-0.001-0.017,0h-3.614c-0.389,1.504-1.745,2.62-3.37,2.62c-1.628,0-2.981-1.115-3.37-2.62h-3.616c-0.791,0-1.569-0.475-1.773-1.239c-0.2-0.746,0.033-1.48,0.684-1.88c0.187-0.218,1.089-1.442,1.089-4.74c0-5.093,2.282-7.599,4.91-8.435c0.019-1.131,0.94-2.044,2.076-2.044c1.139,0,2.062,0.917,2.077,2.052c2.639,0.842,4.91,3.34,4.922,8.402c0.008,3.212,0.86,4.506,1.022,4.721c0.44,0.317,0.726,0.834,0.726,1.417C38.748,46.317,37.966,47.099,37.002,47.099z M39.393,35.816c0.146-2.73-1.345-5.273-3.797-6.477c-0.312-0.153-0.547-0.418-0.659-0.748c-0.112-0.329-0.089-0.681,0.064-0.993c0.153-0.312,0.418-0.545,0.747-0.658c0.328-0.113,0.682-0.091,0.993,0.063c3.391,1.664,5.452,5.177,5.251,8.951c-0.037,0.689-0.605,1.23-1.366,1.23c-0.001,0-0.002,0-0.003,0C39.906,37.147,39.354,36.533,39.393,35.816 M47.471,35.866c-0.038,0.708-0.621,1.264-1.401,1.264c-0.002,0-0.004,0-0.005,0c-0.357-0.02-0.685-0.176-0.924-0.442c-0.238-0.265-0.359-0.608-0.341-0.965c0.246-4.609-2.271-8.905-6.414-10.943c-0.661-0.326-0.936-1.129-0.609-1.791c0.157-0.32,0.43-0.56,0.769-0.675c0.141-0.048,0.286-0.072,0.432-0.072c0.202,0,0.402,0.046,0.589,0.138C44.671,24.892,47.774,30.186,47.471,35.866z"/>
</g>
</svg>
