<?xml version="1.0" encoding="utf-8"?>
<svg version="1.1" xmlns="http://www.w3.org/2000/svg" xmlns:xlink="http://www.w3.org/1999/xlink" x="0px" y="0px" width="38" height="72" viewBox="0 0 38 72" enable-background="new 0 0 38 72" xml:space="preserve">
<g id="bounds"><rect opacity="0" width="38" height="72"/></g>
<g id="icon">
<path d="M22,20v24.757l7.879-7.878c1.171-1.172,3.071-1.172,4.242,0c1.172,1.171,1.172,3.071,0,4.242l-13,13c-1.171,1.172-3.071,1.172-4.242,0l-13-13C3.293,40.536,3,39.768,3,39s0.293-1.536,0.879-2.121c1.171-1.172,3.071-1.172,4.242,0L16,44.757V20c0-1.657,1.343-3,3-3S22,18.343,22,20z"/>
</g>
</svg>
