<?xml version="1.0" encoding="utf-8"?>
<svg version="1.1" xmlns="http://www.w3.org/2000/svg" xmlns:xlink="http://www.w3.org/1999/xlink" x="0px" y="0px" width="60" height="72" viewBox="0 0 60 72" enable-background="new 0 0 60 72" xml:space="preserve">
<g id="bounds"><rect opacity="0" width="60" height="72"/></g>
<g id="icon">
<path d="M30,9.002c-14.888,0-27,12.111-27,26.999S15.112,63,30,63c14.888,0,27-12.111,27-26.999S44.888,9.002,30,9.002zM41.121,36.121C40.536,36.707,39.768,37,39,37s-1.536-0.293-2.121-0.879L33,32.242V48c0,1.657-1.343,3-3,3s-3-1.343-3-3V32.242l-3.879,3.879C22.536,36.707,21.768,37,21,37s-1.536-0.293-2.121-0.879c-1.172-1.171-1.172-3.071,0-4.242l9-9c1.171-1.172,3.071-1.172,4.242,0l9,9C42.293,33.05,42.293,34.95,41.121,36.121z"/>
</g>
</svg>
