<?xml version="1.0" encoding="utf-8"?>
<svg version="1.1" xmlns="http://www.w3.org/2000/svg" xmlns:xlink="http://www.w3.org/1999/xlink" x="0px" y="0px" width="46" height="72" viewBox="0 0 46 72" enable-background="new 0 0 46 72" xml:space="preserve">
<g id="bounds"><rect opacity="0" width="46" height="72"/></g>
<g id="icon">
<path d="M6,39h24.757l-7.878,7.879c-1.172,1.171-1.172,3.071,0,4.242c1.171,1.172,3.071,1.172,4.242,0l13-13c1.172-1.171,1.172-3.071,0-4.242l-13-13C26.536,20.293,25.768,20,25,20s-1.536,0.293-2.121,0.879c-1.172,1.171-1.172,3.071,0,4.242L30.757,33H6c-1.657,0-3,1.343-3,3S4.343,39,6,39z"/>
</g>
</svg>
