<?xml version="1.0" encoding="utf-8"?>
<svg version="1.1" xmlns="http://www.w3.org/2000/svg" xmlns:xlink="http://www.w3.org/1999/xlink" x="0px" y="0px" width="57" height="72" viewBox="0 0 57 72" enable-background="new 0 0 57 72" xml:space="preserve">
<g id="bounds"><rect opacity="0" width="57" height="72"/></g>
<g id="icon">
<path d="M41.211,29.55c0.22-1.625-0.299-2.63-0.772-3.184c-0.599-0.701-1.407-1.027-1.942-1.04c-0.037-0.004-0.237-0.046-0.542-0.046c-0.719,0-2.044,0.229-2.827,1.766l-0.133,0.259l-0.185-0.224c-1.794-2.181-4.126-3.154-7.561-3.154c-6.945,0-12.183,6.004-12.183,13.964c0,6.21,4.422,11.261,9.855,11.261c2.943,0,5.654-1.03,8.055-3.061l0.162-0.137l0.118,0.175c1.516,2.239,4.826,3.523,9.079,3.523C42.812,49.651,54,49.507,54,37c0-14.061-11.439-25.5-25.5-25.5S3,22.939,3,37.001C3,51.062,14.439,62.5,28.5,62.5c5.332,0,9.597-1.295,13.833-4.2c0.572-0.393,0.958-0.986,1.086-1.673c0.127-0.685-0.018-1.378-0.411-1.951c-0.486-0.709-1.29-1.133-2.152-1.133c-0.527,0-1.036,0.158-1.471,0.456c-3.314,2.276-6.671,3.289-10.885,3.289c-11.186,0-20.287-9.1-20.287-20.287s9.1-20.288,20.287-20.288s20.287,9.101,20.287,20.288c0,4.179-1.554,8.645-5.916,8.645c-0.743,0-2.119-0.157-2.993-1.211c-0.723-0.872-0.93-2.16-0.616-3.83L41.211,29.55z M26.91,43.115c-3.091,0-5.011-2.264-5.011-5.46c0-4.236,3.102-7.874,6.68-7.874c2.964,0,4.762,2.207,4.762,5.204C33.341,39.313,30.455,43.115,26.91,43.115z"/>
</g>
</svg>
