<?xml version="1.0" encoding="utf-8"?>
<svg version="1.1" xmlns="http://www.w3.org/2000/svg" xmlns:xlink="http://www.w3.org/1999/xlink" x="0px" y="0px" width="54" height="72" viewBox="0 0 54 72" enable-background="new 0 0 54 72" xml:space="preserve">
<g id="bounds"><rect opacity="0" width="54" height="72"/></g>
<g id="icon">
<path d="M47.25,16.5l-30-7.5v26.067c-1.159-0.365-2.425-0.568-3.749-0.567c-5.385,0.001-9.75,3.358-9.75,7.5s4.365,7.5,9.75,7.5s9.646-3.359,9.75-7.5c0-0.007-0.001-0.014-0.001-0.021c0-5.198,0-20.979,0-20.979l18,4.5l0.001,23.077C40.096,48.206,38.83,48,37.5,48c-5.385,0-9.75,3.358-9.75,7.5S32.116,63,37.5,63s9.75-3.358,9.75-7.5c0-0.004-0.001-0.007-0.001-0.011L47.25,16.5z"/>
</g>
</svg>
