<?xml version="1.0" encoding="utf-8"?>
<svg version="1.1" xmlns="http://www.w3.org/2000/svg" xmlns:xlink="http://www.w3.org/1999/xlink" x="0px" y="0px" width="50" height="72" viewBox="0 0 50 72" enable-background="new 0 0 50 72" xml:space="preserve">
<g id="bounds"><rect opacity="0" width="50" height="72"/></g>
<g id="icon">
<path d="M24.941,9c0.01,0,0.02,0.001,0.03,0.001C24.98,9.001,24.99,9,25,9H24.941z"/>
<path d="M30,59h-3.476C32.015,52.892,47,40.548,47,29c0-11.99-9.893-19.986-22.03-19.999C12.834,9.014,3,17.01,3,29c0,11.548,14.879,23.892,20.359,30H20c-1.104,0-2,0.896-2,2s0.896,2,2,2h10c1.104,0,2-0.896,2-2S31.104,59,30,59z M17.381,23.974c-1.099,1.042-2.413,2.767-2.44,5.062C14.921,30.68,13.581,32,11.942,32c-0.013,0-0.024,0-0.036,0c-1.657-0.02-2.984-1.379-2.965-3.035c0.041-3.427,1.571-6.744,4.311-9.344c3.178-3.016,7.716-4.8,11.811-4.618c1.656,0.066,2.943,1.463,2.876,3.118c-0.066,1.655-1.478,2.955-3.118,2.876C22.3,20.895,19.394,22.063,17.381,23.974z"/>
</g>
</svg>
