<?xml version="1.0" encoding="utf-8"?>
<svg version="1.1" xmlns="http://www.w3.org/2000/svg" xmlns:xlink="http://www.w3.org/1999/xlink" x="0px" y="0px" width="66" height="72" viewBox="0 0 66 72" enable-background="new 0 0 66 72" xml:space="preserve">
<g id="bounds"><rect opacity="0" width="66" height="72"/></g>
<g id="icon">
<path d="M50,24H19c-1.65,0-3-1.35-3-3v-3c0-1.65,1.35-3,3-3h31c1.65,0,3,1.35,3,3v3C53,22.65,51.65,24,50,24z"/>
<path d="M12,15v41c0,1.65-1.35,3-3,3H6c-1.65,0-3-1.35-3-3V15c0-1.65,1.35-3,3-3h3C10.65,12,12,13.35,12,15z"/>
<path d="M60,40H19c-1.65,0-3-1.35-3-3v-3c0-1.65,1.35-3,3-3h41c1.65,0,3,1.35,3,3v3C63,38.65,61.65,40,60,40z"/>
<path d="M44,56H19c-1.65,0-3-1.35-3-3v-3c0-1.65,1.35-3,3-3h25c1.65,0,3,1.35,3,3v3C47,54.65,45.65,56,44,56z"/>
</g>
</svg>
