<?xml version="1.0" encoding="utf-8"?>
<svg version="1.1" xmlns="http://www.w3.org/2000/svg" xmlns:xlink="http://www.w3.org/1999/xlink" x="0px" y="0px" width="60" height="72" viewBox="0 0 60 72" enable-background="new 0 0 60 72" xml:space="preserve">
<g id="bounds"><rect opacity="0" width="60" height="72"/></g>
<g id="icon">
<circle fill="#FFFFFF" cx="30" cy="36" r="25"/>
<path d="M30,9C15.112,9,3,21.112,3,36s12.112,27,27,27s27-12.112,27-27S44.888,9,30,9z M25.486,26.016c0-0.476,0.389-0.865,0.865-0.865h13.415c0.476,0,0.865,0.389,0.865,0.865v2.595c0,0.476-0.389,0.865-0.865,0.865H26.351c-0.476,0-0.865-0.389-0.865-0.865V26.016z M22.319,47.679c0,0.476-0.389,0.865-0.865,0.865h-2.595c-0.476,0-0.865-0.389-0.865-0.865V24.321c0-0.476,0.389-0.865,0.865-0.865h2.595c0.476,0,0.865,0.389,0.865,0.865V47.679z M37.17,45.949c0,0.476-0.389,0.865-0.865,0.865h-9.955c-0.476,0-0.865-0.389-0.865-0.865v-2.595c0-0.476,0.389-0.865,0.865-0.865h9.955c0.476,0,0.865,0.389,0.865,0.865V45.949z M44.956,37.298c0,0.476-0.389,0.865-0.865,0.865H26.351c-0.476,0-0.865-0.389-0.865-0.865v-2.595c0-0.476,0.389-0.865,0.865-0.865h17.741c0.476,0,0.865,0.389,0.865,0.865V37.298z"/>
</g>
</svg>
