<?xml version="1.0" encoding="utf-8"?>
<svg version="1.1" xmlns="http://www.w3.org/2000/svg" xmlns:xlink="http://www.w3.org/1999/xlink" x="0px" y="0px" width="41" height="16" viewBox="0 0 41 16" enable-background="new 0 0 41 16" xml:space="preserve">
<g id="bounds"><rect opacity="0" width="41" height="16"/></g>
<g id="icon">
<path d="M23.36,9.087c0,1.071-0.264,1.931-0.789,2.582c-0.529,0.652-1.242,0.981-2.137,0.981c-0.845,0-1.481-0.362-1.921-1.082h-0.026v0.922h-1.025V2.997l1.025,0.316v3.891h0.026c0.506-0.858,1.243-1.286,2.216-1.286c0.8,0,1.442,0.286,1.917,0.853C23.121,7.34,23.36,8.113,23.36,9.087 M22.307,9.077c0-0.693-0.163-1.248-0.488-1.661c-0.325-0.413-0.775-0.62-1.348-0.62c-0.588,0-1.068,0.204-1.431,0.614c-0.368,0.412-0.553,0.932-0.553,1.565v0.897c0,0.538,0.178,0.991,0.531,1.353c0.35,0.362,0.786,0.545,1.302,0.545c0.62,0,1.105-0.237,1.459-0.716C22.13,10.58,22.307,9.919,22.307,9.077"/>
<path d="M25.91,3.921c0,0.195-0.067,0.354-0.2,0.48c-0.135,0.129-0.294,0.192-0.477,0.192c-0.189,0-0.346-0.06-0.476-0.183c-0.131-0.123-0.196-0.287-0.196-0.488c0-0.177,0.063-0.333,0.193-0.465c0.125-0.131,0.285-0.196,0.478-0.196c0.192,0,0.353,0.065,0.481,0.193C25.844,3.581,25.91,3.738,25.91,3.921"/>
<rect x="24.705" y="6.078" width="1.029" height="6.413"/>
<path d="M32.755,12.49h-1.028V8.832c0-1.358-0.496-2.036-1.49-2.036c-0.505,0-0.925,0.188-1.267,0.573c-0.34,0.383-0.51,0.87-0.51,1.463v3.658h-1.027V6.078h1.027v1.065h0.023c0.483-0.815,1.184-1.225,2.108-1.225c0.705,0,1.24,0.233,1.61,0.691c0.369,0.458,0.555,1.112,0.555,1.955V12.49z"/>
<path d="M40.028,11.975c0,2.349-1.128,3.525-3.381,3.525c-0.786,0-1.477-0.148-2.077-0.448l0.268-0.886c0.63,0.328,1.135,0.463,1.791,0.463c1.583,0,2.373-0.836,2.373-2.51v-0.708h-0.025c-0.488,0.821-1.224,1.237-2.204,1.237c-0.517,0-0.98-0.131-1.384-0.392c-0.405-0.26-0.717-0.628-0.941-1.104c-0.219-0.482-0.329-1.034-0.329-1.665c0-1.093,0.265-1.962,0.797-2.603c0.533-0.644,1.245-0.968,2.136-0.968c0.867,0,1.506,0.348,1.924,1.043h0.025V6.078h1.026V11.975z M39.002,9.59V8.646c0-0.519-0.178-0.958-0.531-1.315c-0.356-0.359-0.78-0.535-1.272-0.535c-0.639,0-1.137,0.232-1.493,0.696C35.347,7.956,35.17,8.603,35.17,9.43c0,0.698,0.173,1.265,0.514,1.695c0.342,0.43,0.798,0.645,1.368,0.645c0.573,0,1.042-0.204,1.406-0.613C38.821,10.754,39.002,10.228,39.002,9.59"/>
<polygon points="5.469,4.4 6.969,7.67 9.25,8.707 0.972,13.087 4.385,15.485 12.965,10.377 12.965,6.707 "/>
<polygon points="4.385,1.54 0.972,0.5 0.972,13.087 4.385,10.006 "/>
</g>
</svg>
