<?xml version="1.0" encoding="utf-8"?>
<svg version="1.1" xmlns="http://www.w3.org/2000/svg" xmlns:xlink="http://www.w3.org/1999/xlink" x="0px" y="0px" width="40" height="21" viewBox="0 0 40 21" enable-background="new 0 0 40 21" xml:space="preserve">
<g id="bounds"><rect opacity="0" width="40" height="21"/></g>
<g id="icon">
<rect fill="#000000" x="3" y="3" opacity="0.5" width="34" height="15"/>
<path d="M40,3.64c0,4.58,0,9.16,0,13.74c-0.006,0.019-0.016,0.037-0.016,0.056c-0.008,0.231-0.062,0.454-0.124,0.675c-0.416,1.461-1.657,2.578-3.147,2.832c-0.117,0.02-0.235,0.038-0.353,0.057c-17.233,0-15.467,0-32.7,0c-0.048-0.008-0.097-0.018-0.145-0.025c-0.829-0.111-1.56-0.44-2.179-1.003c-0.711-0.646-1.138-1.448-1.28-2.4C0.039,17.461,0.019,17.35,0,17.239c0-4.493,0-8.987,0-13.48c0.012-0.051,0.027-0.102,0.036-0.154C0.058,3.47,0.071,3.334,0.098,3.201c0.336-1.676,1.733-2.965,3.427-3.166C3.61,0.026,3.695,0.012,3.78,0C20.94,0,19.1,0,36.26,0c0.029,0.006,0.057,0.014,0.086,0.018c0.122,0.016,0.245,0.025,0.366,0.048c1.077,0.203,1.94,0.749,2.575,1.642c0.395,0.555,0.637,1.172,0.696,1.856C39.985,3.59,39.994,3.615,40,3.64z M12.561,9.008c0-0.128-0.002-0.244,0-0.36c0.004-0.197-0.008-0.393-0.047-0.587c-0.349-1.752-2.351-2.619-3.855-1.66C7.936,6.863,7.541,7.535,7.477,8.394C7.464,8.56,7.47,8.727,7.467,8.893c0,0.036-0.003,0.071-0.005,0.115c-0.043,0-0.075,0-0.108,0c-0.14,0-0.28-0.001-0.42,0c-0.31,0.004-0.562,0.127-0.747,0.377c-0.125,0.17-0.173,0.362-0.173,0.573c0.002,1.36,0.001,2.719,0.001,4.079c0,0.023,0,0.047,0.001,0.07c0.012,0.387,0.264,0.718,0.633,0.836c0.106,0.034,0.215,0.041,0.325,0.041c2.026,0,4.052,0,6.079,0c0.027,0,0.053,0,0.08,0c0.19-0.002,0.361-0.062,0.511-0.175c0.245-0.184,0.372-0.433,0.373-0.739c0.002-1.383,0.001-2.766,0.001-4.149c0-0.01,0-0.02,0-0.03c-0.015-0.456-0.366-0.835-0.819-0.874c-0.172-0.015-0.346-0.007-0.519-0.009C12.644,9.008,12.608,9.008,12.561,9.008z M20.12,14.591l0.587-1.747h2.788l0.599,1.746h1.732l-2.897-8.125h-1.598l-2.897,8.126L20.12,14.591L20.12,14.591z M27.103,6.512v8.077h1.669v-3.193l3.1-0.003l-0.01-1.535h-3.08l0.01-1.817h3.507v-1.53h-5.196V6.512z"/>
<path d="M11.458,9.002c-0.96,0-1.922,0-2.883,0C8.571,8.995,8.564,8.99,8.564,8.984c0-0.253-0.023-0.506,0.034-0.756c0.148-0.653,0.75-1.15,1.469-1.129c0.665,0.019,1.252,0.517,1.377,1.181C11.472,8.431,11.482,8.872,11.458,9.002z"/>
<polygon points="22.983,11.356 21.219,11.356 22.096,8.757 22.117,8.756"/>
</g>
</svg>
