<?xml version="1.0" encoding="utf-8"?>
<svg version="1.1" xmlns="http://www.w3.org/2000/svg" xmlns:xlink="http://www.w3.org/1999/xlink" x="0px" y="0px" width="40" height="21" viewBox="0 0 40 21" enable-background="new 0 0 40 21" xml:space="preserve">
<g id="bounds"><rect opacity="0" width="40" height="21"/></g>
<g id="icon">
<rect fill="#000000" x="3" y="3" opacity="0.5" width="34" height="15"/>
<path d="M0,17.235c0-4.492,0-8.984,0-13.476c0.012-0.051,0.026-0.103,0.036-0.155c0.037-0.206,0.059-0.416,0.111-0.619c0.404-1.569,1.739-2.741,3.348-2.95C3.589,0.024,3.685,0.012,3.78,0c10.827,0,21.653,0,32.48,0c0.022,0.005,0.044,0.015,0.066,0.016c0.247,0.013,0.489,0.059,0.727,0.122c1.516,0.404,2.666,1.679,2.91,3.227C39.976,3.449,39.987,3.534,40,3.619c0,4.586,0,9.17,0,13.756c-0.006,0.028-0.015,0.057-0.018,0.086c-0.01,0.076-0.012,0.153-0.026,0.228c-0.237,1.226-0.893,2.158-1.971,2.787C37.354,20.844,36.666,21,35.938,21c-10.612,0-21.224,0-31.837,0c-0.043,0-0.087,0-0.13-0.001c-0.622-0.016-1.218-0.146-1.768-0.439c-1.21-0.645-1.929-1.646-2.147-3.001C0.038,17.45,0.019,17.343,0,17.235z M7.467,9C7.422,9,7.39,9,7.357,9C7.214,9,7.07,8.999,6.927,9C6.733,9.003,6.552,9.056,6.394,9.173c-0.253,0.187-0.38,0.439-0.38,0.755c0,0.697,0,1.393,0,2.089c0,0.683,0.003,1.367-0.001,2.049C6.01,14.568,6.427,14.98,6.93,14.979c2.056-0.003,4.113-0.001,6.169-0.002c0.05,0,0.1-0.002,0.149-0.011c0.46-0.081,0.768-0.449,0.768-0.921c0.001-1.37,0.001-2.739,0-4.109c0-0.538-0.397-0.932-0.936-0.936c-0.147-0.001-0.293,0-0.44-0.001c-0.025,0-0.05-0.006-0.08-0.009c0-0.153,0.006-0.3-0.002-0.446c-0.008-0.163-0.015-0.327-0.046-0.487c-0.246-1.282-1.432-2.166-2.736-2.043c-0.697,0.066-1.271,0.375-1.72,0.91c-0.394,0.47-0.583,1.018-0.588,1.63C7.466,8.698,7.467,8.84,7.467,9z M28.813,8.016l3.535-0.002L32.34,6.506h-5.191v8.067l5.247-0.002v-1.498h-3.583v-1.798h3.097l-0.004-1.521h-3.093V8.016L28.813,8.016z M25.874,14.58l-2.896-8.12H21.38l-2.896,8.122h1.686l0.587-1.744h2.787l0.597,1.743L25.874,14.58L25.874,14.58z"/>
<path d="M8.585,9.021c0.008-0.294-0.023-0.576,0.058-0.854c0.176-0.603,0.764-1.094,1.502-1.044c0.661,0.045,1.207,0.543,1.323,1.179c0.043,0.238,0.021,0.476,0.027,0.718C10.521,9.021,9.559,9.021,8.585,9.021z"/>
<polygon points="22.187,8.777 23.051,11.37 21.288,11.37 22.164,8.777"/>
</g>
</svg>
