<?xml version="1.0" encoding="utf-8"?>
<svg version="1.1" xmlns="http://www.w3.org/2000/svg" xmlns:xlink="http://www.w3.org/1999/xlink" x="0px" y="0px" width="70" height="72" viewBox="0 0 70 72" enable-background="new 0 0 70 72" xml:space="preserve">
<g id="bounds"><rect opacity="0" width="70" height="72"/></g>
<g id="icon">
<path d="M59,14h-8.824c-0.603-1.043-1.232-2.109-1.687-2.827C47.306,9.308,45.887,9,44.14,9H25.994c-1.748,0-3.166,0.308-4.35,2.173C21.19,11.891,20.56,12.957,19.958,14H11c-4.418,0-8,3.582-8,8v30c0,4.418,3.582,8,8,8h48c4.418,0,8-3.582,8-8V22C67,17.582,63.418,14,59,14z M35.001,52.001c-8.823,0-16.001-7.178-16.001-16C19,27.178,26.178,20,35.001,20C43.823,20,51,27.178,51,36.001C51,44.823,43.823,52.001,35.001,52.001z M56.001,28C54.343,28,53,26.656,53,25c0-1.657,1.343-3,3.001-3C57.657,22,59,23.343,59,25C59,26.656,57.657,28,56.001,28z"/>
<circle cx="35.001" cy="36" r="10"/>
</g>
</svg>
