<?xml version="1.0" encoding="utf-8"?>
<svg version="1.1" xmlns="http://www.w3.org/2000/svg" xmlns:xlink="http://www.w3.org/1999/xlink" x="0px" y="0px" width="74" height="72" viewBox="0 0 74 72" enable-background="new 0 0 74 72" xml:space="preserve">
<g id="bounds"><rect opacity="0" width="74" height="72"/></g>
<g id="icon">
<circle cx="37" cy="36" r="8"/>
<path d="M69.506,35.683l-7-8c-0.76-0.867-2.251-0.867-3.011,0l-7,8c-0.517,0.591-0.64,1.429-0.316,2.144C52.503,38.541,53.216,39,54,39h3.76C56.297,49.159,47.559,57,37,57c-5.625,0-10.908-2.194-14.876-6.18c-1.169-1.175-3.069-1.179-4.243-0.009c-1.174,1.17-1.178,3.069-0.008,4.243C22.976,60.179,29.769,63,37,63c13.874,0,25.332-10.52,26.829-24H68c0.785,0,1.497-0.459,1.821-1.174C70.146,37.111,70.022,36.273,69.506,35.683z"/>
<path d="M21.822,34.174C21.498,33.459,20.785,33,20,33h-3.76C17.704,22.841,26.442,15,37,15c5.609,0,10.882,2.185,14.849,6.152c1.171,1.171,3.071,1.173,4.243,0c1.172-1.171,1.172-3.07,0-4.242C50.992,11.81,44.212,9,37,9C23.127,9,11.669,19.52,10.171,33H6c-0.785,0-1.497,0.459-1.821,1.174c-0.324,0.715-0.201,1.553,0.316,2.144l7,8C11.875,44.751,12.424,45,13,45s1.125-0.249,1.505-0.683l7-8C22.022,35.727,22.146,34.889,21.822,34.174z"/>
</g>
</svg>
