<?xml version="1.0" encoding="utf-8"?>
<svg version="1.1" xmlns="http://www.w3.org/2000/svg" xmlns:xlink="http://www.w3.org/1999/xlink" x="0px" y="0px" width="68" height="72" viewBox="0 0 68 72" enable-background="new 0 0 68 72" xml:space="preserve">
<g id="bounds"><rect opacity="0" width="68" height="72"/></g>
<g id="icon">
<path d="M63.148,20.229c-1.121-0.466-2.412-0.209-3.269,0.65L54,26.758V19c0-4.418-3.582-8-8-8H12c-4.418,0-8,3.582-8,8v34c0,4.418,3.582,8,8,8h34c4.418,0,8-3.582,8-8v-7.758l5.879,5.879c0.857,0.859,2.148,1.116,3.269,0.65C64.269,51.308,65,50.214,65,49V23C65,21.786,64.269,20.692,63.148,20.229z"/>
<path fill="#FFFFFF" d="M29.203,18.606c-7.782,0-13.935,6.525-13.935,14.399c0,8.226,10.818,20.495,13.935,20.495c2.73,0,13.548-12.269,13.548-20.495C42.751,25.131,36.599,18.606,29.203,18.606z"/>
<path fill="#D75444" d="M29.249,23.929c-4.858,0-8.603,3.707-8.603,8.516c0,4.336,3.745,8.044,8.603,8.044c4.381,0,8.125-3.707,8.125-8.044C37.375,27.635,33.629,23.929,29.249,23.929z"/>
<ellipse fill="#FFFFFF" cx="25.724" cy="27.182" rx="3.286" ry="3.253"/>
</g>
</svg>
