<?xml version="1.0" encoding="utf-8"?>
<svg version="1.1" xmlns="http://www.w3.org/2000/svg" xmlns:xlink="http://www.w3.org/1999/xlink" x="0px" y="0px" width="62px" height="72px" viewBox="0 0 62 72" enable-background="new 0 0 62 72" xml:space="preserve">
<g id="bounds"><rect opacity="0" width="62" height="72"/></g>
<g id="icon">
<path d="M58.327,52.46l-23-39C34.428,11.936,32.79,11,31.02,11c-1.77,0-3.408,0.936-4.307,2.46l-23,39c-0.912,1.546-0.925,3.462-0.035,5.02C4.569,59.038,6.225,60,8.02,60h46c1.795,0,3.451-0.962,4.342-2.521C59.251,55.922,59.239,54.006,58.327,52.46z M31.02,53.999c-2.211,0-4-1.792-4-4c0-2.211,1.789-3.999,4-3.999c2.211,0,4,1.788,4,3.999C35.02,52.207,33.231,53.999,31.02,53.999z M32.969,41.45C32.759,42.357,31.952,43,31.02,43c-0.932,0-1.739-0.643-1.949-1.55C27.679,35.418,26.02,28.015,26.02,27c0-1.987,1.718-4,5-4c3.282,0,5,2.013,5,4C36.02,28.015,34.361,35.418,32.969,41.45z"/>
</g>
</svg>
