<?xml version="1.0" encoding="utf-8"?>
<svg version="1.1" xmlns="http://www.w3.org/2000/svg" xmlns:xlink="http://www.w3.org/1999/xlink" x="0px" y="0px" width="60" height="72" viewBox="0 0 60 72" enable-background="new 0 0 60 72" xml:space="preserve">
<g id="bounds"><rect opacity="0" width="60" height="72"/></g>
<g id="icon">
<path d="M30,15c11.598,0,21,9.402,21,20.999s-9.401,20.999-21,20.999c-11.599,0-21-9.402-21-20.999S18.401,15,30,15 M30,9C15.112,9,3,21.111,3,35.999s12.112,26.999,27,26.999c14.888,0,27-12.111,27-26.999S44.888,9,30,9L30,9z"/>
<path d="M39.63,25.482c-1.393-0.901-3.248-0.501-4.149,0.889l-8.984,13.885l-3.376-3.376c-1.171-1.172-3.071-1.172-4.242,0c-1.172,1.171-1.172,3.071,0,4.242l6,6C25.464,47.708,26.232,48,27,48c0.781,0,1.64-0.328,2.121-0.879c0.422-0.483,1.128-1.636,1.956-2.902c3.046-4.656,9.441-14.589,9.441-14.589C41.419,28.239,41.021,26.382,39.63,25.482z"/>
</g>
</svg>
