<?xml version="1.0" encoding="utf-8"?>
<svg version="1.1" xmlns="http://www.w3.org/2000/svg" xmlns:xlink="http://www.w3.org/1999/xlink" x="0px" y="0px" width="52" height="72" viewBox="0 0 52 72" enable-background="new 0 0 52 72" xml:space="preserve">
<g id="bounds"><rect opacity="0" width="52" height="72"/></g>
<g id="icon">
<path d="M21.4,36H7.8c-1.3,0-2.3-1-2.3-2.2s1-2.3,2.3-2.3h13.7c1.3,0,2.3,1,2.3,2.3S22.7,36,21.4,36z"/>
<path d="M30.6,27H7.8c-1.3,0-2.3-1-2.3-2.2c0-1.3,1-2.3,2.3-2.3h22.8c1.3,0,2.3,1,2.3,2.3C32.8,26.1,31.8,27,30.6,27z"/>
<path d="M45.6,23.8c-1-0.8-2.4-0.6-3.2,0.4L21.2,51.3L13,43.1c-0.9-0.9-2.3-0.9-3.2,0c-0.9,0.9-0.9,2.3,0,3.2l10,10c0.4,0.4,1,0.7,1.6,0.7c0.6,0,1.2-0.2,1.6-0.7L46,27C46.8,26,46.6,24.6,45.6,23.8z"/>
</g>
</svg>
