<?xml version="1.0" encoding="utf-8"?>
<svg version="1.1" xmlns="http://www.w3.org/2000/svg" xmlns:xlink="http://www.w3.org/1999/xlink" x="0px" y="0px" width="60" height="72" viewBox="0 0 60 72" enable-background="new 0 0 60 72" xml:space="preserve">
<g id="bounds"><rect opacity="0" width="60" height="72"/></g>
<g id="icon">
<circle fill="#FFFFFF" cx="30" cy="36" r="25"/>
<path d="M30.001,9.002C15.113,9.002,3,21.113,3,36.001S15.113,63,30.001,63C44.889,63,57,50.889,57,36.001S44.889,9.002,30.001,9.002z M40.519,29.63c0,0-6.394,9.933-9.441,14.589c-0.828,1.267-1.535,2.419-1.957,2.902C28.641,47.672,27.781,48,27,48c-0.768,0-1.536-0.293-2.121-0.879l-6-6c-1.172-1.171-1.172-3.071,0-4.242c1.171-1.172,3.071-1.172,4.242,0l3.376,3.376l8.984-13.885c0.9-1.39,2.755-1.79,4.149-0.889C41.021,26.382,41.419,28.238,40.519,29.63z"/>
</g>
</svg>
