<?xml version="1.0" encoding="utf-8"?>
<svg version="1.1" xmlns="http://www.w3.org/2000/svg" xmlns:xlink="http://www.w3.org/1999/xlink" x="0px" y="0px" width="60" height="72" viewBox="0 0 60 72" enable-background="new 0 0 60 72" xml:space="preserve">
<g id="bounds"><rect opacity="0" width="60" height="72"/></g>
<g id="icon">
<path d="M30,15c11.598,0,21,9.402,21,20.999s-9.401,20.999-21,20.999c-11.599,0-21-9.402-21-20.999S18.401,15,30,15 M30,9C15.112,9,3,21.111,3,35.999s12.112,26.999,27,26.999c14.888,0,27-12.111,27-26.999S44.888,9,30,9L30,9z"/>
<path d="M34.243,27.515L30,31.757l-4.243-4.243c-1.172-1.172-3.071-1.171-4.243,0c-1.171,1.171-1.172,3.071,0,4.243L25.757,36l-4.243,4.243c-1.171,1.171-1.172,3.071,0,4.243c1.172,1.172,3.071,1.171,4.243,0L30,40.243l4.243,4.243c1.172,1.172,3.071,1.171,4.243,0c1.171-1.171,1.172-3.071,0-4.243L34.243,36l4.243-4.243c1.171-1.171,1.172-3.071,0-4.243C37.313,26.343,35.414,26.343,34.243,27.515z"/>
</g>
</svg>
