<?xml version="1.0" encoding="utf-8"?>
<svg version="1.1" xmlns="http://www.w3.org/2000/svg" xmlns:xlink="http://www.w3.org/1999/xlink" x="0px" y="0px" width="40" height="40" viewBox="0 0 40 40" enable-background="new 0 0 40 40" xml:space="preserve">
<g id="bounds"><rect opacity="0" width="40" height="40"/></g>
<g id="icon">
<path d="M24.242,20L39.121,5.121c1.172-1.171,1.172-3.071,0-4.242c-1.171-1.172-3.071-1.172-4.242,0l-14.88,14.879L5.122,0.879c-1.171-1.172-3.071-1.172-4.242,0c-1.172,1.171-1.172,3.071,0,4.242L15.758,20L0.879,34.879c-1.172,1.171-1.172,3.071,0,4.242C1.465,39.707,2.233,40,3.001,40s1.535-0.293,2.121-0.879l14.878-14.879l14.879,14.879C35.464,39.707,36.232,40,36.999,40c0.768,0,1.535-0.293,2.121-0.879c1.172-1.171,1.172-3.071,0-4.242L24.242,20z"/>
</g>
</svg>
