<?xml version="1.0" encoding="utf-8"?>
<svg version="1.1" xmlns="http://www.w3.org/2000/svg" xmlns:xlink="http://www.w3.org/1999/xlink" x="0px" y="0px" width="60" height="72" viewBox="0 0 60 72" enable-background="new 0 0 60 72" xml:space="preserve">
<g id="bounds"><rect opacity="0" width="60" height="72"/></g>
<g id="icon">
<path d="M30.001,9.002c-14.888,0-27,12.111-27,26.999S15.113,63,30.001,63s27-12.111,27-26.999S44.889,9.002,30.001,9.002z"/>
<path fill="#FFFFFF" d="M38.496,40.252c1.172,1.172,1.171,3.071,0,4.242c-1.172,1.172-3.071,1.173-4.243,0.001l-4.243-4.243l-4.242,4.243c-1.172,1.171-3.07,1.171-4.242,0c-1.172-1.172-1.172-3.071,0-4.243l4.242-4.242l-4.242-4.242c-1.172-1.172-1.172-3.072,0-4.243s3.07-1.172,4.242,0l4.242,4.243l4.243-4.243c1.171-1.171,3.071-1.172,4.243,0c1.172,1.171,1.171,3.071,0,4.243l-4.243,4.242L38.496,40.252z"/>
</g>
</svg>
