<?xml version="1.0" encoding="utf-8"?>
<svg version="1.1" xmlns="http://www.w3.org/2000/svg" xmlns:xlink="http://www.w3.org/1999/xlink" x="0px" y="0px" width="46" height="72" viewBox="0 0 46 72" enable-background="new 0 0 46 72" xml:space="preserve">
<g id="bounds"><rect opacity="0" width="46" height="72"/></g>
<g id="icon">
<path d="M27.243,36l14.879-14.879c1.172-1.171,1.172-3.071,0-4.242c-1.171-1.172-3.071-1.172-4.242,0L23,31.758L8.122,16.879c-1.171-1.172-3.071-1.172-4.242,0c-1.172,1.171-1.172,3.071,0,4.242L18.758,36L3.879,50.879c-1.172,1.171-1.172,3.071,0,4.242C4.465,55.707,5.233,56,6.001,56s1.535-0.293,2.121-0.879L23,40.242l14.879,14.879C38.465,55.707,39.233,56,40,56c0.768,0,1.535-0.293,2.121-0.879c1.172-1.171,1.172-3.071,0-4.242L27.243,36z"/>
</g>
</svg>
