<svg version="1.1" xmlns="http://www.w3.org/2000/svg" xmlns:xlink="http://www.w3.org/1999/xlink" x="0px" y="0px" width="70" height="72" viewBox="0 0 70 72" enable-background="new 0 0 70 72" xml:space="preserve">
<g id="bounds"><rect opacity="0" width="70" height="72"/></g>
<g id="icon">
<path d="M31,19c7.697,0,13.964,6.244,14,13.933c-0.004,0.063-0.01,0.165-0.011,0.204c-0.028,1.059,0.505,2.055,1.401,2.619c0.896,0.563,2.023,0.613,2.967,0.13C50.503,35.298,51.728,35,53,35c4.411,0,8,3.589,8,8c0,2.126-0.839,4.055-2.196,5.49l4.241,4.241C65.488,50.209,67,46.78,67,43c0-7.72-6.28-14-14-14c-0.8,0-1.588,0.066-2.362,0.199c-1.78-9.217-9.91-16.2-19.64-16.2c-2.299,0-4.5,0.41-6.557,1.127l4.97,4.97C29.933,19.037,30.462,19,31,19z"/>
<path d="M15,51c-3.309,0-6-2.691-6-6c0-3.106,2.426-5.729,5.521-5.973c0.846-0.066,1.623-0.488,2.141-1.16s0.728-1.531,0.576-2.366C17.078,34.617,17,33.799,17,33c0-1.132,0.149-2.227,0.404-3.282l-4.722-4.721C11.606,27.45,11,30.155,11,33.001c0,0.23,0.004,0.46,0.013,0.691C6.339,35.354,3,39.845,3,45c0,6.617,5.383,12,12,12h29.686l-6-6H15z"/>
<path d="M14.121,10.879c-1.172-1.172-3.07-1.172-4.242,0c-1.172,1.171-1.172,3.071,0,4.242l46,46C56.465,61.707,57.232,62,58,62s1.535-0.293,2.121-0.879c1.172-1.171,1.172-3.071,0-4.242L14.121,10.879z"/>
</g>
</svg>
