<?xml version="1.0" encoding="utf-8"?>
<svg version="1.1" xmlns="http://www.w3.org/2000/svg" xmlns:xlink="http://www.w3.org/1999/xlink" x="0px" y="0px" width="64" height="72" viewBox="0 0 64 72" enable-background="new 0 0 64 72" xml:space="preserve">
<g id="bounds"><rect opacity="0" width="64" height="72"/></g>
<g id="icon">
<path d="M50,32c-1.807,0-3.507,0.444-5.011,1.216C44.99,33.142,45,33.071,45,32.998c-0.001-9.389-7.613-16.999-17.002-16.998C18.609,16,10.999,23.612,11,33.001c0,1.038,0.108,2.049,0.286,3.035C6.65,36.401,3,40.271,3,45c0,4.971,4.029,9,9,9h38c6.075,0,11-4.925,11-11S56.075,32,50,32z"/>
<path d="M50,32c-1.807,0-3.507,0.444-5.011,1.216C44.99,33.142,45,33.071,45,32.998c-0.001-9.389-7.613-16.999-17.002-16.998C18.609,16,10.999,23.612,11,33.001c0,1.038,0.108,2.049,0.286,3.035C6.65,36.401,3,40.271,3,45c0,4.971,4.029,9,9,9h38c6.075,0,11-4.925,11-11S56.075,32,50,32z"/>
</g>
</svg>
