<?xml version="1.0" encoding="utf-8"?>
<svg version="1.1" xmlns="http://www.w3.org/2000/svg" xmlns:xlink="http://www.w3.org/1999/xlink" x="0px" y="0px" width="60" height="72" viewBox="0 0 60 72" enable-background="new 0 0 60 72" xml:space="preserve">
<g id="bounds"><rect opacity="0" width="60" height="72"/></g>
<g id="icon">
<path d="M21.5,19H16v-5.5c0-1.4-1.1-2.5-2.5-2.5S11,12.1,11,13.5V19H5.5C4.1,19,3,20.1,3,21.5S4.1,24,5.5,24H11v5.5c0,1.4,1.1,2.5,2.5,2.5s2.5-1.1,2.5-2.5V24h5.5c1.4,0,2.5-1.1,2.5-2.5S22.9,19,21.5,19z"/>
<path d="M53.1,19H31.5c-1.4,0-2.5,1.1-2.5,2.5s1.1,2.5,2.5,2.5h21.3v22.8H26.5c-0.6,0-1.1,0.2-1.6,0.6c0,0,0,0,0,0L16,54.9V40.5c0-1.4-1.1-2.5-2.5-2.5S11,39.1,11,40.5v19.8c0,1,0.6,1.9,1.4,2.3c0.3,0.2,0.7,0.2,1.1,0.2c0.6,0,1.2-0.2,1.6-0.6l12.3-10.4h25.7c2.6,0,4.7-2.1,4.7-4.7V23.7C57.8,21.1,55.7,19,53.1,19z"/>
</g>
</svg>
