<?xml version="1.0" encoding="utf-8"?>
<svg version="1.1" xmlns="http://www.w3.org/2000/svg" xmlns:xlink="http://www.w3.org/1999/xlink" x="0px" y="0px" width="64" height="72" viewBox="0 0 64 72" enable-background="new 0 0 64 72" xml:space="preserve">
<g id="bounds"><rect opacity="0" width="64" height="72"/></g>
<g id="icon">
<path d="M6.779,43.188c-1.581,0-2.864-1.282-2.864-2.864V17.257c0-3.158,2.569-5.727,5.727-5.727h14.431c1.581,0,2.864,1.282,2.864,2.864s-1.282,2.864-2.864,2.864H9.643v23.067C9.643,41.905,8.36,43.188,6.779,43.188z"/>
<path d="M55.793,60.474L32.78,60.426c-1.581,0-2.864-1.282-2.864-2.864s1.282-2.864,2.864-2.864l23.012,0.048v-11.57c0-1.581,1.282-2.864,2.864-2.864c1.581,0,2.864,1.282,2.864,2.864v11.57C61.52,57.905,58.951,60.474,55.793,60.474z"/>
<path d="M64,2.942C45.864,7.084,32.298,22.584,23.111,36.309c-7.085,10.556-11.308,20.337-12.195,22.659c-1.61,4.165-1.711,6.806-0.965,7.057c0.748,0.252,2.738-2.344,4.728-5.446c1.278-1.993,3.028-4.629,5.276-8.21c4.626-7.41,10.103-13.302,16.177-14.365c0.014,0,0.061-0.046,0.078-0.067c4.476-0.503,14.106-4.28,15.31-9.817c-3.104,1.169-6.271,1.732-9.439,1.599c0,0,1.892-2.461,4.927-3.43c5.205-1.663,8.425-3.15,11.422-7.283c1.036-1.447,1.515-2.516,2.09-4.09c-3.293,1.821-7.62,2.854-10.076,2.765c2.418-2.973,5.916-4.594,9.334-7.596C63.927,6.435,64,2.942,64,2.942z"/>
</g>
</svg>
