<?xml version="1.0" encoding="utf-8"?>
<svg version="1.1" xmlns="http://www.w3.org/2000/svg" xmlns:xlink="http://www.w3.org/1999/xlink" x="0px" y="0px" width="64" height="72" viewBox="0 0 64 72" enable-background="new 0 0 64 72" xml:space="preserve">
<g id="bounds"><rect opacity="0" width="64" height="72"/></g>
<g id="icon">
<path d="M60.122,19.878l-11.001-11c-1.172-1.171-3.072-1.171-4.242,0c-1.172,1.171-1.172,3.071,0,4.243L50.757,19H17c-1.657,0-3,1.343-3,3s1.343,3,3,3h33.758l-5.879,5.878c-1.172,1.172-1.172,3.071,0,4.243C45.464,35.707,46.232,36,47,36s1.535-0.293,2.121-0.878l11.001-11C60.708,23.536,61,22.768,61,22S60.708,20.464,60.122,19.878z"/>
<path d="M47,47H13.242l5.879-5.879c1.172-1.171,1.172-3.071,0-4.242c-1.172-1.172-3.07-1.172-4.242,0l-11,11c-1.172,1.171-1.172,3.071,0,4.242l11,11C15.464,63.707,16.232,64,17,64s1.535-0.293,2.121-0.879c1.172-1.171,1.172-3.071,0-4.242L13.242,53H47c1.657,0,3-1.343,3-3S48.658,47,47,47z"/>
</g>
</svg>
