<?xml version="1.0" encoding="utf-8"?>
<svg version="1.1" xmlns="http://www.w3.org/2000/svg" xmlns:xlink="http://www.w3.org/1999/xlink" x="0px" y="0px" width="70" height="72" viewBox="0 0 70 72" enable-background="new 0 0 70 72" xml:space="preserve">
<g id="bounds"><rect opacity="0" width="70" height="72"/></g>
<g id="icon">
<path d="M62,32H8c-2.757,0-5,2.243-5,5v26c0,2.757,2.243,5,5,5h54c2.757,0,5-2.243,5-5V37C67.001,34.243,64.757,32,62,32z M10,62c-0.553,0-1-0.447-1-1V39c0-0.553,0.447-1,1-1h50c0.553,0,1,0.447,1,1v22c0,0.553-0.447,1-1,1H10z"/>
</g>
</svg>
