<svg xmlns="http://www.w3.org/2000/svg" width="32" height="24" viewBox="0 0 32 24">
    <path id="bounds" opacity="0" d="M0 0h24v24H0z"/>
    <path d="M23.04 10.792l2.48-2.502c.386-.39 1.014-.39 1.4 0 .387.39.387 1.03 0 1.42l-.79.79h3.88c.547 0 .99.448.99 1s-.443 1-.99 1h-3.88l.79.79c.387.39.387 1.03 0 1.42-.386.39-1.014.39-1.4 0l-2.48-2.502c-.18-.18-.29-.43-.29-.708s.11-.527.29-.708zM11.01 8.416s.276-4.3 2.577-4.58C14.4 3.092 15.377 3 16 3c4.884 0 4.992 5.416 4.992 5.416s.79.036.614 1.5c-.165 1.385-1.04 2.42-1.61 2.42 0 0-1.53 4.037-3.996 4.037s-3.995-4.036-3.995-4.036c-.572 0-1.446-1.036-1.61-2.42-.176-1.465.613-1.5.613-1.5zm-3.875 9.58c.864-.44 2.846-1.06 5.183-1.623 1.307 1.5 2.752 1.876 3.694 1.876h.006c.942 0 2.388-.376 3.694-1.877 2.338.563 4.293 1.184 5.157 1.623S26 19.338 26 20.124C26 21.25 25.873 22 25.27 22H6.73c-.603 0-.73-.75-.73-1.876 0-.786.27-1.688 1.133-2.128z"/>
    <path d="M25.52 14.71c.386.39 1.014.39 1.4 0 .387-.39.387-1.03 0-1.42l-.79-.79h3.88c.547 0 .99-.448.99-1s-.443-1-.99-1h-3.88l.79-.79c.387-.39.387-1.03 0-1.42-.386-.39-1.014-.39-1.4 0l-2.48 2.502c-.18.18-.29.43-.29.708s.11.527.29.708l2.48 2.502zM6.73 22h18.54c.603 0 .73-.75.73-1.876 0-.786-.27-1.688-1.133-2.128s-2.82-1.06-5.157-1.623c-1.306 1.5-2.752 1.876-3.694 1.876h-.006c-.942 0-2.387-.376-3.694-1.877-2.337.563-4.32 1.184-5.183 1.623S6 19.338 6 20.124C6 21.25 6.127 22 6.73 22z"/>
    <path d="M12.005 12.337s1.53 4.036 3.995 4.036 3.995-4.036 3.995-4.036c.572 0 1.446-1.036 1.61-2.42.176-1.465-.613-1.5-.613-1.5S20.884 3 16 3c-.623 0-1.6.09-2.415.837-2.3.28-2.577 4.58-2.577 4.58s-.79.035-.614 1.5c.165 1.384 1.04 2.42 1.61 2.42z"/>
</svg>
