<svg xmlns="http://www.w3.org/2000/svg" width="24" height="24" viewBox="0 0 24 24">
    <path id="bounds" opacity="0" d="M0 0h24v24H0z"/>
    <path d="M20.846 2h-5.77c-.636 0-1.153.517-1.153 1.154 0 .637.517 1.154 1.154 1.154h4.23c.213 0 .385.172.385.384v4.23c0 .638.517 1.155 1.154 1.155.637 0 1.154-.517 1.154-1.154v-5.77C22 2.518 21.483 2 20.846 2zM8.923 19.692h-4.23c-.213 0-.385-.172-.385-.384v-4.23c0-.638-.517-1.155-1.154-1.155-.637 0-1.154.517-1.154 1.154v5.77C2 21.482 2.517 22 3.154 22h5.77c.636 0 1.153-.517 1.153-1.154s-.517-1.154-1.154-1.154zM3.154 10.077c.637 0 1.154-.517 1.154-1.154v-4.23c0-.213.172-.385.384-.385h4.23c.638 0 1.155-.517 1.155-1.154C10.077 2.517 9.56 2 8.923 2h-5.77C2.518 2 2 2.517 2 3.154v5.77c0 .636.517 1.153 1.154 1.153zM20.846 13.923c-.637 0-1.154.517-1.154 1.154v4.23c0 .213-.172.385-.384.385h-4.23c-.638 0-1.155.517-1.155 1.154S14.44 22 15.077 22h5.77c.636 0 1.153-.517 1.153-1.154v-5.77c0-.636-.517-1.153-1.154-1.153z"/>
    <path d="M6.615 7.77v8.46c0 .638.517 1.155 1.154 1.155h8.46c.638 0 1.155-.517 1.155-1.154V7.77c0-.638-.517-1.155-1.154-1.155H7.77c-.638 0-1.155.517-1.155 1.154zm2.308 1.538c0-.213.172-.385.385-.385h5.384c.213 0 .385.172.385.385v5.384c0 .213-.172.385-.385.385H9.308c-.213 0-.385-.172-.385-.385V9.308z"/>
</svg>
