<svg xmlns="http://www.w3.org/2000/svg" width="24" height="24" viewBox="0 0 24 24">
    <path id="bounds" opacity="0" d="M0 0h24v24H0z"/>
    <path d="M2.73 22h18.54c.603 0 .73-.75.73-1.876 0-.786-.27-1.688-1.133-2.128s-2.82-1.06-5.157-1.623c-1.306 1.5-2.752 1.876-3.694 1.876h-.006c-.942 0-2.387-.376-3.694-1.877-2.337.563-4.32 1.184-5.183 1.623S2 19.338 2 20.124C2 21.25 2.127 22 2.73 22z"/>
    <path d="M8.005 12.337s1.53 4.036 3.995 4.036 3.995-4.036 3.995-4.036c.572 0 1.446-1.036 1.61-2.42.176-1.465-.613-1.5-.613-1.5S16.884 3 12 3c-.623 0-1.6.09-2.415.837-2.3.28-2.577 4.58-2.577 4.58s-.79.035-.614 1.5c.165 1.384 1.04 2.42 1.61 2.42z"/>
</svg>
