<svg xmlns="http://www.w3.org/2000/svg" width="24" height="24" viewBox="0 0 24 24">
    <path id="bounds" opacity="0" d="M0 0h24v24H0z"/>
    <path d="M8.242 13.38h11.516c.676 0 1.242-.56 1.242-1.25 0-.695-.556-1.25-1.242-1.25H8.242c-.676 0-1.242.56-1.242 1.25 0 .695.556 1.25 1.242 1.25zM8.242 7.5h11.516C20.434 7.5 21 6.94 21 6.25 21 5.555 20.444 5 19.758 5H8.242C7.566 5 7 5.56 7 6.25c0 .695.556 1.25 1.242 1.25zM8.242 19h11.516c.676 0 1.242-.56 1.242-1.25 0-.695-.556-1.25-1.242-1.25H8.242C7.566 16.5 7 17.06 7 17.75c0 .695.556 1.25 1.242 1.25z"/>
    <circle cx="4.25" cy="17.75" r="1.5"/>
    <circle cx="4.25" cy="6.25" r="1.5"/>
    <circle cx="4.25" cy="12.13" r="1.5"/>
</svg>
