<svg xmlns="http://www.w3.org/2000/svg" width="24" height="24" viewBox="0 0 24 24">
    <path id="bounds" opacity="0" d="M0 0h24v24H0z"/>
    <path d="M22.5 12c0-5.79-4.71-10.5-10.5-10.5S1.5 6.21 1.5 12 6.21 22.5 12 22.5 22.5 17.79 22.5 12zM3.833 12c0-4.503 3.664-8.167 8.167-8.167S20.167 7.497 20.167 12 16.503 20.167 12 20.167 3.833 16.503 3.833 12z"/>
    <circle cx="12" cy="16.5" r="1.1"/>
    <path d="M12.3 8.437c.877 0 1.59.724 1.59 1.614s-.713 1.615-1.59 1.615h-.318c-.527 0-.955.433-.955.968v.807c0 .535.428.968.955.968.493 0 .894-.38.944-.867 1.632-.3 2.874-1.748 2.874-3.49 0-1.957-1.57-3.55-3.5-3.55s-3.5 1.593-3.5 3.55c0 .536.427.97.955.97s.954-.434.954-.97c0-.89.713-1.613 1.59-1.613z"/>
</svg>
