<svg xmlns="http://www.w3.org/2000/svg" width="24" height="24" viewBox="0 0 24 24">
    <path id="bounds" opacity="0" d="M0 0h24v24H0z"/>
    <path d="M21.383 14.14l-1.763-1.004c.055-.37.093-.75.093-1.136 0-.387-.038-.765-.093-1.137l1.764-1.003c.534-.303.758-.958.523-1.525l-.31-.75c-.237-.567-.857-.87-1.45-.708l-1.958.54c-.455-.612-.995-1.152-1.606-1.606l.54-1.96c.162-.59-.142-1.212-.71-1.447l-.75-.31c-.568-.234-1.222-.01-1.525.524L13.135 4.38c-.37-.056-.75-.093-1.136-.093-.387 0-.764.037-1.136.093L9.86 2.616c-.303-.534-.957-.758-1.524-.523l-.75.31c-.568.236-.87.857-.71 1.45l.54 1.958c-.61.454-1.15.995-1.605 1.606l-1.96-.54c-.59-.162-1.212.142-1.447.71l-.31.75c-.235.568-.01 1.22.524 1.525l1.763 1.003c-.055.372-.093.75-.093 1.137s.038.764.093 1.136L2.616 14.14c-.534.303-.758.957-.523 1.525l.31.75c.194.464.644.75 1.126.75.106 0 .215-.013.322-.042l1.96-.54c.453.612.993 1.152 1.605 1.606l-.54 1.96c-.162.59.14 1.212.71 1.447l.75.31c.152.063.31.093.465.093.426 0 .837-.225 1.06-.617l1.002-1.763c.37.055.75.093 1.136.093.387 0 .764-.038 1.136-.093l1.003 1.763c.222.39.632.616 1.058.616.156 0 .314-.03.466-.094l.75-.31c.568-.236.87-.856.708-1.448l-.54-1.96c.613-.453 1.153-.993 1.607-1.605l1.958.54c.108.03.217.043.324.043.48 0 .932-.288 1.125-.752l.31-.75c.235-.568.01-1.22-.524-1.525zm-9.344 3.177c-2.91 0-5.278-2.368-5.278-5.278 0-2.91 2.367-5.278 5.277-5.278s5.277 2.367 5.277 5.277-2.368 5.277-5.278 5.277z"/>
</svg>
