<svg xmlns="http://www.w3.org/2000/svg" width="24" height="24" viewBox="0 0 24 24"><rect opacity="0" width="24" height="24"/><path d="M12 1.5C6.2 1.5 1.5 6.2 1.5 12S6.2 22.5 12 22.5 22.5 17.8 22.5 12 17.8 1.5 12 1.5zm4.072 17.826c-.39.245-.733.43-1.075.578-1.042.456-2.142.687-3.27.687-3.328 0-6.327-2.005-7.64-5.107-.875-2.068-.904-4.362-.082-6.46.822-2.096 2.396-3.74 4.43-4.63.342-.15.708-.275 1.153-.395.18-.05.366.013.483.157.12.145.142.345.062.513-1.35 2.83-1.51 5.763-.455 8.26 1.075 2.54 3.426 4.61 6.29 5.534.175.056.3.212.325.398.022.186-.064.368-.22.466z"/></svg>