<svg xmlns="http://www.w3.org/2000/svg" width="24" height="24" viewBox="0 0 24 24">
    <path id="bounds" opacity="0" d="M0 0h24v24H0z"/>
    <path d="M7.414 12.336L9.52 3.564c.075-.315.357-.538.682-.538h4.21c.238 0 .46.12.588.32.13.197.15.448.055.665L12.71 9.343h3.808c.252 0 .485.136.61.355.124.22.122.488-.007.705L10.455 21.63c-.13.218-.36.344-.603.344-.082 0-.166-.015-.247-.046-.318-.12-.505-.45-.442-.785l1.49-7.94H8.097c-.216 0-.418-.1-.552-.27-.133-.167-.18-.388-.13-.597z"/>
    <path d="M8.097 13.202h2.553l-1.49 7.94c-.062.335.125.666.443.786.08.03.165.046.248.046.243 0 .475-.126.604-.344l6.667-11.228c.13-.217.132-.486.007-.705-.124-.22-.357-.355-.61-.355H12.71l2.345-5.33c.095-.218.075-.47-.055-.667-.13-.2-.35-.32-.588-.32h-4.21c-.325 0-.607.224-.683.54l-2.106 8.77c-.05.21-.002.43.13.6.135.17.337.267.553.267z"/>
</svg>
