<svg xmlns="http://www.w3.org/2000/svg" width="24" height="24" viewBox="0 0 24 24"><rect opacity="0" width="24" height="24"/><path d="M14.67 14.117c.167.147.374.22.58.22.242 0 .483-.1.656-.297.77-.87 1.19-1.99 1.19-3.15 0-2.627-2.136-4.765-4.763-4.765S7.57 8.262 7.57 10.89c0 1.16.422 2.28 1.19 3.15.173.196.414.296.657.296.206 0 .412-.072.58-.22.36-.32.395-.872.076-1.234-.486-.55-.753-1.258-.753-1.993 0-1.663 1.352-3.015 3.014-3.015 1.662 0 3.014 1.352 3.014 3.014 0 .734-.268 1.442-.754 1.992-.32.362-.285.915.077 1.235z"/><path d="M13.708 11c0-.76-.616-1.375-1.375-1.375-.76 0-1.375.616-1.375 1.375 0 .528.3.98.737 1.21l-1.85 8.06c-.078.38.25.73.688.73h3.6c.435 0 .764-.346.69-.724l-1.775-8.107c.395-.242.66-.674.66-1.17z"/><path d="M12.333 3.125C7.99 3.125 4.458 6.658 4.458 11c0 2.718 1.374 5.208 3.674 6.662.145.092.307.135.466.135.29 0 .574-.144.74-.408.26-.41.137-.95-.27-1.208-1.79-1.13-2.86-3.068-2.86-5.182 0-3.377 2.748-6.125 6.125-6.125S18.458 7.623 18.458 11c0 2.114-1.068 4.052-2.86 5.183-.407.258-.53.8-.27 1.207.166.264.45.408.74.408.16 0 .32-.043.467-.135 2.3-1.454 3.674-3.944 3.674-6.662-.002-4.342-3.534-7.875-7.877-7.875z"/></svg>