<?xml version="1.0" encoding="utf-8"?>
<svg version="1.1" xmlns="http://www.w3.org/2000/svg" xmlns:xlink="http://www.w3.org/1999/xlink" x="0px" y="0px" width="26" height="26" viewBox="0 0 26 26" style="enable-background:new 0 0 26 26;" xml:space="preserve">
<g id="bounds" opacity="0"><rect width="26" height="26"/></g>
<g id="icon">
<circle fill="#FFFFFF" cx="13" cy="13" r="13"/>
<circle cx="13" cy="13" r="11"/>
<path fill="#FFFFFF" d="M12.269,16.616c0-0.244-0.041-0.447-0.081-0.65l3.738-3.738c0.203,0.041,0.447,0.081,0.65,0.081c1.584,0,2.884-1.3,2.884-2.884c0-0.325-0.325-0.772-0.691-0.406l-1.097,1.097c0,0-0.731,0.366-1.462-0.366c-0.731-0.731-0.366-1.463-0.366-1.463l1.097-1.097C17.306,6.825,16.859,6.5,16.534,6.5c-1.584,0-2.884,1.3-2.884,2.884c0,0.244,0.041,0.447,0.081,0.65l-3.738,3.737c-0.203-0.041-0.447-0.081-0.65-0.081c-1.584,0-2.884,1.3-2.884,2.884c0,0.325,0.325,0.772,0.691,0.406l1.097-1.097c0,0,0.731-0.366,1.462,0.366c0.731,0.731,0.366,1.462,0.366,1.462l-1.097,1.097C8.612,19.175,9.059,19.5,9.384,19.5C11.009,19.5,12.269,18.2,12.269,16.616z"/>
</g>
</svg>
