<?xml version="1.0" encoding="utf-8"?>
<svg version="1.1" xmlns="http://www.w3.org/2000/svg" xmlns:xlink="http://www.w3.org/1999/xlink" x="0px" y="0px" width="26" height="26" viewBox="0 0 26 26" style="enable-background:new 0 0 26 26;" xml:space="preserve">
<g id="bounds" opacity="0"><rect width="26" height="26"/></g>
<g id="icon">
<circle fill="#FFFFFF" cx="13" cy="13" r="13"/>
<circle cx="13" cy="13" r="11"/>
<path fill="#FFFFFF" d="M13,16.9c-1.381,0-2.681-0.569-3.575-1.503c0.163,1.828,1.706,3.25,3.575,3.25s3.413-1.422,3.575-3.25C15.681,16.331,14.381,16.9,13,16.9z"/>
<path fill="#FFFFFF" d="M17.672,13.65c-0.284-0.325-0.609-0.65-0.934-0.894c-0.244-0.203-0.528-0.366-0.813-0.528c1.219-0.894,1.991-2.316,1.991-3.941c0-0.488-0.406-0.853-0.853-0.853s-0.853,0.406-0.853,0.853c0,0.691-0.244,1.341-0.609,1.869c-0.447-1.259-1.381-2.438-2.6-2.438s-2.153,1.178-2.6,2.438c-0.366-0.528-0.609-1.178-0.609-1.869c0-0.488-0.406-0.853-0.853-0.853c-0.447,0-0.853,0.406-0.853,0.853c0,1.625,0.772,3.047,1.991,3.941c-0.284,0.162-0.528,0.325-0.812,0.528c-0.325,0.284-0.65,0.569-0.934,0.894c-0.894,1.056-1.422,2.438-1.422,3.9c0,0.487,0.406,0.853,0.853,0.853c0.447,0,0.853-0.406,0.853-0.853c0-0.853,0.244-1.625,0.65-2.275c0.203-0.325,0.447-0.65,0.731-0.894c0.691,0.853,1.747,1.381,2.966,1.381s2.234-0.528,2.966-1.381c0.284,0.284,0.528,0.569,0.731,0.894c0.406,0.65,0.65,1.462,0.65,2.275c0,0.487,0.406,0.853,0.853,0.853c0.447,0,0.853-0.406,0.853-0.853C19.094,16.047,18.566,14.706,17.672,13.65z"/>
</g>
</svg>
