<?xml version="1.0" encoding="utf-8"?>
<svg version="1.1" xmlns="http://www.w3.org/2000/svg" xmlns:xlink="http://www.w3.org/1999/xlink" x="0px" y="0px" width="74" height="72" viewBox="0 0 74 72" enable-background="new 0 0 74 72" xml:space="preserve">
<g id="bounds"><rect opacity="0" width="74" height="72"/></g>
<g id="icon">
<path d="M67.578,11.976C71.204,8.349,71.153,5,71.153,5C54.913,9.542,43.18,24.821,35.342,38.266c-6.046,10.341-9.531,19.845-10.256,22.097c-1.315,4.043-1.316,6.577-0.634,6.796c0.683,0.219,2.394-2.332,4.085-5.37c1.088-1.95,2.581-4.53,4.492-8.035c3.93-7.244,8.677-13.067,14.129-14.275c0.011-0.002,0.052-0.048,0.068-0.066c4.025-0.623,12.596-4.548,13.497-9.89c-2.764,1.22-5.606,1.857-8.471,1.831c0,0,1.627-2.42,4.335-3.444c4.646-1.759,7.504-3.285,10.073-7.339c0.887-1.418,1.285-2.459,1.75-3.984c-2.913,1.848-6.785,2.975-9.006,2.967C61.488,16.624,64.594,14.962,67.578,11.976z"/>
<path d="M35,24H6c-1.657,0-3-1.343-3-3s1.343-3,3-3h29c1.657,0,3,1.343,3,3S36.657,24,35,24z"/>
<path d="M25,39H6c-1.657,0-3-1.343-3-3s1.343-3,3-3h19c1.657,0,3,1.343,3,3S26.657,39,25,39z"/>
<path d="M17,54H6c-1.657,0-3-1.343-3-3s1.343-3,3-3h11c1.657,0,3,1.343,3,3S18.657,54,17,54z"/>
</g>
</svg>
