<?xml version="1.0" encoding="utf-8"?>
<svg version="1.1" xmlns="http://www.w3.org/2000/svg" xmlns:xlink="http://www.w3.org/1999/xlink" x="0px" y="0px" width="60" height="72" viewBox="0 0 60 72" enable-background="new 0 0 60 72" xml:space="preserve">
<g id="bounds"><rect opacity="0" width="60" height="72"/></g>
<g id="icon">
<path d="M30.016,27.56c-1.279,2.633-2.686,4.559-3.903,6.211C24.238,36.314,23,37.995,23,41c0,0.82,0.161,1.656,0.464,2.451l13.12-5.145c-0.508-1.556-1.455-2.866-2.686-4.545C32.688,32.111,31.289,30.188,30.016,27.56z"/>
<path d="M30.017,9c-14.888,0-27,12.112-27,27s12.112,27,27,27s27-12.112,27-27S44.905,9,30.017,9z M30,52c-6.794,0-11-5.71-11-11c0-4.318,1.891-6.885,3.892-9.603c1.78-2.416,3.798-5.155,5.206-9.96c0.311-1.06,1.421-1.668,2.482-1.356c0.674,0.198,1.163,0.719,1.351,1.345c0.001,0.004,0.005,0.007,0.006,0.011c1.407,4.804,3.416,7.542,5.188,9.958C39.117,34.113,41,36.681,41,41C41,46.29,36.794,52,30,52z"/>
</g>
</svg>
