<?xml version="1.0" encoding="utf-8"?>
<svg version="1.1" xmlns="http://www.w3.org/2000/svg" xmlns:xlink="http://www.w3.org/1999/xlink" x="0px" y="0px" width="60" height="72" viewBox="0 0 60 72" enable-background="new 0 0 60 72" xml:space="preserve">
<g id="bounds"><rect opacity="0" width="60" height="72"/></g>
<g id="icon">
<path d="M30,15c11.598,0,21,9.402,21,20.999s-9.401,20.999-21,20.999c-11.599,0-21-9.402-21-20.999S18.401,15,30,15 M30,9C15.112,9,3,21.111,3,35.999s12.112,26.999,27,26.999c14.888,0,27-12.111,27-26.999S44.888,9,30,9L30,9z"/>
<circle cx="29.981" cy="46.999" r="4"/>
<path d="M29.981,21.001c-3.282,0-5,2.013-5,4c0,1.015,1.659,8.418,3.051,14.45c0.21,0.907,1.018,1.55,1.949,1.55c0.932,0,1.739-0.643,1.949-1.55c1.392-6.032,3.051-13.436,3.051-14.45C34.981,23.014,33.263,21.001,29.981,21.001z"/>
</g>
</svg>
