<?xml version="1.0" encoding="utf-8"?>
<svg version="1.1" xmlns="http://www.w3.org/2000/svg" xmlns:xlink="http://www.w3.org/1999/xlink" x="0px" y="0px" width="60" height="72" viewBox="0 0 60 72" enable-background="new 0 0 60 72" xml:space="preserve">
<g id="bounds"><rect opacity="0" width="60" height="72"/></g>
<g id="icon">
<path d="M30.002,9.002C15.113,9.002,3,21.113,3,36.001S15.113,63,30.002,63C44.889,63,57,50.889,57,36.001S44.889,9.002,30.002,9.002z M29.98,50.999c-2.211,0-4-1.792-4-4c0-2.211,1.789-3.999,4-3.999s4,1.788,4,3.999C33.98,49.207,32.191,50.999,29.98,50.999z M31.93,39.451c-0.21,0.907-1.018,1.55-1.949,1.55s-1.739-0.643-1.949-1.55c-1.392-6.032-3.051-13.436-3.051-14.45c0-1.987,1.718-4,5-4s5,2.013,5,4C34.98,26.016,33.321,33.419,31.93,39.451z"/>
</g>
</svg>
