<?xml version="1.0" encoding="utf-8"?>
<svg version="1.1" xmlns="http://www.w3.org/2000/svg" xmlns:xlink="http://www.w3.org/1999/xlink" x="0px" y="0px" width="68" height="72" viewBox="0 0 68 72" enable-background="new 0 0 68 72" xml:space="preserve">
<g id="bounds"><rect opacity="0" width="68" height="72"/></g>
<g id="icon">
<path d="M40.999,35C37.689,35,35,32.311,35,29c0-1.831,0.822-3.467,2.114-4.566c-0.99-0.265-2.025-0.419-3.099-0.419c-6.628,0-12,5.375-12,12s5.372,12,12,12c6.628,0,12-5.375,12-12c0-1.092-0.159-2.145-0.432-3.149C44.482,34.169,42.838,35,40.999,35z"/>
<path d="M64.656,34.58C64.178,33.682,54.497,16,34.013,16S3.848,33.682,3.371,34.58C3.369,34.584,3.026,35.227,3.026,36s0.342,1.416,0.344,1.42C3.848,38.318,13.53,56,34.013,56s30.165-17.682,30.643-18.58C64.658,37.416,65,36.773,65,36S64.658,34.584,64.656,34.58z M57.057,37.995C53.527,42.531,45.912,50,34.013,50c-11.898,0-19.514-7.469-23.044-12.005c0.008,0-0.954-0.964-0.954-1.995c0-1.031,0.941-1.992,0.921-1.992C14.434,29.463,22.004,22,34.013,22s19.579,7.463,23.077,12.008c-0.02,0,0.921,0.961,0.921,1.992C58.011,37.031,57.049,37.995,57.057,37.995z"/>
</g>
</svg>
