<?xml version="1.0" encoding="utf-8"?>
<svg version="1.1" xmlns="http://www.w3.org/2000/svg" xmlns:xlink="http://www.w3.org/1999/xlink" x="0px" y="0px" width="60" height="72" viewBox="0 0 60 72" enable-background="new 0 0 60 72" xml:space="preserve">
<g id="bounds"><rect opacity="0" width="60" height="72"/></g>
<g id="icon">
<path d="M54,20H24.574c-1.31-4.609-5.549-8-10.574-8C7.935,12,3,16.935,3,22.999C3,29.065,7.935,34,14,34c5.024,0,9.263-3.39,10.573-8H54c1.657,0,3-1.343,3-3S55.657,20,54,20z M14,28c-2.757,0-5-2.243-5-5.001C9,20.242,11.244,18,14,18s5,2.242,5,4.999C19,25.757,16.757,28,14,28z"/>
<path d="M54,46H40.574c-1.31-4.609-5.549-8-10.574-8s-9.264,3.391-10.574,8H6c-1.657,0-3,1.343-3,3s1.343,3,3,3h13.427c1.311,4.61,5.549,8,10.573,8s9.263-3.39,10.573-8H54c1.657,0,3-1.343,3-3S55.657,46,54,46z M30,54c-2.757,0-5-2.243-5-5.001C25,46.242,27.244,44,30,44s5,2.242,5,4.999C35,51.757,32.757,54,30,54z"/>
</g>
</svg>
