<?xml version="1.0" encoding="utf-8"?>
<svg version="1.1" xmlns="http://www.w3.org/2000/svg" xmlns:xlink="http://www.w3.org/1999/xlink" x="0px" y="0px" width="52" height="72" viewBox="0 0 52 72" enable-background="new 0 0 52 72" xml:space="preserve">
<g id="bounds"><rect opacity="0" width="52" height="72"/></g>
<g id="icon">
<path d="M41.901,27.043c-6.659-8.905-12.313-18.12-12.37-18.213c-0.23-0.374-0.676-0.56-1.101-0.446c-0.425,0.108-0.73,0.481-0.752,0.92c-0.005,0.114-0.622,11.053-8.194,20.61c-0.7-1.777-1.78-5.227-2.076-10.139c-0.029-0.482-0.401-0.873-0.882-0.93c-0.483-0.044-0.934,0.243-1.075,0.706c-0.011,0.035-1.151,3.639-8.026,12.764c-3.28,4.354-4.348,8.843-3.175,13.342c3.014,11.556,19.727,19.034,20.437,19.347c0.129,0.058,0.267,0.085,0.402,0.085c0.007,0,0.014,0,0.021,0c0.552,0,1-0.447,1-1c0-0.236-0.082-0.453-0.219-0.624c-0.76-1.469-6.833-13.829-0.387-21.259c3.43-3.954,4.549-7.546,4.822-10.113c7.923,13.311,2.962,22.057,0.487,26.419l-0.222,0.393c-0.205,0.364-0.163,0.817,0.107,1.136c0.27,0.319,0.71,0.436,1.102,0.297c8.979-3.225,14.396-7.732,16.1-13.399C49.614,41.241,47.651,34.733,41.901,27.043z"/>
</g>
</svg>
