<?xml version="1.0" encoding="utf-8"?>
<svg version="1.1" xmlns="http://www.w3.org/2000/svg" xmlns:xlink="http://www.w3.org/1999/xlink" x="0px" y="0px" width="60" height="72" viewBox="0 0 60 72" enable-background="new 0 0 60 72" xml:space="preserve">
<g id="bounds"><rect opacity="0" width="60" height="72"/></g>
<g id="icon">
<path d="M29.915,9c-14.888,0-27,12.112-27,27s12.112,27,27,27s27-12.112,27-27S44.803,9,29.915,9z M33.301,47.046c-0.198,0.07-0.432,0.073-0.59-0.145c-0.234-0.324,0.093-0.773,0.093-0.773c1.245-2.195,2.836-5.968-1.151-12.668c-0.137,1.295-0.701,3.101-2.427,5.091c-3.244,3.738-0.188,9.959,0.195,10.699c0.105,0.207,0.179,0.38-0.02,0.652c-0.153,0.209-0.52,0.151-0.585,0.122c-0.357-0.156-8.769-3.921-10.285-9.736c-0.591-2.264-0.053-4.523,1.597-6.715c3.46-4.593,4.034-6.406,4.039-6.423c0.071-0.233,0.298-0.378,0.541-0.356c0.242,0.028,0.43,0.225,0.444,0.468c0.149,2.473,0.692,4.208,1.045,5.102c3.811-4.81,4.121-10.314,4.123-10.372c0.011-0.22,0.165-0.408,0.378-0.462c0.214-0.058,0.438,0.036,0.555,0.223c0.028,0.048,2.874,4.685,6.225,9.166c2.373,3.173,3.306,5.942,3.306,8.424C40.783,42.346,37.82,45.424,33.301,47.046z"/>
</g>
</svg>
