<?xml version="1.0" encoding="utf-8"?>
<svg version="1.1" xmlns="http://www.w3.org/2000/svg" xmlns:xlink="http://www.w3.org/1999/xlink" x="0px" y="0px" width="46px" height="72px" viewBox="0 0 46 72" enable-background="new 0 0 46 72" xml:space="preserve">
<g id="bounds"><rect opacity="0" width="46" height="72"/></g>
<g id="icon">
<path d="M27.872,12.464c-3.062,0-6.031,0.817-8.903,1.607c-2.736,0.752-5.32,1.464-7.841,1.464c-1.899,0-3.589-0.421-5.164-1.288c-0.617-0.341-1.372-0.33-1.981,0.03S3,15.293,3,16v19c0,0.729,0.396,1.4,1.036,1.752c2.18,1.2,4.5,1.784,7.092,1.784c0.001,0,0.001,0,0.001,0c3.061,0,6.03-0.817,8.902-1.607c2.736-0.753,5.32-1.464,7.841-1.464c1.11,0,2.142,0.243,3.128,0.536V13C31,13,29.75,12.464,27.872,12.464z"/>
<path d="M38,9c-1.657,0-3,1.343-3,3v48c0,1.657,1.343,3,3,3s3-1.343,3-3V12C41,10.343,39.657,9,38,9z"/>
</g>
</svg>
