<?xml version="1.0" encoding="utf-8"?>
<svg version="1.1" xmlns="http://www.w3.org/2000/svg" xmlns:xlink="http://www.w3.org/1999/xlink" x="0px" y="0px" width="78" height="72" viewBox="0 0 78 72" enable-background="new 0 0 78 72" xml:space="preserve">
<g id="bounds"><rect opacity="0" width="78" height="72"/></g>
<g id="icon">
<path d="M42.812,36.241c1.55,0,3.915-2.763,4.361-6.453c0.475-3.903-1.66-3.999-1.66-3.999S45.219,11.35,32,11.35c-1.685,0-4.331,0.244-6.537,2.232c-6.229,0.744-6.975,12.207-6.975,12.207s-2.136,0.096-1.661,3.999c0.447,3.69,2.811,6.453,4.361,6.453C21.188,36.241,25.326,47,32,47S42.812,36.241,42.812,36.241z"/>
<path d="M55,51.327c-2.339-1.171-6.673-2.826-13-4.327c-3.537,4.001-7.451,5-10,5s-6.463-0.999-10-5c-6.327,1.501-10.661,3.156-13,4.327C6.661,52.498,6,55.904,6,58c0,3,0.875,5,4,5h44c3.125,0,4-2,4-5C58,55.904,57.339,52.498,55,51.327z"/>
<path d="M64,43.5c-0.792,0-1.556-0.313-2.121-0.879l-6-6c-1.172-1.171-1.172-3.071,0-4.242c1.171-1.172,3.071-1.172,4.242,0l3.413,3.412l7.97-11.955c0.919-1.379,2.781-1.751,4.16-0.832c1.378,0.919,1.751,2.781,0.832,4.16l-10.048,15.09C65.765,43.203,64.718,43.5,64,43.5z"/>
</g>
</svg>
