<?xml version="1.0" encoding="utf-8"?>
<svg version="1.1" xmlns="http://www.w3.org/2000/svg" xmlns:xlink="http://www.w3.org/1999/xlink" x="0px" y="0px" width="78" height="72" viewBox="0 0 78 72" enable-background="new 0 0 78 72" xml:space="preserve">
<g id="bounds"><rect opacity="0" width="78" height="72"/></g>
<g id="icon">
<path d="M42.812,36.241c1.55,0,3.915-2.763,4.361-6.453c0.475-3.903-1.66-3.999-1.66-3.999S45.219,11.35,32,11.35c-1.685,0-4.331,0.244-6.537,2.232c-6.229,0.744-6.975,12.207-6.975,12.207s-2.136,0.096-1.661,3.999c0.447,3.69,2.811,6.453,4.361,6.453C21.188,36.241,25.326,47,32,47S42.812,36.241,42.812,36.241z"/>
<path d="M55,51.327c-2.339-1.171-6.673-2.826-13-4.327c-3.537,4.001-7.451,5-10,5s-6.463-0.999-10-5c-6.327,1.501-10.661,3.156-13,4.327C6.661,52.498,6,55.904,6,58c0,3,0.875,5,4,5h44c3.125,0,4-2,4-5C58,55.904,57.339,52.498,55,51.327z"/>
<path d="M77,17c0-0.83-0.337-1.581-0.882-2.124l-5.997-5.997c-1.171-1.172-3.071-1.172-4.242,0c-1.172,1.171-1.172,3.071,0,4.242L66.758,14H55c-1.657,0-3,1.343-3,3s1.343,3,3,3h11.758l-0.879,0.879c-1.172,1.171-1.172,3.071,0,4.242C66.464,25.707,67.232,26,68,26s1.536-0.293,2.121-0.879l5.997-5.997C76.663,18.581,77,17.83,77,17z"/>
<path d="M74,33H62.242l0.879-0.879c1.172-1.171,1.172-3.071,0-4.242c-1.171-1.172-3.071-1.172-4.242,0l-5.997,5.997C52.337,34.419,52,35.17,52,36s0.337,1.581,0.882,2.124l5.997,5.997C59.464,44.707,60.232,45,61,45s1.536-0.293,2.121-0.879c1.172-1.171,1.172-3.071,0-4.242L62.242,39H74c1.657,0,3-1.343,3-3S75.657,33,74,33z"/>
</g>
</svg>
