<?xml version="1.0" encoding="utf-8"?>
<svg version="1.1" xmlns="http://www.w3.org/2000/svg" xmlns:xlink="http://www.w3.org/1999/xlink" x="0px" y="0px" width="78" height="72" viewBox="0 0 78 72" enable-background="new 0 0 78 72" xml:space="preserve">
<g id="bounds"><rect opacity="0" width="78" height="72"/></g>
<g id="icon">
<path d="M42.812,36.241c1.55,0,3.915-2.763,4.361-6.453c0.475-3.903-1.66-3.999-1.66-3.999S45.219,11.35,32,11.35c-1.685,0-4.331,0.244-6.537,2.232c-6.229,0.744-6.975,12.207-6.975,12.207s-2.136,0.096-1.661,3.999c0.447,3.69,2.811,6.453,4.361,6.453C21.188,36.241,25.326,47,32,47S42.812,36.241,42.812,36.241z"/>
<path d="M55,51.327c-2.339-1.171-6.673-2.826-13-4.327c-3.537,4.001-7.451,5-10,5s-6.463-0.999-10-5c-6.327,1.501-10.661,3.156-13,4.327C6.661,52.498,6,55.904,6,58c0,3,0.875,5,4,5h44c3.125,0,4-2,4-5C58,55.904,57.339,52.498,55,51.327z"/>
<path d="M72,30h-5v-5c0-1.657-1.343-3-3-3c-1.657,0-3,1.343-3,3v5h-5c-1.657,0-3,1.343-3,3s1.343,3,3,3h5v5c0,1.657,1.343,3,3,3c1.657,0,3-1.343,3-3v-5h5c1.657,0,3-1.343,3-3S73.657,30,72,30z"/>
</g>
</svg>
