<?xml version="1.0" encoding="utf-8"?>
<svg version="1.1" xmlns="http://www.w3.org/2000/svg" xmlns:xlink="http://www.w3.org/1999/xlink" x="0px" y="0px" width="158" height="20" viewBox="0 0 158 20" enable-background="new 0 0 158 20" xml:space="preserve">
<g id="bounds"><rect opacity="0" width="158" height="20"/></g>
<g id="icon">
<path d="M1.289,9.333v3.992H0.002V4.311h3.412c0.876,0,1.443,0.219,1.88,0.592C5.835,5.367,6.183,6.05,6.183,6.822c0,0.773-0.348,1.455-0.889,1.919C4.857,9.115,4.29,9.333,3.414,9.333H1.289 M3.35,8.11c0.618,0,0.953-0.155,1.185-0.399c0.219-0.232,0.36-0.541,0.36-0.889c0-0.348-0.142-0.657-0.36-0.888C4.303,5.689,3.968,5.535,3.35,5.535H1.289V8.11H3.35z"/>
<path d="M9.505,7.144c1.79,0,3.13,1.352,3.13,3.155c0,1.803-1.339,3.155-3.13,3.155c-1.79,0-3.129-1.352-3.129-3.155C6.375,8.497,7.715,7.144,9.505,7.144 M9.505,12.296c1.12,0,1.906-0.889,1.906-1.996c0-1.108-0.786-1.996-1.906-1.996S7.599,9.192,7.599,10.3C7.599,11.407,8.384,12.296,9.505,12.296z"/>
<polyline points="18.531,7.273 20.192,11.407 21.853,7.273 23.115,7.273 20.656,13.326 19.806,13.326 18.106,9.076 16.406,13.326 15.556,13.326 13.097,7.273 14.359,7.273 16.02,11.407 17.681,7.273 18.531,7.273 "/>
<path d="M24.621,10.557c0.064,1.017,0.902,1.829,1.957,1.829c0.902,0,1.391-0.438,1.738-0.824l0.799,0.76c-0.451,0.579-1.314,1.133-2.55,1.133c-1.764,0-3.129-1.339-3.129-3.155c0-1.816,1.236-3.155,2.949-3.155c1.687,0,2.911,1.365,2.911,3.155c0,0.051,0,0.142-0.013,0.258H24.621 M24.724,9.527h3.297c-0.18-0.773-0.876-1.314-1.597-1.314C25.638,8.213,24.93,8.741,24.724,9.527z"/>
<path d="M33.789,8.355c-0.142-0.039-0.283-0.052-0.476-0.052c-0.631,0-1.301,0.438-1.636,1.018v4.005h-1.223V7.273h1.185v0.695c0.296-0.412,0.927-0.824,1.816-0.824c0.129,0,0.335,0.013,0.476,0.039L33.789,8.355"/>
<path d="M35.437,10.557c0.064,1.017,0.902,1.829,1.957,1.829c0.902,0,1.391-0.438,1.738-0.824l0.799,0.76c-0.451,0.579-1.313,1.133-2.55,1.133c-1.764,0-3.129-1.339-3.129-3.155c0-1.816,1.236-3.155,2.949-3.155c1.687,0,2.911,1.365,2.911,3.155c0,0.051,0,0.142-0.013,0.258H35.437 M35.54,9.527h3.297c-0.18-0.773-0.876-1.314-1.597-1.314C36.454,8.213,35.746,8.741,35.54,9.527z"/>
<path d="M46.073,12.772c-0.489,0.438-1.146,0.682-1.867,0.682c-0.541,0-1.108-0.154-1.52-0.399c-0.915-0.541-1.545-1.545-1.545-2.756c0-1.211,0.644-2.228,1.558-2.769c0.412-0.245,0.914-0.386,1.481-0.386c0.657,0,1.314,0.206,1.854,0.657V4.182h1.223v9.143h-1.185V12.772 M46.034,9.166c-0.373-0.489-0.992-0.863-1.726-0.863c-1.172,0-1.945,0.94-1.945,1.996c0,1.082,0.837,1.996,2.009,1.996c0.618,0,1.249-0.309,1.661-0.863V9.166z"/>
<path d="M53.85,13.326h-1.185V4.182h1.224v3.619c0.541-0.451,1.197-0.657,1.854-0.657c0.567,0,1.069,0.142,1.481,0.386c0.914,0.541,1.558,1.558,1.558,2.769c0,1.211-0.631,2.215-1.545,2.756c-0.412,0.245-0.979,0.399-1.52,0.399c-0.721,0-1.378-0.244-1.867-0.682V13.326 M53.889,11.433c0.412,0.554,1.043,0.863,1.661,0.863c1.172,0,2.009-0.914,2.009-1.996c0-1.056-0.772-1.996-1.945-1.996c-0.734,0-1.352,0.374-1.725,0.863V11.433z"/>
<polyline points="60.185,16.416 61.82,12.695 59.232,7.273 60.545,7.273 62.438,11.265 64.177,7.273 65.465,7.273 61.485,16.416 60.185,16.416 "/>
<polyline points="99.592,7.853 99.592,9.076 96.63,9.076 96.63,13.326 95.342,13.326 95.342,4.311 100.493,4.311 100.493,5.535 96.63,5.535 96.63,7.853 99.592,7.853 "/>
<path d="M103.815,7.144c1.79,0,3.13,1.352,3.13,3.155c0,1.803-1.339,3.155-3.13,3.155c-1.79,0-3.129-1.352-3.129-3.155C100.686,8.497,102.025,7.144,103.815,7.144 M103.815,12.296c1.12,0,1.906-0.889,1.906-1.996c0-1.108-0.785-1.996-1.906-1.996c-1.12,0-1.906,0.889-1.906,1.996C101.909,11.407,102.695,12.296,103.815,12.296z"/>
<path d="M108.656,12.437c-0.374-0.464-0.554-1.056-0.554-2.073V7.273h1.223v3.284c0,0.618,0.129,0.953,0.348,1.21c0.27,0.322,0.708,0.528,1.172,0.528c0.747,0,1.352-0.451,1.7-0.863v-4.16h1.223v6.052h-1.185v-0.554c-0.271,0.258-0.94,0.682-1.777,0.682C109.944,13.454,109.158,13.068,108.656,12.437"/>
<path d="M118.906,8.355c-0.142-0.039-0.283-0.052-0.476-0.052c-0.631,0-1.301,0.438-1.636,1.018v4.005h-1.223V7.273h1.185v0.695c0.297-0.412,0.927-0.824,1.816-0.824c0.129,0,0.335,0.013,0.477,0.039L118.906,8.355"/>
<path d="M120.386,11.716c0.567,0.438,1.185,0.67,1.79,0.67c0.528,0,1.056-0.283,1.056-0.76c0-0.695-1.005-0.734-1.893-1.03c-0.734-0.244-1.391-0.708-1.391-1.558c0-1.3,1.159-1.893,2.241-1.893c0.888,0,1.532,0.283,2.009,0.67l-0.631,0.876c-0.373-0.283-0.811-0.476-1.301-0.476c-0.592,0-1.095,0.283-1.095,0.76c0,0.412,0.476,0.554,1.082,0.708c0.953,0.245,2.202,0.67,2.202,1.919c0,1.146-1.069,1.854-2.254,1.854c-0.966,0-1.777-0.296-2.447-0.837L120.386,11.716"/>
<path d="M128.615,13.454c-0.541,0-1.108-0.154-1.52-0.399c-0.914-0.541-1.545-1.545-1.545-2.756c0-1.211,0.644-2.228,1.558-2.769c0.412-0.245,0.914-0.386,1.481-0.386c0.683,0,1.339,0.206,1.893,0.682V7.273h1.185v9.143h-1.224v-3.619C129.954,13.223,129.336,13.454,128.615,13.454 M130.443,9.166c-0.373-0.489-0.991-0.863-1.726-0.863c-1.172,0-1.944,0.94-1.944,1.996c0,1.082,0.837,1.996,2.009,1.996c0.618,0,1.249-0.309,1.661-0.863V9.166z"/>
<path d="M133.893,12.437c-0.374-0.464-0.554-1.056-0.554-2.073V7.273h1.224v3.284c0,0.618,0.128,0.953,0.347,1.21c0.271,0.322,0.708,0.528,1.172,0.528c0.747,0,1.352-0.451,1.7-0.863v-4.16h1.223v6.052h-1.185v-0.554c-0.271,0.258-0.94,0.682-1.777,0.682C135.181,13.454,134.396,13.068,133.893,12.437"/>
<path d="M145.225,12.772c-0.489,0.438-1.146,0.682-1.867,0.682c-0.541,0-1.107-0.154-1.52-0.399c-0.914-0.541-1.545-1.545-1.545-2.756c0-1.211,0.644-2.228,1.558-2.769c0.412-0.245,0.915-0.386,1.481-0.386c0.683,0,1.34,0.206,1.893,0.682V7.273h1.185v6.052h-1.185V12.772 M145.186,9.166c-0.373-0.489-0.992-0.863-1.725-0.863c-1.172,0-1.945,0.94-1.945,1.996c0,1.082,0.837,1.996,2.009,1.996c0.618,0,1.249-0.309,1.661-0.863V9.166z"/>
<path d="M151.418,8.355c-0.142-0.039-0.283-0.052-0.476-0.052c-0.631,0-1.301,0.438-1.636,1.018v4.005h-1.223V7.273h1.185v0.695c0.297-0.412,0.927-0.824,1.816-0.824c0.129,0,0.335,0.013,0.477,0.039L151.418,8.355"/>
<path d="M153.324,10.557c0.065,1.017,0.902,1.829,1.957,1.829c0.902,0,1.391-0.438,1.738-0.824l0.798,0.76c-0.451,0.579-1.313,1.133-2.55,1.133c-1.764,0-3.129-1.339-3.129-3.155c0-1.816,1.236-3.155,2.949-3.155c1.687,0,2.91,1.365,2.91,3.155c0,0.051,0,0.142-0.013,0.258H153.324 M153.426,9.527h3.297c-0.18-0.773-0.876-1.314-1.597-1.314C154.341,8.213,153.633,8.741,153.426,9.527z"/>
<path d="M86.48,0c0,0-9.194,0-10.667,0c-1.472,0-1.904,1.107-1.904,1.805c0,0.698,0,16.947,0,16.947c0,0.786,0.422,1.077,0.659,1.173c0.237,0.097,0.892,0.177,1.284-0.276c0,0,5.105-5.862,5.188-5.953c0.08-0.091,0.171-0.092,0.219-0.092s2.18,0,3.235,0c1.369,0,1.59-0.992,1.732-1.567c0.119-0.481,1.455-7.32,1.9-9.488C88.467,0.892,88.047,0,86.48,0 M86.226,12.037c0.119-0.481,1.455-7.32,1.9-9.488 M85.851,2.887L85.403,5.22c-0.053,0.253-0.302,0.491-0.596,0.491c-0.295,0-4.156-0.006-4.156-0.006c-0.468,0-0.872,0.352-0.872,0.819v0.509c0,0.467,0.382,0.849,0.85,0.849c0,0,3.196,0,3.525,0c0.33,0,0.608,0.311,0.537,0.664c-0.072,0.353-0.439,2.216-0.48,2.409c-0.04,0.193-0.247,0.455-0.577,0.455c-0.331,0-2.878,0-2.878,0c-0.598,0.019-0.726,0.023-1.077,0.459c-0.351,0.436-3.505,4.223-3.505,4.223c-0.031,0.037-0.062,0.026-0.062-0.014V2.852c0-0.298,0.259-0.648,0.648-0.648c0,0,8.227,0,8.561,0C85.637,2.204,85.93,2.5,85.851,2.887z"/>
</g>
</svg>
