<?xml version="1.0" encoding="utf-8"?>
<svg version="1.1" xmlns="http://www.w3.org/2000/svg" xmlns:xlink="http://www.w3.org/1999/xlink" x="0px" y="0px" width="96" height="72" viewBox="0 0 96 72" enable-background="new 0 0 96 72" xml:space="preserve">
<g id="bounds"><rect opacity="0" width="96" height="72"/></g>
<g id="icon">
<polygon points="66.097,56.08 75.88,56.08 75.88,43.848 90.555,43.848 90.555,34.065 75.88,34.065 75.88,26.729 93,26.729 93,16.946 66.097,16.946"/>
<rect x="46.529" y="16.949" width="9.784" height="39.134"/>
<path d="M22.568,16.946C11.782,16.946,3,25.724,3,36.513s8.78,19.566,19.568,19.566c5.848,0,11.087-2.589,14.675-6.667V34.065H20.121v7.34h7.337v3.533c-1.445,0.841-3.1,1.359-4.891,1.359c-5.393,0-9.784-4.388-9.784-9.784s4.39-9.784,9.784-9.784c2.723,0,5.255,1.156,7.103,3.126l7.571-6.058v-0.187C33.521,19.383,28.229,16.946,22.568,16.946z"/>
</g>
</svg>
