<?xml version="1.0" encoding="utf-8"?>
<svg version="1.1" xmlns="http://www.w3.org/2000/svg" xmlns:xlink="http://www.w3.org/1999/xlink" x="0px" y="0px" width="20" height="20" viewBox="0 0 20 20" enable-background="new 0 0 20 20" xml:space="preserve">
<g id="bounds"><rect opacity="0" width="20" height="20"/></g>
<g id="icon">
<path fill="#242326" d="M10,0C4.477,0,0,4.477,0,10c0,5.523,4.477,10,10,10c5.523,0,10-4.477,10-10C20,4.477,15.523,0,10,0z"/>
<rect fill="#00FF99" x="5.598" y="5.252" width="1.333" height="9.333"/>
<polygon fill="#9933FF" points="13.598,14.586 14.931,14.586 14.931,7.921 13.598,9.254"/>
<rect fill="#9933FF" x="13.598" y="7.919" width="1.333" height="0.002"/>
<polygon fill="#00CCFF" points="6.931,14.586 5.598,14.586 5.598,14.86 5.598,15.919 14.931,15.919 14.931,14.86 14.931,14.586 13.598,14.586"/>
<polygon fill="#FFF35C" points="9.598,5.252 10.931,3.919 5.598,3.919 5.598,4.978 5.598,5.252 6.931,5.252"/>
<polygon fill="#FF6666" points="13.598,5.252 12.264,5.252 12.264,3.919 10.931,3.919 10.931,5.252 10.931,5.254 10.931,6.583 10.931,6.586 10.931,7.919 12.268,7.919 13.598,7.919 14.931,7.919 14.931,7.644 14.931,6.586 13.598,6.586 	"/>
<polygon fill="#9933FF" points="13.598,9.254 14.931,7.921 13.598,7.921"/>
<polygon fill="#0F0F0F" opacity="0.4" points="13.598,9.254 14.931,7.921 13.598,7.921"/>
<polygon fill="#FFF35C" points="10.931,5.252 10.931,3.919 9.598,5.252"/>
<polygon fill="#0F0F0F" opacity="0.4" points="10.931,5.252 10.931,3.919 9.598,5.252"/>
</g>
</svg>
