<?xml version="1.0" encoding="utf-8"?>
<svg version="1.1" xmlns="http://www.w3.org/2000/svg" xmlns:xlink="http://www.w3.org/1999/xlink" x="0px" y="0px" width="60" height="72" viewBox="0 0 60 72" enable-background="new 0 0 60 72" xml:space="preserve">
<g id="bounds"><rect opacity="0" width="60" height="72"/></g>
<g id="icon">
<path d="M30,9C15.088,9,3,21.088,3,35.999C3,50.911,15.088,63,30,63c14.914,0,27-12.089,27-27.001C57,21.088,44.915,9,30,9z M33,42c-0.525,0.504-3.041,2.801-3.582,3.572c-0.543,0.772-4.871,10.488-5.387,10.49c-0.514,0.002-1.588-1.447-1.871-2.177c-0.285-0.729-1.102-10.317-1.521-10.961c-0.42-0.643-2.895-2.108-3.281-2.642c-0.389-0.533-1.42-3.566-1.357-4.159c0.062-0.593,1.266-2.589,0.961-3.122c-0.305-0.533-5.676-2.655-6.711-3.033c-1.033-0.378-2.527-0.858-2.527-0.858c2.91-9.393,11.611-16.248,21.906-16.411c0,0,0.324-0.043,0.48,0.363c0.283,0.735,0.66,2.771,0.236,3.459c-0.365,0.594-5.682,2.544-7.939,3.791c-2.256,1.247-3.141,1.478-3.82,2.208c-0.68,0.729-1.707,4.107-2.162,4.402s-3.76,0.396-3.76,0.396s5.523,4.306,7.336,4.712c1.812,0.406,6.242-0.541,7.121-0.364s5.441,4.295,5.977,5.333C33.635,38.038,33.526,41.496,33,42z M51.063,41.5c-0.545-0.981-3.145-6.041-4.098-6.898c-0.596-0.534-5.658-2.346-6.561-2.802c-0.904-0.456-3.234-2.564-3.256-3.119c-0.023-0.556,2.867-3.095,2.961-3.92c0.141-1.261-4.842-4.715-4.881-5.279c-0.039-0.564,0.377-1.7,0.801-2.081c1.033-0.932,8.199,0.1,9.141,0.927c5.143,4.517,8.15,10.607,8.15,17.672c0,1.998-0.465,4.92-0.727,5.61C52.391,42.147,51.454,42.203,51.063,41.5z"/>
<path opacity="0" d="M45.17,18.327c-0.941-0.827-8.107-1.858-9.141-0.927c-0.424,0.381-0.84,1.517-0.801,2.081c0.039,0.565,5.021,4.019,4.881,5.279c-0.094,0.825-2.984,3.364-2.961,3.92c0.021,0.556,2.352,2.663,3.256,3.119c0.902,0.456,5.965,2.268,6.561,2.802c0.953,0.857,3.553,5.917,4.098,6.898c0.391,0.703,1.328,0.647,1.531,0.109c0.262-0.69,0.727-3.612,0.727-5.61C53.321,28.934,50.313,22.844,45.17,18.327z"/>
<path opacity="0" d="M27.122,31.667c-0.879-0.177-5.309,0.771-7.121,0.364c-1.812-0.406-7.336-4.712-7.336-4.712s3.305-0.1,3.76-0.396s1.482-3.673,2.162-4.402c0.68-0.73,1.564-0.961,3.82-2.208c2.258-1.247,7.574-3.197,7.939-3.791c0.424-0.688,0.047-2.724-0.236-3.459c-0.156-0.406-0.48-0.363-0.48-0.363C19.334,12.862,10.633,19.718,7.723,29.11c0,0,1.494,0.48,2.527,0.858c1.035,0.378,6.406,2.5,6.711,3.033c0.305,0.533-0.898,2.529-0.961,3.122c-0.062,0.593,0.969,3.626,1.357,4.159c0.387,0.533,2.861,1.998,3.281,2.642c0.42,0.644,1.236,10.232,1.521,10.961c0.283,0.729,1.357,2.179,1.871,2.177c0.516-0.002,4.844-9.719,5.387-10.49C29.959,44.801,32.475,42.504,33,42s0.635-3.962,0.098-5C32.563,35.962,28,31.844,27.122,31.667z"/>
</g>
</svg>
