<?xml version="1.0" encoding="utf-8"?>
<svg version="1.1" xmlns="http://www.w3.org/2000/svg" xmlns:xlink="http://www.w3.org/1999/xlink" x="0px" y="0px" width="56" height="72" viewBox="0 0 56 72" enable-background="new 0 0 56 72" xml:space="preserve">
<g id="bounds"><rect opacity="0" width="56" height="72"/></g>
<g id="icon">
<path d="M25,29.333C25,31.358,23.358,33,21.333,33H6.667C4.642,33,3,31.358,3,29.333V14.667C3,12.642,4.642,11,6.667,11h14.667C23.358,11,25,12.642,25,14.667V29.333z"/>
<path d="M53,29.333C53,31.358,51.358,33,49.333,33H34.667C32.642,33,31,31.358,31,29.333V14.667C31,12.642,32.642,11,34.667,11h14.667C51.358,11,53,12.642,53,14.667V29.333z"/>
<path d="M25,57.333C25,59.358,23.358,61,21.333,61H6.667C4.642,61,3,59.358,3,57.333V42.667C3,40.642,4.642,39,6.667,39h14.667C23.358,39,25,40.642,25,42.667V57.333z"/>
<path d="M53,57.333C53,59.358,51.358,61,49.333,61H34.667C32.642,61,31,59.358,31,57.333V42.667C31,40.642,32.642,39,34.667,39h14.667C51.358,39,53,40.642,53,42.667V57.333z"/>
</g>
</svg>
