<?xml version="1.0" encoding="utf-8"?>
<svg version="1.1" xmlns="http://www.w3.org/2000/svg" xmlns:xlink="http://www.w3.org/1999/xlink" x="0px" y="0px" width="54" height="72" viewBox="0 0 54 72" enable-background="new 0 0 54 72" xml:space="preserve">
<g id="bounds"><rect opacity="0" width="54" height="72"/></g>
<g id="icon">
<path d="M33.906,48.773c2.753-0.153,4.868-2.517,4.715-5.269L36.959,13.55c-0.148-2.659-2.358-4.723-4.99-4.723c-0.093,0-0.186,0.003-0.28,0.008L9.723,10.054c-2.753,0.153-4.868,2.517-4.715,5.269L6.67,45.277C6.818,47.936,9.028,50,11.659,50c0.093,0,0.186-0.003,0.28-0.008L33.906,48.773z"/>
<path d="M50.311,24.979c-0.848-1.033-2.047-1.673-3.376-1.803l-5.465-0.536l0.336,6.061l2.553,0.25l0,0c0.55,0.054,0.952,0.543,0.898,1.093L42.72,55.922l0,0c-0.054,0.55-0.543,0.952-1.093,0.898v0l-17.914-1.756l0,0c-0.55-0.054-0.952-0.543-0.898-1.093l0.057-0.578l-6.062,0.336l-0.161,1.647c-0.13,1.328,0.265,2.629,1.112,3.661c0.848,1.033,2.047,1.673,3.376,1.803l21.896,2.146c0.164,0.017,0.327,0.024,0.489,0.024c2.583,0,4.722-1.939,4.975-4.512l2.927-29.857C51.553,27.312,51.158,26.012,50.311,24.979z"/>
</g>
</svg>
