<?xml version="1.0" encoding="utf-8"?>
<svg version="1.1" xmlns="http://www.w3.org/2000/svg" xmlns:xlink="http://www.w3.org/1999/xlink" x="0px" y="0px" width="60" height="72" viewBox="0 0 60 72" enable-background="new 0 0 60 72" xml:space="preserve">
<g id="bounds"><rect opacity="0" width="60" height="72"/></g>
<g id="icon">
<circle fill="#FFFFFF" cx="30" cy="36" r="25"/>
<path d="M29.876,8.942c-14.888,0-27,12.112-27,27s12.112,27,27,27s27-12.112,27-27S44.764,8.942,29.876,8.942z M22.438,43.083c-1.272,0-2.34-0.998-2.412-2.283l-0.803-14.479c-0.074-1.33,0.948-2.473,2.279-2.547l9.829-0.548c0.045-0.002,0.09-0.004,0.135-0.004c1.272,0,2.34,0.998,2.412,2.283l0.803,14.479c0.074,1.33-0.948,2.473-2.279,2.547l-9.83,0.548C22.528,43.081,22.483,43.083,22.438,43.083z M39.456,47.231c-0.122,1.244-1.156,2.181-2.405,2.181c-0.078,0-0.157-0.003-0.236-0.012l-9.516-0.966c-0.642-0.063-1.222-0.372-1.632-0.872c-0.409-0.499-0.6-1.128-0.537-1.77l0.031-0.313l2.974-0.166c0.059,0.175,0.214,0.309,0.41,0.328l7.591,0.778c0.266,0.026,0.502-0.168,0.528-0.434l1.226-12.508c0.026-0.266-0.168-0.502-0.434-0.528l-0.622-0.061l-0.162-2.93l2.029,0.199c0.642,0.063,1.222,0.372,1.632,0.872c0.409,0.499,0.6,1.128,0.538,1.77L39.456,47.231z"/>
</g>
</svg>
