<?xml version="1.0" encoding="utf-8"?>
<svg version="1.1" xmlns="http://www.w3.org/2000/svg" xmlns:xlink="http://www.w3.org/1999/xlink" x="0px" y="0px" width="50" height="56" viewBox="0 0 50 56" enable-background="new 0 0 50 56" xml:space="preserve">
<g id="bounds"><rect opacity="0" width="50" height="56"/></g>
<g id="icon">
<path d="M46.804,26.285L26.582,7.63c-0.894-0.825-2.27-0.825-3.164,0L3.196,26.285c-0.947,0.874-1.007,2.35-0.133,3.297c0.874,0.946,2.35,1.008,3.297,0.133l1.761-1.625l5.296,19.198c0.279,1.012,1.2,1.713,2.249,1.713h18.667c1.05,0,1.97-0.701,2.249-1.713l5.296-19.198l1.761,1.625c0.449,0.414,1.016,0.618,1.581,0.618c0.629,0,1.256-0.253,1.716-0.751C47.811,28.635,47.752,27.158,46.804,26.285z M25,41.222c-1.289,0-2.333-1.044-2.333-2.333c0-1.288,1.044-2.333,2.333-2.333s2.333,1.045,2.333,2.333C27.333,40.179,26.289,41.222,25,41.222z M25,31.887c-3.007,0-5.444-2.437-5.444-5.443C19.556,23.437,21.993,21,25,21s5.444,2.437,5.444,5.444C30.444,29.451,28.007,31.887,25,31.887z"/>
</g>
</svg>
