<?xml version="1.0" encoding="utf-8"?>
<svg version="1.1" xmlns="http://www.w3.org/2000/svg" xmlns:xlink="http://www.w3.org/1999/xlink" x="0px" y="0px" width="200" height="200" viewBox="0 0 200 200" enable-background="new 0 0 200 200" xml:space="preserve">
<circle fill="#97E3FF" cx="100" cy="100" r="100"/>
<path fill="#005FD1" d="M57.575,121.5h29.408l25.142,28.858h16.367c0,0,6.425-12.867,6.425-50.133H52.042C52.042,116.042,57.575,121.5,57.575,121.5z"/>
<path fill="#1DA1F2" d="M112.125,50.092L86.983,78.95H57.575c0,0-5.533,5.458-5.533,21.275h82.875c0-37.267-6.425-50.133-6.425-50.133S112.125,50.092,112.125,50.092z"/>
<ellipse fill="#97E3FF" cx="123.283" cy="100.225" rx="6.567" ry="45.075"/>
<path fill="#71C9F8" d="M147.408,146.8L48.225,59.867c-2.425-2.125-2.667-5.817-0.542-8.242l0,0c2.125-2.425,5.817-2.667,8.242-0.542l99.183,86.925c2.425,2.125,2.667,5.817,0.542,8.242l0,0C153.525,148.675,149.833,148.925,147.408,146.8z"/>
<path fill="#005FD1" d="M94.275,100.225h-7.058l30.808,27c-0.233-2.108-0.433-4.35-0.608-6.717L94.275,100.225z"/>
<path fill="#005FD1" d="M128.217,129.975c-0.25,1.983-0.533,3.808-0.833,5.458l4.325,3.792c0.325-1.592,0.65-3.375,0.958-5.35L128.217,129.975z"/>
<polygon fill="#005FD1" points="94.275,100.225 70,78.958 62.942,78.958 87.217,100.225 "/>
<path fill="#1DA1F2" d="M118.025,127.225l9.358,8.208c0.3-1.65,0.575-3.475,0.833-5.458l-10.8-9.467C117.592,122.875,117.792,125.125,118.025,127.225z"/>
</svg>
