<?xml version="1.0" encoding="utf-8"?>
<svg version="1.1" xmlns="http://www.w3.org/2000/svg" xmlns:xlink="http://www.w3.org/1999/xlink" x="0px" y="0px" width="200" height="200" viewBox="0 0 200 200" enable-background="new 0 0 200 200" xml:space="preserve">
<circle fill="#97E3FF" cx="100" cy="100" r="100"/>
<path fill="#005FD1" d="M100,42.133c-31.958,0-57.867,25.908-57.867,57.867S68.042,157.867,100,157.867V42.133z"/>
<path fill="#1DA1F2" d="M100,42.133v115.725c31.958,0,57.867-25.908,57.867-57.867S131.958,42.133,100,42.133z"/>
<path fill="#97E3FF" d="M100,118.825v21.508c5.942,0,10.758-4.817,10.758-10.758C110.758,123.633,105.942,118.825,100,118.825z"/>
<path fill="#71C9F8" d="M89.242,129.575c0,5.933,4.808,10.758,10.758,10.758v-21.508C94.058,118.825,89.242,123.633,89.242,129.575z"/>
<path fill="#97E3FF" d="M105.242,109.283c3.742-16.225,8.2-36.133,8.2-38.858c0-5.342-4.617-10.758-13.442-10.758v53.783C102.508,113.45,104.675,111.717,105.242,109.283z"/>
<path fill="#71C9F8" d="M86.558,70.425c0,2.725,4.458,22.633,8.2,38.858c0.567,2.442,2.733,4.167,5.242,4.167V59.667C91.175,59.667,86.558,65.075,86.558,70.425z"/>
</svg>
