<?xml version="1.0" encoding="utf-8"?>
<svg version="1.1" xmlns="http://www.w3.org/2000/svg" xmlns:xlink="http://www.w3.org/1999/xlink" x="0px" y="0px" width="200" height="200" viewBox="0 0 200 200" enable-background="new 0 0 200 200" xml:space="preserve">
<circle fill="#97E3FF" cx="100" cy="100" r="100"/>
<polygon fill="#005FD1" points="87.725,96.742 100,96.742 100,92.275 82.633,92.275"/>
<polygon fill="#005FD1" points="94.758,102.908 100,102.908 100,99.292 90.633,99.292"/>
<path fill="#005FD1" d="M58.767,66.967h11.017c1.5,0,2.717,1.217,2.717,2.717v11.375c0,0.675-0.25,1.292-0.65,1.767l7.875,6.908H100V71.817H77.383V69.25H100v-11H48.8c-1.058,0-1.917,0.858-1.917,1.917v0.783l9.242,8.1C56.417,67.85,57.483,66.967,58.767,66.967zM77.383,74.625h21.05v2.55h-21.05V74.625z"/>
<polygon fill="#005FD1" points="100,107.5 100,105.458 97.675,105.458"/>
<path fill="#005FD1" d="M95.05,132.042c-0.692,0-1.242-0.558-1.242-1.242v-4.983h-2.183c-0.35,0-0.675-0.2-0.833-0.508c-0.158-0.317-0.125-0.692,0.083-0.975l3.425-4.667c0.175-0.242,0.458-0.383,0.75-0.383c0.3,0,0.575,0.142,0.75,0.383l3.425,4.667c0.208,0.283,0.242,0.658,0.083,0.975s-0.483,0.508-0.833,0.508h-2.183v3.433c0.008,0.167,0.142,0.3,0.308,0.3h3.4v-7.842c-0.517-0.15-0.9-0.625-0.9-1.192c0-0.567,0.383-1.042,0.9-1.192v-5.992l-1.917-1.667H56.05v-2.55h39.125l-4.167-3.65H56.05v-2.55h32.042L83.967,99.3H56.05v-2.55h25.008l-5.092-4.467H56.05v-2.55h17l-6.792-5.958h-7.492c-1.5,0-2.717-1.217-2.717-2.717v-6.233l-9.167-8.033v73.05c0,1.058,0.858,1.917,1.917,1.917H100v-9.708h-4.95V132.042z M73.033,131.067c-0.742,0-1.342-0.6-1.342-1.342c0-1.85-1.508-3.358-3.358-3.358H65.3v4.033c0,0.383-0.217,0.733-0.558,0.9c-0.142,0.067-0.292,0.108-0.45,0.108c-0.217,0-0.433-0.067-0.608-0.208l-7.058-5.375c-0.25-0.192-0.4-0.483-0.4-0.8s0.15-0.608,0.4-0.8l7.058-5.375c0.308-0.233,0.717-0.275,1.058-0.1c0.342,0.167,0.558,0.517,0.558,0.9v4.033h3.025c3.333,0,6.05,2.717,6.05,6.05C74.375,130.467,73.775,131.067,73.033,131.067z"/>
<polygon fill="#005FD1" points="82.633,92.275 75.967,92.275 81.058,96.742 87.725,96.742"/>
<polygon fill="#005FD1" points="91.008,105.458 95.175,109.108 100,109.108 100,107.5 97.675,105.458"/>
<path fill="#005FD1" d="M71.842,82.817c-0.5,0.583-1.233,0.95-2.058,0.95h-3.525l6.792,5.958h6.667L71.842,82.817z"/>
<polygon fill="#005FD1" points="100,113.342 100,111.667 98.083,111.667"/>
<polygon fill="#005FD1" points="90.633,99.292 83.967,99.292 88.092,102.908 94.758,102.908"/>
<path fill="#005FD1" d="M56.05,69.683c0-0.217,0.025-0.433,0.075-0.633l-9.233-8.1v5.842l9.167,8.033v-5.142H56.05z"/>
<path fill="#1DA1F2" d="M108.75,125.5h2.183c0.35,0,0.675,0.2,0.833,0.508c0.158,0.317,0.125,0.692-0.083,0.975l-3.425,4.675c-0.175,0.242-0.458,0.383-0.75,0.383c-0.3,0-0.575-0.142-0.75-0.383l-3.425-4.675c-0.208-0.283-0.242-0.658-0.083-0.975c0.158-0.317,0.483-0.508,0.833-0.508h2.183v-3.425c0-0.175-0.142-0.308-0.308-0.308h-5.608c-0.117,0-0.233-0.025-0.342-0.05v7.842h2.208c0.692,0,1.242,0.558,1.242,1.242c0,0.692-0.558,1.242-1.242,1.242H100v9.708h32.417l-23.667-20.742V125.5z"/>
<path fill="#1DA1F2" d="M151.2,58.25H100v11h21.833v2.55H100v17.917h43.95v2.55H100v4.467h43.95v2.55H100v3.617h43.95v2.55H100v2.05l1.842,1.617h15.467v2.55H104.75l34.325,30.083h12.117c1.058,0,1.917-0.858,1.917-1.917V60.167C153.108,59.108,152.25,58.25,151.2,58.25z M133.417,132.892c-1.675-0.033-7.717-5.267-7.717-10.308c0-2.133,1.725-4.158,3.858-4.158c2.375,0,3.667,2.4,3.85,2.675c0.183-0.275,1.492-2.675,3.85-2.675c2.133,0,3.858,2.025,3.858,4.158C141.125,127.617,135.092,132.858,133.417,132.892z"/>
<path fill="#1DA1F2" d="M100.342,119.275h6.433L100,113.342v5.992C100.108,119.3,100.225,119.275,100.342,119.275z"/>
<polygon fill="#1DA1F2" points="101.842,109.108 100,107.5 100,109.108"/>
<path fill="#005FD1" d="M100,111.667v1.675l6.775,5.933h0.725c0.692,0,1.242,0.558,1.242,1.242V121l23.667,20.742h6.667l-34.325-30.075H100z"/>
<rect x="100" y="69.25" fill="#71C9F8" width="21.833" height="2.55"/>
<rect x="100" y="89.717" fill="#71C9F8" width="43.95" height="2.55"/>
<rect x="100" y="96.742" fill="#71C9F8" width="43.95" height="2.55"/>
<rect x="100" y="102.908" fill="#71C9F8" width="43.95" height="2.55"/>
<polygon fill="#71C9F8" points="117.308,111.667 117.308,109.108 101.842,109.108 104.75,111.667"/>
<polygon fill="#1DA1F2" points="100,111.667 104.75,111.667 101.842,109.108 100,109.108"/>
<path fill="#71C9F8" d="M100,119.333v2.383c0.108,0.033,0.225,0.05,0.342,0.05h5.608c0.175,0,0.308,0.142,0.308,0.308v3.425h-2.183c-0.35,0-0.675,0.2-0.833,0.508c-0.158,0.317-0.125,0.692,0.083,0.975l3.425,4.675c0.175,0.242,0.458,0.383,0.75,0.383c0.3,0,0.575-0.142,0.75-0.383l3.425-4.675c0.208-0.283,0.242-0.658,0.083-0.975c-0.158-0.317-0.483-0.508-0.833-0.508h-2.175V121l-1.975-1.733h-6.433C100.225,119.275,100.108,119.3,100,119.333z"/>
<path fill="#1DA1F2" d="M108.75,120.525c0-0.692-0.558-1.242-1.242-1.242h-0.733l1.975,1.733V120.525z"/>
<path fill="#71C9F8" d="M102.208,132.042c0.692,0,1.242-0.558,1.242-1.242c0-0.692-0.558-1.242-1.242-1.242H100v2.492h2.208V132.042z"/>
<rect x="77.383" y="69.25" fill="#1DA1F2" width="22.617" height="2.55"/>
<rect x="77.383" y="74.625" fill="#1DA1F2" width="21.05" height="2.55"/>
<polygon fill="#1DA1F2" points="56.05,89.717 56.05,92.275 75.967,92.275 73.05,89.717"/>
<polygon fill="#1DA1F2" points="82.633,92.275 100,92.275 100,89.717 79.717,89.717"/>
<polygon fill="#005FD1" points="79.717,89.717 73.05,89.717 75.967,92.275 82.633,92.275"/>
<polygon fill="#1DA1F2" points="90.633,99.292 100,99.292 100,96.742 87.725,96.742"/>
<polygon fill="#1DA1F2" points="56.05,96.742 56.05,99.292 83.967,99.292 81.058,96.742"/>
<polygon fill="#005FD1" points="87.725,96.742 81.058,96.742 83.967,99.292 90.633,99.292"/>
<polygon fill="#1DA1F2" points="56.05,102.908 56.05,105.458 91.008,105.458 88.092,102.908"/>
<polygon fill="#1DA1F2" points="97.675,105.458 100,105.458 100,102.908 94.758,102.908"/>
<polygon fill="#005FD1" points="94.758,102.908 88.092,102.908 91.008,105.458 97.675,105.458"/>
<polygon fill="#1DA1F2" points="56.05,109.108 56.05,111.667 98.083,111.667 95.175,109.108"/>
<polygon fill="#005FD1" points="95.175,109.108 98.083,111.667 100,111.667 100,109.108"/>
<path fill="#1DA1F2" d="M72.492,81.05V69.683c0-1.5-1.217-2.717-2.717-2.717H58.767c-1.283,0-2.35,0.883-2.633,2.083l15.708,13.767C72.25,82.342,72.492,81.725,72.492,81.05z"/>
<path fill="#1DA1F2" d="M56.05,81.05c0,1.5,1.217,2.717,2.717,2.717h7.492L56.05,74.825V81.05z"/>
<path fill="#005FD1" d="M71.842,82.817L56.133,69.05c-0.05,0.2-0.083,0.408-0.083,0.633v5.142l10.208,8.942h3.525C70.608,83.767,71.342,83.4,71.842,82.817z"/>
<path fill="#1DA1F2" d="M68.325,123.675H65.3v-4.033c0-0.383-0.217-0.733-0.558-0.9c-0.342-0.167-0.75-0.133-1.058,0.1l-7.058,5.375c-0.25,0.192-0.4,0.483-0.4,0.8c0,0.317,0.15,0.608,0.4,0.8l7.058,5.375c0.175,0.133,0.392,0.208,0.608,0.208c0.15,0,0.308-0.033,0.45-0.108c0.342-0.167,0.558-0.517,0.558-0.9v-4.033h3.025c1.85,0,3.358,1.508,3.358,3.358c0,0.742,0.6,1.342,1.342,1.342s1.342-0.6,1.342-1.342C74.375,126.392,71.658,123.675,68.325,123.675z"/>
<path fill="#1DA1F2" d="M99.092,120.525c0,0.567,0.383,1.042,0.9,1.192v-2.383C99.475,119.475,99.092,119.95,99.092,120.525z"/>
<path fill="#1DA1F2" d="M96.292,129.25v-3.433h2.183c0.35,0,0.675-0.2,0.833-0.508c0.158-0.317,0.125-0.692-0.083-0.975l-3.425-4.667c-0.175-0.242-0.458-0.383-0.75-0.383c-0.3,0-0.575,0.142-0.75,0.383l-3.425,4.667c-0.208,0.283-0.242,0.658-0.083,0.975s0.483,0.508,0.833,0.508h2.183v4.983c0,0.692,0.558,1.242,1.242,1.242H100v-2.492h-3.392C96.433,129.55,96.3,129.417,96.292,129.25z"/>
<path fill="#71C9F8" d="M137.267,118.425c-2.358,0-3.667,2.4-3.85,2.675c-0.183-0.275-1.475-2.675-3.85-2.675c-2.133,0-3.858,2.025-3.858,4.158c0,5.033,6.033,10.275,7.717,10.308c1.683-0.033,7.717-5.267,7.717-10.308C141.125,120.458,139.4,118.425,137.267,118.425z"/>
<path fill="#71C9F8" d="M145.35,147.25L46.175,60.317c-2.425-2.125-2.675-5.817-0.542-8.242l0,0c2.125-2.425,5.817-2.667,8.242-0.542l99.183,86.925c2.425,2.125,2.667,5.817,0.542,8.242l0,0C151.467,149.133,147.775,149.375,145.35,147.25z"/>
</svg>
