<?xml version="1.0" encoding="utf-8"?>
<svg version="1.1" xmlns="http://www.w3.org/2000/svg" xmlns:xlink="http://www.w3.org/1999/xlink" x="0px" y="0px" width="200" height="200" viewBox="0 0 200 200" enable-background="new 0 0 200 200" xml:space="preserve">
<circle fill="#97E3FF" cx="100" cy="100" r="100"/>
<path fill="#1DA1F2" d="M126.381,46.205v58.796c-18.69,0-33.842-13.162-33.842-29.398S107.69,46.205,126.381,46.205z"/>
<path fill="#005FD1" d="M160.222,75.603c0,1.76-0.179,3.483-0.52,5.158c-0.28,1.373-0.671,2.713-1.162,4.013c-2.076,5.496-5.965,10.277-11.055,13.809c0.324,3.685,2.232,6.924,5.054,9.058c-1.488,0.45-3.065,0.695-4.699,0.695c-4.429,0-8.442-1.779-11.378-4.661c-3.185,0.862-6.571,1.327-10.082,1.327V46.205C145.071,46.205,160.222,59.367,160.222,75.603z"/>
<path fill="#005FD1" d="M81.249,77.107v71.908c22.858,0,41.388-16.097,41.388-35.954S104.107,77.107,81.249,77.107z"/>
<path fill="#1DA1F2" d="M39.861,113.061c0,2.152,0.218,4.26,0.636,6.308c0.342,1.679,0.82,3.318,1.421,4.908c2.538,6.722,7.295,12.569,13.52,16.889c-0.396,4.507-2.73,8.468-6.181,11.078c1.82,0.55,3.748,0.85,5.747,0.85c5.416,0,10.325-2.176,13.915-5.701c3.895,1.055,8.036,1.623,12.331,1.623V77.107C58.391,77.107,39.861,93.204,39.861,113.061z"/>
<path fill="#71C9F8" d="M114.429,151L36.646,82.825c-1.902-1.667-2.093-4.561-0.426-6.464l0,0c1.667-1.902,4.561-2.093,6.464-0.426l77.783,68.175c1.902,1.667,2.093,4.561,0.426,6.464h0C119.226,152.477,116.332,152.668,114.429,151z"/>
<path fill="#005FD1" d="M81.249,121.919v5.155l19.956,17.491c1.255-0.601,2.469-1.257,3.64-1.965L81.249,121.919z"/>
<path fill="#005FD1" d="M81.249,121.919L47.455,92.3c-0.825,1.011-1.589,2.062-2.292,3.146l36.086,31.628V121.919z"/>
</svg>
