<?xml version="1.0" encoding="utf-8"?>
<svg version="1.1" xmlns="http://www.w3.org/2000/svg" xmlns:xlink="http://www.w3.org/1999/xlink" x="0px" y="0px" width="200" height="200" viewBox="0 0 200 200" enable-background="new 0 0 200 200" xml:space="preserve">
<circle fill="#97E3FF" cx="100" cy="100" r="100"/>
<path fill="#1DA1F2" d="M100 49.047v96.438c30.656 0 55.507-21.588 55.507-48.22S130.657 49.048 100 49.048z"/>
<path fill="#005FD1" d="M44.493 97.266c0 2.886.293 5.713.852 8.46.46 2.25 1.1 4.448 1.906 6.58 3.405 9.016 9.785 16.858 18.133 22.65-.53 6.045-3.66 11.358-8.29 14.858 2.44.738 5.027 1.14 7.707 1.14 7.264 0 13.847-2.92 18.662-7.647 5.223 1.414 10.778 2.177 16.537 2.177V49.047c-30.656 0-55.507 21.588-55.507 48.22z"/>
<path fill="#71C9F8" d="M94.542 103.492l-6.136-6.136c-2.128-2.13-5.582-2.13-7.71 0-2.13 2.128-2.13 5.582 0 7.71L91.6 115.97c1.064 1.066 2.46 1.598 3.855 1.598 1.42 0 2.98-.596 3.855-1.597.197-.225.43-.532.69-.9V95.056l-5.458 8.435z"/>
<path fill="#97E3FF" d="M118.412 76.64c-2.532-1.638-5.904-.91-7.54 1.615L100 95.057v20.013c.753-1.068 1.75-2.663 2.867-4.373 5.537-8.463 17.16-26.516 17.16-26.516 1.636-2.53.913-5.903-1.615-7.54z"/>
</svg>
