<?xml version="1.0" encoding="utf-8"?>
<svg version="1.1" xmlns="http://www.w3.org/2000/svg" xmlns:xlink="http://www.w3.org/1999/xlink" x="0px" y="0px" width="76" height="76" viewBox="0 0 76 76" enable-background="new 0 0 76 76" xml:space="preserve">
<g id="bounds"><rect opacity="0" width="76" height="76"/></g>
<g id="icon">
<path fill="#FFCC4D" d="M74,38c0,19.883-16.117,36-36,36C18.119,74,2,57.883,2,38C2,18.119,18.119,2,38,2C57.883,2,74,18.119,74,38"/>
<path fill="#664500" d="M38,45.697c-5.932,0-9.871-0.692-14.739-1.639c-1.113-0.213-3.277,0-3.277,3.275c0,6.551,7.527,14.739,18.013,14.739c10.488,0,18.013-8.188,18.013-14.739c0-3.275-2.164-3.49-3.277-3.275C47.871,45.005,43.933,45.697,38,45.697"/>
<path fill="#E75A70" d="M35.301,8.561C33.584,3.7,28.252,1.146,23.39,2.862c-2.953,1.041-5.041,3.422-5.856,6.209c-2.383-1.659-5.502-2.2-8.449-1.161c-4.862,1.716-7.416,7.049-5.699,11.912c0.244,0.688,0.568,1.326,0.944,1.916c3.901,7.162,15.175,12.198,22.002,12.261c5.273-4.333,10.892-15.329,9.436-23.353C35.689,9.95,35.54,9.251,35.301,8.561z"/>
<path fill="#E75A70" d="M40.698,8.561c1.719-4.862,7.051-7.415,11.912-5.699c2.953,1.041,5.041,3.422,5.857,6.209c2.383-1.659,5.501-2.2,8.449-1.161c4.861,1.716,7.415,7.049,5.699,11.912c-0.246,0.688-0.568,1.326-0.945,1.916c-3.901,7.165-15.175,12.198-22.003,12.261c-5.273-4.333-10.89-15.329-9.433-23.353C40.311,9.95,40.461,9.251,40.698,8.561z"/>
</g>
</svg>
