<?xml version="1.0" encoding="utf-8"?>
<svg version="1.1" xmlns="http://www.w3.org/2000/svg" xmlns:xlink="http://www.w3.org/1999/xlink" x="0px" y="0px" width="200" height="200" viewBox="0 0 200 200" enable-background="new 0 0 200 200" xml:space="preserve">
<circle fill="#97E3FF" cx="100" cy="100" r="100"/>
<path fill="#005FD1" d="M99.95,69.267V54.525H59.092c-2.575,0-4.658,2.083-4.658,4.658v6.467l26.375,23.117C84.358,78.842,90.933,69.267,99.95,69.267z"/>
<path fill="#005FD1" d="M77.758,104.15c0-3.008,0.55-6.808,1.608-10.792L54.425,71.5v69.417c0,2.575,2.083,4.658,4.658,4.658H99.95v-14.683C84.817,130.9,77.758,115.717,77.758,104.15z"/>
<path fill="#005FD1" d="M80.8,88.767L54.425,65.658V71.5l24.942,21.858C79.775,91.842,80.25,90.3,80.8,88.767z"/>
<path fill="#1DA1F2" d="M122.15,104.15c0,5.417-1.55,11.625-4.75,16.7l26.683,23.392c0.858-0.842,1.392-2.017,1.392-3.325V59.192c0-2.575-2.083-4.658-4.658-4.658H99.95v14.742C114.025,69.267,122.15,92.583,122.15,104.15z"/>
<path fill="#1DA1F2" d="M99.95,130.9v14.683h38.992l-24.217-21.225C111.158,128.267,106.258,130.9,99.95,130.9z"/>
<path fill="#005FD1" d="M144.083,144.242L117.4,120.85c-0.792,1.25-1.675,2.425-2.667,3.508l24.217,21.225h1.875C142.092,145.575,143.242,145.067,144.083,144.242z"/>
<path fill="#1DA1F2" d="M99.95,69.267c-9.025,0-15.6,9.583-19.158,19.508l19.158,16.792V69.267z"/>
<path fill="#1DA1F2" d="M79.367,93.358c-1.058,3.983-1.608,7.783-1.608,10.792c0,11.567,7.058,26.75,22.192,26.75v-19.492L79.367,93.358z"/>
<path fill="#005FD1" d="M99.95,105.558L80.792,88.767c-0.55,1.533-1.025,3.075-1.433,4.592L99.942,111.4v-5.842H99.95z"/>
<path fill="#71C9F8" d="M99.95,130.9c6.3,0,11.208-2.633,14.783-6.542l-14.783-12.95V130.9z"/>
<path fill="#71C9F8" d="M99.95,69.267v36.292l17.442,15.292c3.2-5.075,4.75-11.283,4.75-16.7C122.15,92.583,114.025,69.267,99.95,69.267z"/>
<path fill="#1DA1F2" d="M99.95,111.4l14.783,12.95c0.992-1.083,1.875-2.258,2.667-3.508L99.958,105.55v5.85H99.95z"/>
<path fill="#71C9F8" d="M149.717,149.175L45.608,57.925c-2.55-2.233-2.8-6.1-0.567-8.65l0,0c2.233-2.55,6.108-2.8,8.65-0.567l104.108,91.25c2.55,2.233,2.8,6.108,0.567,8.65l0,0C156.133,151.15,152.258,151.408,149.717,149.175z"/>
</svg>
