<?xml version="1.0" encoding="utf-8"?>
<svg version="1.1" xmlns="http://www.w3.org/2000/svg" xmlns:xlink="http://www.w3.org/1999/xlink" x="0px" y="0px" width="48" height="72" viewBox="0 0 48 72" enable-background="new 0 0 48 72" xml:space="preserve">
<g id="bounds"><rect opacity="0" width="48" height="72"/></g>
<g id="icon">
<path d="M35.122,26.879c-1.171-1.172-3.071-1.172-4.242,0L27,30.758V14c0-1.657-1.343-3-3-3s-3,1.343-3,3v16.758l-3.879-3.879c-1.171-1.172-3.071-1.172-4.242,0c-1.172,1.171-1.172,3.071,0,4.242l9,9C22.465,40.707,23.233,41,24,41s1.536-0.293,2.121-0.879l9-9C36.293,29.95,36.293,28.05,35.122,26.879z"/>
<path d="M42,39c-1.657,0-3,1.343-3,3v4.009h-0.002c0,0.537-0.423,0.967-0.955,0.991H10c-0.553,0-1-0.447-1-1v-4c0-1.657-1.343-3-3-3s-3,1.343-3,3v6c0,2.757,2.243,5,5,5h32c2.757,0,5-2.243,5-5v-6C45,40.343,43.657,39,42,39z"/>
</g>
</svg>
