<?xml version="1.0" encoding="utf-8"?>
<svg version="1.1" xmlns="http://www.w3.org/2000/svg" xmlns:xlink="http://www.w3.org/1999/xlink" x="0px" y="0px" width="40" height="72" viewBox="0 0 40 72" enable-background="new 0 0 40 72" xml:space="preserve">
<g id="bounds"><rect opacity="0" width="40" height="72"/></g>
<g id="icon">
<path d="M34.2,30.7C33.9,30.3,33.5,30,33,30h-7.2l4.5-10.1c0.2-0.4,0.1-0.9-0.1-1.3C29.9,18.2,29.5,18,29,18h-8c-0.6,0-1.2,0.4-1.3,1l-4,16.7c-0.1,0.4,0,0.8,0.2,1.1c0.3,0.3,0.6,0.5,1,0.5h4.9L19,52.4c-0.1,0.6,0.2,1.3,0.8,1.5C20,54,20.2,54,20.3,54c0.5,0,0.9-0.2,1.1-0.7L34.1,32C34.4,31.6,34.4,31.1,34.2,30.7z"/>
</g>
</svg>
