<?xml version="1.0" encoding="utf-8"?>
<svg version="1.1" xmlns="http://www.w3.org/2000/svg" xmlns:xlink="http://www.w3.org/1999/xlink" x="0px" y="0px" width="36" height="72" viewBox="0 0 36 72" enable-background="new 0 0 36 72" xml:space="preserve">
<g id="bounds"><rect opacity="0" width="36" height="72"/></g>
<g id="icon">
<path d="M30.738,28.011C30.382,27.386,29.719,27,29,27H18.145l6.686-15.194c0.272-0.619,0.214-1.333-0.156-1.898C24.306,9.341,23.676,9,23,9H11c-0.925,0-1.729,0.634-1.945,1.533l-6,25c-0.143,0.596-0.005,1.224,0.374,1.705C3.809,37.72,4.387,38,5,38h7.278L8.034,60.632c-0.179,0.953,0.353,1.897,1.26,2.239C9.525,62.959,9.764,63,10,63c0.689,0,1.351-0.357,1.72-0.979l19-32C31.087,29.403,31.094,28.636,30.738,28.011z"/>
</g>
</svg>
