<?xml version="1.0" encoding="utf-8"?>
<svg version="1.1" xmlns="http://www.w3.org/2000/svg" xmlns:xlink="http://www.w3.org/1999/xlink" x="0px" y="0px" width="60" height="72" viewBox="0 0 60 72" enable-background="new 0 0 60 72" xml:space="preserve">
<g id="bounds"><rect opacity="0" width="60" height="72"/></g>
<g id="icon">
<circle fill="#FFFFFF" cx="30" cy="36" r="25"/>
<path d="M30,9C15.088,9,3,21.088,3,36c0,14.912,12.088,27,27,27s27-12.088,27-27C57,21.088,44.912,9,30,9z M40.656,34.106l-11.989,18C28.286,52.68,27.653,53,27,53c-0.279,0-0.562-0.059-0.83-0.181c-0.895-0.408-1.359-1.406-1.097-2.354L28,39l-4,0.031c-0.621,0-1.207-0.288-1.585-0.78c-0.378-0.492-0.507-1.133-0.348-1.732l3.99-15.031C26.29,20.61,27.083,20,27.99,20h7c0.674,0,1.303,0.34,1.673,0.903c0.37,0.564,0.43,1.276,0.161,1.895L33,31h5.99c0.737,0,1.414,0.405,1.763,1.055C41.101,32.704,41.064,33.492,40.656,34.106z"/>
</g>
</svg>
