<?xml version="1.0" encoding="utf-8"?>
<svg version="1.1" xmlns="http://www.w3.org/2000/svg" xmlns:xlink="http://www.w3.org/1999/xlink" x="0px" y="0px" width="58" height="72" viewBox="0 0 58 72" enable-background="new 0 0 58 72" xml:space="preserve">
<g id="bounds"><rect opacity="0" width="58" height="72"/></g>
<g id="icon">
<path d="M54.601,15.379c-0.017-0.6-0.302-1.16-0.776-1.527c-0.475-0.365-1.089-0.501-1.673-0.365l-13.847,3.203c-0.753,0.174-1.338,0.767-1.503,1.521c-0.165,0.755,0.12,1.537,0.731,2.01l4.743,3.664l-7.864,10.009l-4.596-3.282c-1.32-1.002-3.201-0.745-4.204,0.573L10,51.726V18c0-1.657-1.343-3-3-3s-3,1.343-3,3v40c0,1.657,1.343,3,3,3h42c1.657,0,3-1.343,3-3s-1.343-3-3-3H15.048l13.578-17.866c0,0,4.644,3.307,4.649,3.31C33.798,40.812,34.398,41,34.998,41c0.889,0,1.769-0.394,2.361-1.146l9.665-12.301l4.753,3.672c0.357,0.275,0.789,0.417,1.223,0.417c0.309,0,0.62-0.071,0.906-0.218c0.689-0.35,1.114-1.065,1.092-1.838L54.601,15.379z"/>
</g>
</svg>
