<?xml version="1.0" encoding="utf-8"?>
<svg version="1.1" xmlns="http://www.w3.org/2000/svg" xmlns:xlink="http://www.w3.org/1999/xlink" x="0px" y="0px" width="56" height="72" viewBox="0 0 56 72" enable-background="new 0 0 56 72" xml:space="preserve">
<g id="bounds"><rect opacity="0" width="56" height="72"/></g>
<g id="icon">
<path d="M29.518,12.25l-8.705,8.704c-1.262,1.262-2.215,2.714-2.881,4.26c-0.737,1.712-1.128,3.542-1.128,5.377c0,5.48,3.076,8.778,4.01,9.77c2.346,2.494,7.014,3.983,7.416,3.674c0.637-0.49,2.665-3.002,0.174-5.764c-0.452-0.502-3.605-0.852-5.154-4.667c-0.836-2.059-0.753-4.129,0.076-6.055c0.381-0.883,0.926-1.713,1.647-2.434l8.705-8.704c3.057-3.057,8.032-3.057,11.089,0c3.057,3.057,3.057,8.032,0,11.089l-4.175,4.174c1.163,1.85,1.96,3.866,2.37,5.947l5.963-5.962c5.35-5.351,5.35-14.057,0-19.408C43.574,6.9,34.869,6.9,29.518,12.25z"/>
<path d="M26.357,59.768l9.01-9.01c1.262-1.262,2.215-2.714,2.881-4.26c0.737-1.712,1.128-3.542,1.128-5.377c0-5.48-3.076-8.778-4.01-9.77c-2.346-2.494-7.014-3.983-7.416-3.674c-0.637,0.49-2.665,3.002-0.174,5.764c0.452,0.502,3.605,0.852,5.154,4.667c0.836,2.059,0.753,4.129-0.076,6.055c-0.381,0.883-0.926,1.713-1.647,2.434l-9.01,9.01c-3.057,3.057-8.032,3.057-11.089,0c-3.057-3.057-3.057-8.032,0-11.089l4.479-4.479c-1.163-1.85-1.96-3.866-2.37-5.947L6.95,40.36c-5.35,5.351-5.35,14.057,0,19.408C12.301,65.118,21.007,65.118,26.357,59.768z"/>
</g>
</svg>
