<?xml version="1.0" encoding="utf-8"?>
<svg version="1.1" xmlns="http://www.w3.org/2000/svg" xmlns:xlink="http://www.w3.org/1999/xlink" x="0px" y="0px" width="54" height="72" viewBox="0 0 54 72" enable-background="new 0 0 54 72" xml:space="preserve">
<g id="bounds"><rect opacity="0" width="54" height="72"/></g>
<g id="icon">
<path d="M48,23.013H19c-1.657,0-3-1.343-3-3c0-1.657,1.343-3,3-3h29c1.657,0,3,1.343,3,3C51,21.67,49.657,23.013,48,23.013z"/>
<circle cx="7" cy="20" r="4"/>
<path d="M48,39.007H19c-1.657,0-3-1.343-3-3c0-1.657,1.343-3,3-3h29c1.657,0,3,1.343,3,3C51,37.664,49.657,39.007,48,39.007z"/>
<circle cx="7" cy="36.001" r="4"/>
<path d="M48,55H19c-1.657,0-3-1.343-3-3s1.343-3,3-3h29c1.657,0,3,1.343,3,3S49.657,55,48,55z"/>
<circle cx="7" cy="52" r="4"/>
</g>
</svg>
