<?xml version="1.0" encoding="utf-8"?>
<svg version="1.1" xmlns="http://www.w3.org/2000/svg" xmlns:xlink="http://www.w3.org/1999/xlink" x="0px" y="0px" width="60" height="72" viewBox="0 0 60 72" enable-background="new 0 0 60 72" xml:space="preserve">
<g id="bounds"><rect opacity="0" width="60" height="72"/></g>
<g id="icon">
<circle fill="#FFFFFF" cx="30" cy="36" r="25"/>
<path d="M30,9C15.112,9,3,21.112,3,36s12.112,27,27,27s27-12.112,27-27S44.888,9,30,9z M19.5,38.5c-1.381,0-2.5-1.119-2.5-2.5s1.119-2.5,2.5-2.5S22,34.619,22,36S20.881,38.5,19.5,38.5z M22,45c0,1.381-1.119,2.5-2.5,2.5S17,46.381,17,45s1.119-2.5,2.5-2.5S22,43.619,22,45z M19.5,29.5c-1.381,0-2.5-1.119-2.5-2.5s1.119-2.5,2.5-2.5S22,25.619,22,27S20.881,29.5,19.5,29.5z M28,43h14c1.104,0,2,0.896,2,2s-0.896,2-2,2H28c-1.104,0-2-0.896-2-2S26.896,43,28,43z M26,36c0-1.104,0.896-2,2-2h14c1.104,0,2,0.896,2,2s-0.896,2-2,2H28C26.896,38,26,37.104,26,36z M42,29H28c-1.104,0-2-0.896-2-2s0.896-2,2-2h14c1.104,0,2,0.896,2,2S43.104,29,42,29z"/>
</g>
</svg>
