<?xml version="1.0" encoding="utf-8"?>
<svg version="1.1" xmlns="http://www.w3.org/2000/svg" xmlns:xlink="http://www.w3.org/1999/xlink" x="0px" y="0px" width="72" height="72" viewBox="0 0 72 72" enable-background="new 0 0 72 72" xml:space="preserve">
<g id="bounds"><rect opacity="0" width="72" height="72"/></g>
<g id="icon">
<path d="M63,33h-4.202C57.451,22.714,49.286,14.549,39,13.202V9c0-1.657-1.343-3-3-3c-1.657,0-3,1.343-3,3v4.202C22.713,14.548,14.548,22.714,13.201,33H9c-1.657,0-3,1.343-3,3c0,1.657,1.343,3,3,3h4.202C14.549,49.285,22.714,57.45,33,58.796V63c0,1.657,1.343,3,3,3c1.657,0,3-1.343,3-3v-4.204C49.286,57.449,57.45,49.285,58.797,39H63c1.657,0,3-1.343,3-3C66,34.343,64.657,33,63,33z M36,52.998c-9.39,0-17-7.611-17-16.999C19,26.611,26.61,19,36,19c9.389,0,17,7.611,17,16.999C53,45.387,45.389,52.998,36,52.998z"/>
<circle cx="36" cy="36" r="10"/>
</g>
</svg>
