<?xml version="1.0" encoding="utf-8"?>
<svg version="1.1" xmlns="http://www.w3.org/2000/svg" xmlns:xlink="http://www.w3.org/1999/xlink" x="0px" y="0px" width="60" height="72" viewBox="0 0 60 72" enable-background="new 0 0 60 72" xml:space="preserve">
<g id="bounds"><rect opacity="0" width="60" height="72"/></g>
<g id="icon">
<circle fill="#FFFFFF" cx="30" cy="36" r="25"/>
<circle cx="30" cy="31.785" r="5.687"/>
<path d="M30,9C15.112,9,3,21.112,3,36s12.112,27,27,27s27-12.112,27-27S44.888,9,30,9z M38.967,35.641c-0.42,1.161-6.381,13.068-7.54,14.344c-0.6,0.659-0.98,0.765-1.427,0.765c-0.448,0-0.828-0.106-1.427-0.765c-1.159-1.276-7.121-13.183-7.539-14.344s-0.783-2.472-0.783-3.831c0-5.384,4.373-9.767,9.75-9.769c5.376,0.002,9.75,4.385,9.75,9.769C39.75,33.169,39.385,34.48,38.967,35.641z"/>
</g>
</svg>
