<?xml version="1.0" encoding="utf-8"?>
<svg version="1.1" xmlns="http://www.w3.org/2000/svg" xmlns:xlink="http://www.w3.org/1999/xlink" x="0px" y="0px" width="40" height="72" viewBox="0 0 40 72" enable-background="new 0 0 40 72" xml:space="preserve">
<g id="bounds"><rect opacity="0" width="40" height="72"/></g>
<g id="icon">
<path d="M19.996,8.999c-9.39,0.003-17.029,7.643-17.029,17.033c0,2.369,0.636,4.656,1.367,6.68c0.731,2.023,11.145,23.72,13.169,25.943C18.549,59.805,19.215,60,19.996,60s1.446-0.195,2.493-1.345c2.024-2.224,12.438-23.921,13.169-25.943c0.731-2.023,1.367-4.311,1.367-6.68C37.024,16.642,29.386,9.002,19.996,8.999z M20,36.999c-6.075,0-11-4.925-11-11s4.925-11,11-11s11,4.925,11,11S26.075,36.999,20,36.999z"/>
</g>
</svg>
