<?xml version="1.0" encoding="utf-8"?>
<svg version="1.1" xmlns="http://www.w3.org/2000/svg" xmlns:xlink="http://www.w3.org/1999/xlink" x="0px" y="0px" width="60" height="72" viewBox="0 0 60 72" enable-background="new 0 0 60 72" xml:space="preserve">
<g id="bounds"><rect opacity="0" width="60" height="72"/></g>
<g id="icon">
<path d="M30,9C15.112,9,3,21.112,3,36s12.112,27,27,27s27-12.112,27-27S44.888,9,30,9z M40.031,44.259c0,1.702-1.385,3.087-3.087,3.087H23.055c-1.702,0-3.087-1.384-3.087-3.087v-8.488c0-1.702,1.385-3.087,3.087-3.087h0.772v-3.857c0-3.404,2.769-6.173,6.173-6.173s6.173,2.769,6.173,6.173v3.857h0.772c1.702,0,3.087,1.384,3.087,3.087L40.031,44.259L40.031,44.259z"/>
<path d="M30.125,26.365c-1.702,0-3.087,1.384-3.087,3.087v3.857h6.173v-3.857C33.212,27.75,31.827,26.365,30.125,26.365z"/>
</g>
</svg>
