<?xml version="1.0" encoding="utf-8"?>
<svg version="1.1" xmlns="http://www.w3.org/2000/svg" xmlns:xlink="http://www.w3.org/1999/xlink" x="0px" y="0px" width="50" height="72" viewBox="0 0 50 72" enable-background="new 0 0 50 72" xml:space="preserve">
<g id="bounds"><rect opacity="0" width="50" height="72"/></g>
<g id="icon">
<path d="M46.121,14.879c-1.171-1.172-3.071-1.172-4.242,0L32,24.758V18c0-1.657-1.343-3-3-3s-3,1.343-3,3v14c0,1.657,1.343,3,3,3h14c1.657,0,3-1.343,3-3s-1.343-3-3-3h-6.758l9.879-9.879C47.293,17.95,47.293,16.05,46.121,14.879z"/>
<path d="M21,37H7c-1.657,0-3,1.343-3,3s1.343,3,3,3h6.758l-9.879,9.879c-1.172,1.171-1.172,3.071,0,4.242C4.464,57.707,5.232,58,6,58s1.536-0.293,2.121-0.879L18,47.242V54c0,1.657,1.343,3,3,3s3-1.343,3-3V40C24,38.343,22.657,37,21,37z"/>
</g>
</svg>
