<?xml version="1.0" encoding="utf-8"?>
<svg version="1.1" xmlns="http://www.w3.org/2000/svg" xmlns:xlink="http://www.w3.org/1999/xlink" x="0px" y="0px" width="50" height="72" viewBox="0 0 50 72" enable-background="new 0 0 50 72" xml:space="preserve">
<g id="bounds"><rect opacity="0" width="50" height="72"/></g>
<g id="icon">
<path d="M44,14H30c-1.657,0-3,1.343-3,3s1.343,3,3,3h6.758l-9.879,9.879c-1.172,1.171-1.172,3.071,0,4.242C27.464,34.707,28.232,35,29,35s1.536-0.293,2.121-0.879L41,24.242V31c0,1.657,1.343,3,3,3s3-1.343,3-3V17C47,15.343,45.657,14,44,14z"/>
<path d="M18.879,37.879L9,47.758V41c0-1.657-1.343-3-3-3s-3,1.343-3,3v14c0,1.657,1.343,3,3,3h14c1.657,0,3-1.343,3-3s-1.343-3-3-3h-6.758l9.879-9.879c1.172-1.171,1.172-3.071,0-4.242C21.95,36.707,20.05,36.707,18.879,37.879z"/>
</g>
</svg>
