<?xml version="1.0" encoding="utf-8"?>
<svg version="1.1" xmlns="http://www.w3.org/2000/svg" xmlns:xlink="http://www.w3.org/1999/xlink" x="0px" y="0px" width="52" height="72" viewBox="0 0 52 72" enable-background="new 0 0 52 72" xml:space="preserve">
<g id="bounds"><rect opacity="0" width="52" height="72"/></g>
<g id="icon">
<path d="M26,22c-1.104,0-2-0.896-2-2v-4.944c0-1.104,0.896-2,2-2s2,0.896,2,2V20C28,21.104,27.105,22,26,22z"/>
<path d="M26,58.944c-1.104,0-2-0.896-2-2V52c0-1.104,0.896-2,2-2s2,0.896,2,2v4.944C28,58.049,27.105,58.944,26,58.944z"/>
<path d="M20.504,22.915c-0.817,0-1.584-0.505-1.879-1.317l-1.691-4.646c-0.378-1.038,0.158-2.186,1.195-2.563c1.041-0.376,2.186,0.158,2.563,1.196l1.691,4.646c0.378,1.038-0.157,2.186-1.195,2.563C20.962,22.876,20.731,22.915,20.504,22.915z"/>
<path d="M33.188,57.765c-0.817,0-1.584-0.505-1.879-1.317l-1.691-4.646c-0.378-1.038,0.157-2.186,1.195-2.563c1.039-0.376,2.186,0.158,2.563,1.196l1.691,4.646c0.378,1.038-0.158,2.186-1.195,2.563C33.646,57.726,33.415,57.765,33.188,57.765z"/>
<path d="M15.671,25.705c-0.571,0-1.138-0.243-1.533-0.715l-3.178-3.788c-0.71-0.846-0.6-2.107,0.247-2.817c0.847-0.71,2.108-0.6,2.818,0.247l3.178,3.788c0.71,0.846,0.6,2.107-0.247,2.817C16.581,25.552,16.125,25.705,15.671,25.705z"/>
<path d="M39.51,54.114c-0.571,0-1.138-0.243-1.533-0.715l-3.178-3.788c-0.71-0.846-0.6-2.107,0.247-2.817c0.847-0.71,2.108-0.6,2.818,0.247l3.178,3.788c0.71,0.846,0.6,2.107-0.247,2.817C40.419,53.961,39.963,54.114,39.51,54.114z"/>
<path d="M12.081,29.98c-0.339,0-0.683-0.086-0.998-0.268L6.801,27.24c-0.957-0.553-1.284-1.776-0.732-2.732c0.553-0.957,1.775-1.284,2.732-0.732l4.282,2.473c0.957,0.553,1.284,1.776,0.732,2.732C13.444,29.622,12.772,29.98,12.081,29.98z"/>
<path d="M44.198,48.523c-0.339,0-0.683-0.086-0.998-0.268l-4.282-2.473c-0.957-0.553-1.284-1.776-0.732-2.732c0.553-0.957,1.775-1.284,2.732-0.732l4.282,2.473c0.957,0.553,1.284,1.776,0.732,2.732C45.562,48.165,44.89,48.523,44.198,48.523z"/>
<path d="M10.176,35.225c-0.115,0-0.232-0.01-0.35-0.03l-4.87-0.858c-1.088-0.191-1.814-1.229-1.623-2.317c0.192-1.087,1.23-1.809,2.317-1.622l4.87,0.858c1.088,0.191,1.814,1.229,1.623,2.317C11.973,34.542,11.128,35.225,10.176,35.225z"/>
<path d="M46.699,41.665c-0.116,0-0.232-0.01-0.35-0.03l-4.87-0.859c-1.088-0.192-1.814-1.229-1.622-2.317s1.231-1.811,2.317-1.622l4.87,0.859c1.088,0.192,1.814,1.229,1.622,2.317C48.495,40.982,47.651,41.665,46.699,41.665z"/>
<path d="M5.302,41.665c-0.952,0-1.796-0.683-1.967-1.652c-0.192-1.088,0.534-2.125,1.622-2.317l4.87-0.859c1.088-0.191,2.125,0.535,2.317,1.622c0.192,1.088-0.534,2.125-1.622,2.317l-4.87,0.859C5.534,41.655,5.417,41.665,5.302,41.665z"/>
<path d="M41.825,35.225c-0.952,0-1.796-0.683-1.967-1.652c-0.192-1.088,0.535-2.126,1.623-2.317l4.87-0.858c1.086-0.188,2.125,0.535,2.317,1.622c0.192,1.088-0.535,2.126-1.623,2.317l-4.87,0.858C42.057,35.215,41.94,35.225,41.825,35.225z"/>
<path d="M7.803,48.523c-0.691,0-1.363-0.358-1.734-1c-0.552-0.956-0.225-2.18,0.732-2.732l4.282-2.473c0.957-0.552,2.18-0.225,2.732,0.732c0.552,0.956,0.225,2.18-0.732,2.732l-4.282,2.473C8.486,48.438,8.142,48.523,7.803,48.523z"/>
<path d="M39.92,29.98c-0.691,0-1.363-0.358-1.734-1c-0.552-0.956-0.225-2.18,0.732-2.732l4.282-2.473c0.957-0.552,2.179-0.225,2.732,0.732c0.552,0.956,0.225,2.18-0.732,2.732l-4.282,2.473C40.603,29.895,40.259,29.98,39.92,29.98z"/>
<path d="M12.491,54.114c-0.454,0-0.91-0.153-1.285-0.468c-0.846-0.71-0.957-1.972-0.247-2.817l3.178-3.788c0.709-0.847,1.971-0.957,2.818-0.247c0.846,0.71,0.957,1.972,0.247,2.817l-3.178,3.788C13.629,53.871,13.062,54.114,12.491,54.114z"/>
<path d="M36.33,25.705c-0.454,0-0.91-0.153-1.285-0.468c-0.846-0.71-0.957-1.972-0.247-2.817l3.178-3.788c0.71-0.847,1.971-0.957,2.818-0.247c0.846,0.71,0.957,1.972,0.247,2.817l-3.178,3.788C37.467,25.462,36.9,25.705,36.33,25.705z"/>
<path d="M18.813,57.765c-0.227,0-0.458-0.039-0.684-0.121c-1.038-0.378-1.573-1.525-1.195-2.563l1.691-4.646c0.377-1.038,1.523-1.572,2.563-1.196c1.038,0.378,1.573,1.525,1.195,2.563l-1.691,4.646C20.397,57.26,19.63,57.765,18.813,57.765z"/>
<path d="M31.497,22.915c-0.227,0-0.458-0.039-0.684-0.121c-1.038-0.378-1.573-1.525-1.195-2.563l1.691-4.646c0.377-1.039,1.524-1.572,2.563-1.196c1.038,0.378,1.573,1.525,1.195,2.563l-1.691,4.646C33.081,22.41,32.314,22.915,31.497,22.915z"/>
</g>
</svg>
