<?xml version="1.0" encoding="utf-8"?>
<svg version="1.1" xmlns="http://www.w3.org/2000/svg" xmlns:xlink="http://www.w3.org/1999/xlink" x="0px" y="0px" width="60" height="72" viewBox="0 0 60 72" enable-background="new 0 0 60 72" xml:space="preserve">
<g id="bounds"><rect opacity="0" width="60" height="72"/></g>
<g id="icon">
<path d="M31,34.999v-16c0-1.657-1.343-3-3-3s-3,1.343-3,3v8.758L8.122,10.879c-1.171-1.172-3.071-1.172-4.243,0c-1.171,1.172-1.171,3.071,0,4.242l16.879,16.878H12c-1.657,0-3,1.343-3,3c0,1.657,1.343,3,3,3h16C29.657,37.999,31,36.656,31,34.999z"/>
<path d="M52,24H40c-1.657,0-3,1.343-3,3s1.343,3,3,3h10c0.553,0,1,0.447,1,1v25c0,0.553-0.447,1-1,1H25c-0.553,0-1-0.447-1-1V46c0-1.657-1.343-3-3-3s-3,1.343-3,3v11.936C18,60.729,20.272,63,23.064,63h28.871C54.728,63,57,60.729,57,57.936V29C57,26.196,54.804,24,52,24z"/>
</g>
</svg>
