<?xml version="1.0" encoding="utf-8"?>
<svg version="1.1" xmlns="http://www.w3.org/2000/svg" xmlns:xlink="http://www.w3.org/1999/xlink" x="0px" y="0px" width="60" height="72" viewBox="0 0 60 72" enable-background="new 0 0 60 72" xml:space="preserve">
<g id="bounds"><rect opacity="0" width="60" height="72"/></g>
<g id="icon">
<path d="M51,25v19c4,0,6-5.5,6-9.5S55,25,51,25z"/>
<path d="M43,13c-1.062,0-1.758,0.523-1.969,0.734C35.166,19.583,25.013,25,15,25H7H5c-1.105,0-2,0.896-2,2v15c0,1.104,0.895,2,2,2h2h7v13c0,2.209,1.791,4,4,4s4-1.791,4-4V44.837c7.532,1.733,14.54,5.95,19.031,10.429C41.242,55.477,41.938,56,43,56c1.656,0,3-1.343,3-3V16C46,14.343,44.656,13,43,13z"/>
</g>
</svg>
