<?xml version="1.0" encoding="utf-8"?>
<svg version="1.1" xmlns="http://www.w3.org/2000/svg" xmlns:xlink="http://www.w3.org/1999/xlink" x="0px" y="0px" width="56" height="72" viewBox="0 0 56 72" enable-background="new 0 0 56 72" xml:space="preserve">
<g id="bounds"><rect opacity="0" width="56" height="72"/></g>
<g id="icon">
<polygon points="43.34,14 12.66,14 28,27.946"/>
<path d="M51.392,14.789L30.018,34.22c-0.009,0.008-0.028,0.006-0.039,0.012c-0.563,0.5-1.266,0.768-1.98,0.768c-0.72,0-1.442-0.258-2.017-0.78L4.609,14.79C3.632,15.512,3,16.665,3,18v37c0,0.779,0.452,1.487,1.159,1.814C4.427,56.939,4.714,57,5,57c0.464,0,0.924-0.162,1.292-0.473L19,46h30c2.243,0,4-1.757,4-4V18C53,16.665,52.369,15.512,51.392,14.789z"/>
</g>
</svg>
