<?xml version="1.0" encoding="utf-8"?>
<svg version="1.1" xmlns="http://www.w3.org/2000/svg" xmlns:xlink="http://www.w3.org/1999/xlink" x="0px" y="0px" width="46" height="56" viewBox="0 0 46 56" enable-background="new 0 0 46 56" xml:space="preserve">
<g id="bounds"><rect opacity="0" width="46" height="56"/></g>
<g id="icon">
<polygon points="36.077,11 9.923,11 23,23.308 	"/>
<path d="M41.462,11.769c-0.016,0.016-16.868,16.285-16.868,16.285c-0.446,0.426-1.019,0.639-1.593,0.639s-1.147-0.213-1.593-0.639c0,0-16.852-16.268-16.868-16.285C3.663,12.468,3,13.308,3,14.846v29.308c0,0.911,0.536,1.738,1.369,2.108c0.302,0.134,0.621,0.2,0.939,0.2c0.559,0,1.112-0.204,1.544-0.593L15.308,38h23.846C41.311,38,43,36.311,43,34.154V14.846C43,13.308,42.337,12.469,41.462,11.769z"/>
</g>
</svg>
