<?xml version="1.0" encoding="utf-8"?>
<svg version="1.1" xmlns="http://www.w3.org/2000/svg" xmlns:xlink="http://www.w3.org/1999/xlink" x="0px" y="0px" width="56" height="72" viewBox="0 0 56 72" enable-background="new 0 0 56 72" xml:space="preserve">
<g id="bounds"><rect opacity="0" width="56" height="72"/></g>
<g id="icon">
<polygon points="47.4,17 8.6,17 28,34"/>
<path d="M30,40.3C30,40.3,29.9,40.3,30,40.3c-0.6,0.5-1.3,0.7-2,0.7s-1.4-0.2-2-0.7L3.3,20.4C3.1,20.9,3,21.4,3,22v31c0,2.8,2.2,5,5,5h40c2.8,0,5-2.2,5-5V22c0-0.6-0.1-1.1-0.3-1.6L30,40.3z"/>
</g>
</svg>
