<?xml version="1.0" encoding="utf-8"?>
<svg version="1.1" xmlns="http://www.w3.org/2000/svg" xmlns:xlink="http://www.w3.org/1999/xlink" x="0px" y="0px" width="64" height="72" viewBox="0 0 64 72" enable-background="new 0 0 64 72" xml:space="preserve">
<g id="bounds"><rect opacity="0" width="64" height="72"/></g>
<g id="icon">
<path d="M32.001,47.998c-5.046,0-9-4.832-9-11s3.954-11,9-11s9,4.832,9,11S37.047,47.998,32.001,47.998z M32.001,31.998c-1.419,0-3,2.054-3,5c0,2.947,1.581,5,3,5s3-2.053,3-5C35.001,34.051,33.42,31.998,32.001,31.998z"/>
<path d="M56.001,17H8c-2.757,0-5,2.243-5,5v29c0,2.757,2.243,5,5,5h48.001c2.757,0,5-2.243,5-5V22C61.001,19.243,58.758,17,56.001,17z M15.93,50c-0.453-3.616-3.313-6.478-6.93-6.93V29.93c3.617-0.452,6.478-3.314,6.93-6.93h32.142c0.452,3.616,3.313,6.478,6.93,6.93v13.14c-3.616,0.452-6.478,3.314-6.93,6.93H15.93z"/>
</g>
</svg>
