<?xml version="1.0" encoding="utf-8"?>
<svg version="1.1" xmlns="http://www.w3.org/2000/svg" xmlns:xlink="http://www.w3.org/1999/xlink" x="0px" y="0px" width="60" height="72" viewBox="0 0 60 72" enable-background="new 0 0 60 72" xml:space="preserve">
<g id="bounds"><rect opacity="0" width="60" height="72"/></g>
<g id="icon">
<path d="M30,9.002c-14.888,0-27,12.111-27,26.999S15.112,63,30,63c14.888,0,27-12.111,27-26.999S44.888,9.002,30,9.002z M9,36.001c0-5.936,2.474-11.287,6.435-15.106l24.33,33.689C36.847,56.12,33.528,57,30,57C18.401,57,9,47.598,9,36.001z M44.621,51.058L20.302,17.386c2.903-1.515,6.197-2.384,9.698-2.384c11.598,0,21,9.402,21,20.999C51,41.91,48.55,47.241,44.621,51.058z"/>
</g>
</svg>
