<?xml version="1.0" encoding="utf-8"?>
<svg version="1.1" xmlns="http://www.w3.org/2000/svg" xmlns:xlink="http://www.w3.org/1999/xlink" x="0px" y="0px" width="58" height="72" viewBox="0 0 58 72" enable-background="new 0 0 58 72" xml:space="preserve">
<g id="bounds"><rect opacity="0" width="58" height="72"/></g>
<g id="icon">
<path d="M5.13,39.859c-0.668,0.532-1.076,1.325-1.124,2.178c-0.048,0.853,0.271,1.688,0.875,2.291c0.31,0.31,0.684,0.548,1.095,0.698l35.917,13.072c0.329,0.119,0.676,0.181,1.026,0.181h0.004c0.007,0,0.013,0,0.02,0c0.149,0,0.291-0.022,0.434-0.044L13.452,28.31C10.132,35.742,5.178,39.82,5.13,39.859z"/>
<path d="M47.709,38.019c2.124-5.75,2.083-11.529-0.115-16.274c-1.216-2.624-3.06-4.839-5.355-6.509l0.053-0.154c0.863-2.373-0.447-5.026-2.924-5.928c-2.479-0.902-5.188,0.288-6.051,2.661l-0.057,0.152c-0.387-0.027-0.775-0.052-1.163-0.052c-3.434,0-6.666,1.039-9.474,2.936l24.596,24.596C47.369,38.976,47.532,38.499,47.709,38.019z"/>
<path d="M26.355,64.206c3.399,1.235,7.099-0.08,9.021-2.961l-14.028-5.107C20.967,59.582,22.955,62.968,26.355,64.206z"/>
<path d="M55.577,54.879l-44-44c-1.171-1.172-3.071-1.172-4.242,0c-1.172,1.171-1.172,3.071,0,4.242l44,44C51.92,59.707,52.688,60,53.456,60c0.767,0,1.536-0.293,2.121-0.879C56.749,57.95,56.749,56.05,55.577,54.879z"/>
</g>
</svg>
