<?xml version="1.0" encoding="utf-8"?>
<svg version="1.1" xmlns="http://www.w3.org/2000/svg" xmlns:xlink="http://www.w3.org/1999/xlink" x="0px" y="0px" width="58" height="72" viewBox="0 0 58 72" enable-background="new 0 0 58 72" xml:space="preserve">
<g id="bounds"><rect opacity="0" width="58" height="72"/></g>
<g id="icon">
<path d="M47.594,21.745c-1.216-2.624-3.06-4.839-5.355-6.509l0.053-0.154c0.863-2.373-0.447-5.026-2.924-5.928c-2.479-0.902-5.188,0.288-6.051,2.661l-0.057,0.152c-0.387-0.027-0.775-0.052-1.163-0.052c-7.805,0-14.575,5.361-17.667,13.99c-3.212,8.963-9.247,13.91-9.3,13.953c-0.668,0.532-1.076,1.325-1.124,2.178c-0.048,0.853,0.271,1.688,0.875,2.291c0.31,0.31,0.684,0.548,1.095,0.698l35.917,13.072c0.329,0.119,0.676,0.181,1.026,0.181h0.004c0.007,0,0.013,0,0.02,0c1.657,0,3-1.343,3-3c0-0.295-0.042-0.58-0.122-0.849c-0.22-1.423-1.07-8.41,1.888-16.412C49.833,32.269,49.792,26.489,47.594,21.745z"/>
<path d="M26.355,64.206c3.399,1.235,7.099-0.08,9.021-2.961l-14.028-5.107C20.967,59.582,22.955,62.968,26.355,64.206z"/>
</g>
</svg>
