<?xml version="1.0" encoding="utf-8"?>
<svg version="1.1" xmlns="http://www.w3.org/2000/svg" xmlns:xlink="http://www.w3.org/1999/xlink" x="0px" y="0px" width="78" height="72" viewBox="0 0 78 72" enable-background="new 0 0 78 72" xml:space="preserve">
<g id="bounds"><rect opacity="0" width="78" height="72"/></g>
<g id="icon">
<path d="M26.542,62.573c3.155,1.146,6.59-0.074,8.375-2.749l-13.023-4.741C21.54,58.28,23.386,61.423,26.542,62.573z"/>
<path d="M64,43.5c-0.792,0-1.556-0.313-2.121-0.879l-6-6c-1.172-1.171-1.172-3.071,0-4.242c1.171-1.172,3.071-1.172,4.242,0l3.413,3.412l7.97-11.955c0.919-1.379,2.781-1.751,4.16-0.832c1.378,0.919,1.751,2.781,0.832,4.16l-10.048,15.09C65.765,43.203,64.718,43.5,64,43.5z"/>
<path d="M46.175,23.154c-1.129-2.436-2.841-4.492-4.971-6.043l0.049-0.143c0.801-2.203-0.415-4.666-2.714-5.503c-2.301-0.837-4.816,0.267-5.617,2.47l-0.053,0.141c-0.359-0.025-0.719-0.048-1.08-0.048c-7.246,0-13.531,4.977-16.401,12.987c-2.982,8.321-8.584,12.913-8.634,12.953c-0.62,0.494-0.999,1.23-1.043,2.022s0.252,1.567,0.812,2.127c0.288,0.288,0.635,0.509,1.017,0.648L40.883,56.9c0.305,0.11,0.628,0.168,0.952,0.168h0.004c0.007,0,0.012,0,0.019,0c1.538,0,2.785-1.247,2.785-2.785c0-0.274-0.039-0.538-0.113-0.788c-0.204-1.321-0.993-7.807,1.753-15.236C48.254,32.924,48.216,27.558,46.175,23.154z"/>
</g>
</svg>
