<?xml version="1.0" encoding="utf-8"?>
<svg version="1.1" xmlns="http://www.w3.org/2000/svg" xmlns:xlink="http://www.w3.org/1999/xlink" x="0px" y="0px" width="60" height="72" viewBox="0 0 60 72" enable-background="new 0 0 60 72" xml:space="preserve">
<g id="bounds"><rect opacity="0" width="60" height="72"/></g>
<g id="icon">
<path d="M30,9C15.112,9,3,21.112,3,36s12.112,27,27,27s27-12.112,27-27S44.888,9,30,9z M28.153,49.503c-1.671-0.608-2.648-2.273-2.461-3.965l6.895,2.51C31.642,49.464,29.824,50.11,28.153,49.503z M38.649,36.631c-1.454,3.933-1.036,7.367-0.928,8.067c0.039,0.132,0.06,0.272,0.06,0.417c0,0.814-0.66,1.474-1.475,1.474c-0.003,0-0.006,0-0.01,0h-0.002c-0.172,0-0.343-0.031-0.504-0.089l-17.653-6.425c-0.202-0.074-0.386-0.191-0.538-0.343c-0.297-0.296-0.454-0.707-0.43-1.126c0.024-0.419,0.224-0.809,0.552-1.07c0.026-0.021,2.992-2.453,4.571-6.858c1.52-4.241,4.847-6.876,8.683-6.876c0.191,0,0.381,0.012,0.572,0.026l0.028-0.075c0.424-1.166,1.756-1.751,2.974-1.308c1.217,0.443,1.861,1.747,1.437,2.914l-0.026,0.076c1.128,0.821,2.034,1.909,2.632,3.199C39.672,30.965,39.693,33.806,38.649,36.631z"/>
</g>
</svg>
