<?xml version="1.0" encoding="utf-8"?>
<svg version="1.1" xmlns="http://www.w3.org/2000/svg" xmlns:xlink="http://www.w3.org/1999/xlink" x="0px" y="0px" width="46" height="56" viewBox="0 0 46 56" enable-background="new 0 0 46 56" xml:space="preserve">
<g id="bounds"><rect opacity="0" width="46" height="56"/></g>
<g id="icon">
<path d="M37.462,16.913c-0.946-2.041-2.38-3.764-4.165-5.063l0.041-0.12c0.671-1.846-0.348-3.909-2.274-4.611c-1.928-0.702-4.035,0.224-4.706,2.07l-0.044,0.118c-0.301-0.021-0.603-0.04-0.905-0.04c-6.071,0-11.336,4.17-13.741,10.881C9.17,27.12,4.476,30.967,4.434,31.001c-0.52,0.414-0.837,1.031-0.874,1.694s0.211,1.313,0.681,1.782c0.241,0.241,0.532,0.426,0.852,0.543l27.935,10.167c0.256,0.093,0.526,0.141,0.798,0.141h0.003c0.005,0,0.01,0,0.016,0c1.289,0,2.333-1.045,2.333-2.333c0-0.229-0.033-0.451-0.095-0.66c-0.171-1.107-0.832-6.541,1.468-12.765C39.203,25.098,39.172,20.603,37.462,16.913z"/>
<path d="M20.943,49.938c2.644,0.961,5.521-0.062,7.016-2.303l-10.911-3.972C16.752,46.342,18.298,48.975,20.943,49.938z"/>
</g>
</svg>
