<?xml version="1.0" encoding="utf-8"?>
<svg version="1.1" xmlns="http://www.w3.org/2000/svg" xmlns:xlink="http://www.w3.org/1999/xlink" x="0px" y="0px" width="56" height="72" viewBox="0 0 56 72" enable-background="new 0 0 56 72" xml:space="preserve">
<g id="bounds"><rect opacity="0" width="56" height="72"/></g>
<g id="icon">
<path d="M38.7,19.1L30,10.5c-1.1-1.1-2.9-1.1-4.1,0l-8.6,8.6c-1.1,1.1-1.1,2.9,0,4.1c0.6,0.6,1.3,0.8,2,0.8s1.5-0.3,2-0.8l3.7-3.7v20.1c0,1.6,1.3,2.9,2.9,2.9s2.9-1.3,2.9-2.9V19.4l3.7,3.7c0.6,0.6,1.3,0.8,2,0.8s1.5-0.3,2-0.8C39.8,22,39.8,20.2,38.7,19.1z"/>
<path d="M51.7,34.8c-1.6,0-3.2,1.3-3.2,2.9v14.4v0.1c0,0.6-0.4,1-1,1h-39c-0.6,0-1-0.4-1-1v-0.1V37.7c0-1.6-1.5-2.9-3.1-2.9s-2.9,1.3-2.9,2.9v15.8c0,3.2,2.6,5.7,5.7,5.7l0,0h41.6c3.2,0,5.7-2.6,5.7-5.7V37.7C54.6,36.1,53.3,34.8,51.7,34.8z"/>
</g>
</svg>
