<?xml version="1.0" encoding="utf-8"?>
<svg version="1.1" xmlns="http://www.w3.org/2000/svg" xmlns:xlink="http://www.w3.org/1999/xlink" x="0px" y="0px" width="60" height="72" viewBox="0 0 60 72" enable-background="new 0 0 60 72" xml:space="preserve">
<g id="bounds"><rect opacity="0" width="60" height="72"/></g>
<g id="icon">
<path fill-rule="evenodd" clip-rule="evenodd" d="M25,35l3.114-2.894L25,29v-7.95h10V37l-2.872,3.133L35,43v8H25V35z"/>
<path d="M30,63C15.112,63,3,50.888,3,36S15.112,9,30,9s27,12.112,27,27S44.888,63,30,63z M30,15C18.42,15,9,24.421,9,36s9.42,21,21,21s21-9.421,21-21S41.58,15,30,15z"/>
</g>
</svg>
