<?xml version="1.0" encoding="utf-8"?>
<svg version="1.1" xmlns="http://www.w3.org/2000/svg" xmlns:xlink="http://www.w3.org/1999/xlink" x="0px" y="0px" width="56" height="72" viewBox="0 0 56 72" enable-background="new 0 0 56 72" xml:space="preserve">
<g id="bounds"><rect opacity="0" width="56" height="72"/></g>
<g id="icon">
<path d="M50.95,13.049c-2.733-2.732-7.166-2.732-9.899,0l-3.636,3.636c2.229,0.704,4.355,1.951,6.151,3.748c1.796,1.797,3.043,3.923,3.747,6.154l3.637-3.637C53.683,20.215,53.683,15.784,50.95,13.049z"/>
<path d="M34.042,20.058L9.05,45.049c-0.114,0.114-0.216,0.235-0.32,0.354c2.22,0.705,4.335,1.951,6.125,3.74c1.789,1.79,3.035,3.906,3.74,6.127c0.12-0.105,0.241-0.207,0.355-0.321L43.94,29.959c-0.227-2.389-1.295-4.79-3.203-6.698C38.83,21.354,36.43,20.285,34.042,20.058z"/>
<path d="M12.026,51.972c-1.675-1.675-3.73-2.701-5.823-3.083L3.009,59.749c-0.103,0.352-0.006,0.73,0.252,0.989c0.19,0.19,0.446,0.293,0.707,0.293c0.094,0,0.189-0.014,0.282-0.041l10.859-3.193C14.727,55.703,13.701,53.647,12.026,51.972z"/>
</g>
</svg>
