<?xml version="1.0" encoding="utf-8"?>
<svg version="1.1" xmlns="http://www.w3.org/2000/svg" xmlns:xlink="http://www.w3.org/1999/xlink" x="0px" y="0px" width="88" height="72" viewBox="0 0 88 72" enable-background="new 0 0 88 72" xml:space="preserve">
<g id="bounds"><rect opacity="0" width="88" height="72"/></g>
<g id="icon">
<path d="M40.812,35.241c1.55,0,3.915-2.763,4.361-6.453c0.475-3.903-1.66-3.999-1.66-3.999S43.219,10.35,30,10.35c-1.685,0-4.331,0.244-6.537,2.232c-6.229,0.744-6.975,12.207-6.975,12.207s-2.136,0.096-1.661,3.999c0.447,3.69,2.811,6.453,4.361,6.453C19.188,35.241,23.326,46,30,46S40.812,35.241,40.812,35.241z"/>
<path d="M53,50.327c-2.339-1.171-6.673-2.826-13-4.327c-3.537,4.001-7.451,5-10,5s-6.463-0.999-10-5c-6.327,1.501-10.661,3.156-13,4.327C4.661,51.498,4,55.904,4,58c0,3,0.875,4,4,4h44c3.125,0,4-2,4-5C56,54.904,55.339,51.498,53,50.327z"/>
<path d="M72.542,36.02c1.194,0,3.016-2.129,3.36-4.972c0.366-3.007-1.279-3.081-1.279-3.081s-0.227-11.125-10.412-11.125c-1.299,0-3.337,0.188-5.036,1.72c-4.799,0.573-5.374,9.405-5.374,9.405s-1.646,0.073-1.28,3.081c0.344,2.844,2.165,4.972,3.36,4.972c0,0,3.188,8.29,8.33,8.29S72.542,36.02,72.542,36.02z"/>
<path d="M82.572,47.664c-1.871-0.936-5.338-2.26-10.397-3.461c-2.829,3.2-5.959,3.999-7.998,3.999c-1.147,0-2.642-0.273-4.231-1.063h-1.221C61.087,49.879,62,53.8,62,57h19.772c2.499,0,3.199-1.6,3.199-3.999C84.972,51.325,84.443,48.601,82.572,47.664z"/>
</g>
</svg>
