<?xml version="1.0" encoding="utf-8"?>
<svg version="1.1" xmlns="http://www.w3.org/2000/svg" xmlns:xlink="http://www.w3.org/1999/xlink" x="0px" y="0px" width="52" height="72" viewBox="0 0 52 72" enable-background="new 0 0 52 72" xml:space="preserve">
<g id="bounds"><rect opacity="0" width="52" height="72"/></g>
<g id="icon">
<path d="M26.256,58.408c3.61,0,17.915-15.153,17.915-25.313c0-9.725-8.135-17.785-17.915-17.785c-10.292,0-18.427,8.06-18.427,17.785C7.829,43.254,22.134,58.408,26.256,58.408L26.256,58.408z M26.256,63.859L26.256,63.859c-8.441,0-23.878-19.084-23.878-30.764c0-12.842,10.683-23.236,23.878-23.236c12.786,0,23.366,10.496,23.366,23.236C49.622,44.621,34.304,63.859,26.256,63.859L26.256,63.859z"/>
<ellipse cx="26" cy="32.941" rx="12.114" ry="11.754"/>
<ellipse fill="#FFFFFF" cx="18.933" cy="26.084" rx="5.048" ry="4.897"/>
</g>
</svg>
