<?xml version="1.0" encoding="utf-8"?>
<svg version="1.1" xmlns="http://www.w3.org/2000/svg" xmlns:xlink="http://www.w3.org/1999/xlink" x="0px" y="0px" width="17" height="21" viewBox="0 0 17 21" enable-background="new 0 0 17 21" xml:space="preserve">
<g>
<path d="M14.637,12.448c-0.819-0.621-1.846-0.555-2.463,0.139c-0.983,1.105-2.391,1.74-3.861,1.74c-1.412,0-2.731-0.562-3.716-1.584c-0.328-0.34-0.712-0.512-1.144-0.512c-0.437,0-0.826,0.188-1.155,0.362C0.816,13.379,0,15.068,0,17.353c0,0.342,0.02,0.682,0.06,1.019c0.079,0.668,0.54,1.239,1.173,1.456C3.509,20.605,5.891,21,8.312,21c2.575,0,5.1-0.445,7.502-1.323c0.63-0.229,1.079-0.81,1.145-1.478C16.986,17.919,17,17.637,17,17.353C17,15.291,16.205,13.641,14.637,12.448z"/>
<path d="M8.5,13c2.665,0,4.833-2.223,4.833-4.956V4.956C13.333,2.223,11.165,0,8.5,0S3.667,2.223,3.667,4.956v3.089C3.667,10.777,5.835,13,8.5,13z"/>
</g>
</svg>
