<?xml version="1.0" encoding="utf-8"?>
<svg version="1.1" xmlns="http://www.w3.org/2000/svg" xmlns:xlink="http://www.w3.org/1999/xlink" x="0px" y="0px" width="48" height="72" viewBox="0 0 48 72" enable-background="new 0 0 48 72" xml:space="preserve">
<g id="bounds"><rect opacity="0" width="48" height="72"/></g>
<g id="icon">
<path d="M24.299,8.667c-12.043,0-21.564,11.099-21.564,23.284c0,12.73,16.741,30.716,21.564,30.716c4.224,0,20.966-18.986,20.966-31.716C45.265,18.766,35.744,8.667,24.299,8.667z M24.37,42.531c-7.519,0-13.314-5.737-13.314-12.447c0-3.127,1.033-5.945,2.776-8.17c0,0.008-0.003,0.016-0.003,0.025c0,2.78,2.277,5.034,5.085,5.034s5.085-2.254,5.085-5.034c0-2.06-1.253-3.826-3.043-4.605c1.086-0.271,2.225-0.429,3.413-0.429c6.779,0,12.574,5.737,12.574,13.18C36.944,36.795,31.149,42.531,24.37,42.531z"/>
<path fill="#D75444" fill-opacity="0" d="M24.37,16.904c-1.189,0-2.327,0.158-3.413,0.429c1.79,0.78,3.043,2.545,3.043,4.605c0,2.78-2.277,5.034-5.085,5.034s-5.085-2.254-5.085-5.034c0-0.008,0.002-0.016,0.003-0.025c-1.744,2.226-2.776,5.044-2.776,8.17c0,6.711,5.795,12.447,13.314,12.447c6.779,0,12.574-5.737,12.574-12.447C36.944,22.641,31.149,16.904,24.37,16.904z"/>
</g>
</svg>
