<?xml version="1.0" encoding="utf-8"?>
<svg version="1.1" xmlns="http://www.w3.org/2000/svg" xmlns:xlink="http://www.w3.org/1999/xlink" x="0px" y="0px" width="46" height="56" viewBox="0 0 46 56" enable-background="new 0 0 46 56" xml:space="preserve">
<g id="bounds"><rect opacity="0" width="46" height="56"/></g>
<g id="icon">
<path d="M31.409,27.188c1.205,0,3.045-2.149,3.392-5.019c0.369-3.036-1.291-3.11-1.291-3.11S33.281,7.827,23,7.827c-1.311,0-3.369,0.19-5.084,1.736c-4.844,0.579-5.425,9.494-5.425,9.494s-1.661,0.074-1.292,3.11c0.348,2.87,2.186,5.019,3.392,5.019c0,0,3.218,8.368,8.409,8.368S31.409,27.188,31.409,27.188z"/>
<path d="M40.889,38.921c-1.819-0.911-5.19-2.198-10.111-3.366c-2.751,3.112-5.795,3.889-7.778,3.889s-5.027-0.777-7.778-3.889c-4.921,1.167-8.292,2.455-10.111,3.366c-1.82,0.911-2.333,3.56-2.333,5.19c0,2.333,0.68,3.889,3.111,3.889h34.222c2.431,0,3.111-1.556,3.111-3.889C43.222,42.481,42.708,39.832,40.889,38.921z"/>
</g>
</svg>
