<?xml version="1.0" encoding="utf-8"?>
<svg version="1.1" xmlns="http://www.w3.org/2000/svg" xmlns:xlink="http://www.w3.org/1999/xlink" x="0px" y="0px" width="58" height="72" viewBox="0 0 58 72" enable-background="new 0 0 58 72" xml:space="preserve">
<g id="bounds"><rect opacity="0" width="58" height="72"/></g>
<g id="icon">
<path d="M39.812,34.892c1.55,0,3.915-2.763,4.361-6.453c0.475-3.903-1.66-3.999-1.66-3.999S42.219,10,29,10c-1.685,0-4.331,0.244-6.537,2.232c-6.229,0.744-6.975,12.207-6.975,12.207s-2.136,0.096-1.661,3.999c0.447,3.69,2.811,6.453,4.361,6.453c0,0,4.137,10.759,10.812,10.759S39.812,34.892,39.812,34.892z"/>
<path d="M52,49.977c-2.339-1.171-6.673-2.826-13-4.327c-3.537,4.001-7.451,5-10,5s-6.463-0.999-10-5c-6.327,1.501-10.661,3.156-13,4.327c-2.339,1.171-3,4.577-3,6.673c0,3,0.875,5,4,5h44c3.125,0,4-2,4-5C55,54.555,54.339,51.148,52,49.977z"/>
</g>
</svg>
