<?xml version="1.0" encoding="utf-8"?>
<svg version="1.1" xmlns="http://www.w3.org/2000/svg" xmlns:xlink="http://www.w3.org/1999/xlink" x="0px" y="0px" width="60" height="72" viewBox="0 0 60 72" enable-background="new 0 0 60 72" xml:space="preserve">
<g id="bounds"><rect opacity="0" width="60" height="72"/></g>
<g id="icon">
<path opacity="0" d="M23.702,29.715c0,0-0.993,0.044-0.772,1.86c0.208,1.716,1.307,3.001,2.028,3.001c0,0,1.924,5.003,5.028,5.003s5.028-5.003,5.028-5.003c0.721,0,1.82-1.285,2.028-3.001c0.221-1.815-0.772-1.86-0.772-1.86S36.133,23,29.986,23c-0.784,0-2.014,0.114-3.04,1.038C24.049,24.384,23.702,29.715,23.702,29.715z"/>
<path opacity="0" d="M41.614,42.059c-0.011-0.008-0.022-0.015-0.033-0.022c-0.706-0.429-4.002-1.314-6.945-2.012c-1.645,1.861-3.465,2.325-4.65,2.325s-3.006-0.464-4.651-2.325c-2.942,0.698-6.238,1.583-6.945,2.012c-0.011,0.007-0.023,0.014-0.033,0.022c-1.068,0.564-1.393,1.641-1.393,2.616c0,1.395,0.16,2.325,0.917,2.325h0.485h23.238h0.485c0.757,0,0.917-0.93,0.917-2.325C43.007,43.7,42.682,42.622,41.614,42.059z"/>
<path d="M29.986,9c-14.888,0-27,12.112-27,27s12.112,27,27,27s27-12.112,27-27S44.874,9,29.986,9z M42.09,47h-0.485H18.367h-0.485c-0.757,0-0.917-0.93-0.917-2.325c0-0.975,0.325-2.052,1.393-2.616c0.011-0.008,0.022-0.015,0.033-0.022c0.706-0.429,4.002-1.314,6.945-2.012c1.645,1.861,3.465,2.325,4.651,2.325s3.006-0.464,4.65-2.325c2.942,0.698,6.239,1.583,6.945,2.012c0.011,0.007,0.023,0.014,0.033,0.022c1.068,0.564,1.393,1.641,1.393,2.616C43.007,46.07,42.847,47,42.09,47z M29.986,23c6.147,0,6.284,6.715,6.284,6.715s0.993,0.044,0.772,1.86c-0.208,1.716-1.307,3.001-2.028,3.001c0,0-1.924,5.003-5.028,5.003s-5.028-5.003-5.028-5.003c-0.721,0-1.82-1.285-2.028-3.001c-0.221-1.815,0.772-1.86,0.772-1.86s0.347-5.331,3.244-5.677C27.971,23.114,29.202,23,29.986,23z"/>
</g>
</svg>
