<?xml version="1.0" encoding="utf-8"?>
<svg version="1.1" xmlns="http://www.w3.org/2000/svg" xmlns:xlink="http://www.w3.org/1999/xlink" x="0px" y="0px" width="60" height="72" viewBox="0 0 60 72" enable-background="new 0 0 60 72" xml:space="preserve">
<g id="bounds"><rect opacity="0" width="60" height="72"/></g>
<g id="icon">
<path d="M55.791,28.715l-5.409-4.599l2.852-7.657c0.294-0.788,0.062-1.676-0.577-2.221c-0.642-0.545-1.554-0.632-2.285-0.217l-7.111,4.041l-5.593-4.753c-0.675-0.574-1.645-0.635-2.388-0.151c-0.742,0.483-1.077,1.398-0.824,2.246l1.954,6.551l-6.397,3.635c-0.748,0.426-1.141,1.281-0.974,2.125c0.166,0.845,0.854,1.488,1.706,1.598l4.164,0.537L6.879,57.879c-1.172,1.171-1.172,3.071,0,4.242C7.465,62.707,8.233,63,9,63s1.535-0.293,2.121-0.879l28.707-28.707l1.446,4.849c0.246,0.824,0.991,1.399,1.851,1.428c0.022,0.001,0.045,0.001,0.066,0.001c0.833,0,1.582-0.518,1.874-1.302l2.57-6.9l6.767,0.871c0.086,0.012,0.172,0.017,0.257,0.017c1.084,0,2.019-0.89,2.019-2C56.678,29.685,56.327,29.073,55.791,28.715z"/>
<path d="M18.723,11.411c1.429-2.363,4.501-3.119,6.866-1.689c2.36,1.428,3.118,4.502,1.688,6.864c-1.428,2.362-4.503,3.119-6.864,1.691C18.05,16.849,17.294,13.773,18.723,11.411z"/>
<circle cx="5.992" cy="31" r="2.998"/>
<path d="M6.57,17.929c1.144-1.89,3.603-2.496,5.494-1.352c1.887,1.143,2.494,3.602,1.35,5.494c-1.143,1.889-3.602,2.495-5.491,1.351C6.032,22.278,5.426,19.818,6.57,17.929z"/>
</g>
</svg>
