<?xml version="1.0" encoding="utf-8"?>
<svg version="1.1" xmlns="http://www.w3.org/2000/svg" xmlns:xlink="http://www.w3.org/1999/xlink" x="0px" y="0px" width="60" height="72" viewBox="0 0 60 72" enable-background="new 0 0 60 72" xml:space="preserve">
<g id="bounds"><rect opacity="0" width="60" height="72"/></g>
<g id="icon">
<path d="M46.227,30.895C46.725,29.351,47,27.707,47,26c0-8.822-7.178-16-16-16s-16,7.178-16,16c0,1.516,0.225,2.977,0.621,4.366C8.416,31.923,3,38.338,3,46c0,8.822,7.178,16,16,16c4.262,0,8.129-1.686,11-4.411C32.87,60.314,36.739,62,41,62c8.822,0,16-7.178,16-16C57,39.01,52.487,33.067,46.227,30.895z M19,56c-5.514,0-10-4.486-10-10c0-5.36,4.244-9.738,9.547-9.977c1.865,2.313,4.363,4.088,7.225,5.082C25.276,42.649,25,44.293,25,46c0,2.369,0.531,4.611,1.459,6.637C24.627,54.694,21.965,56,19,56z M28.745,35.733C24.315,34.707,21,30.737,21,26c0-5.514,4.486-10,10-10s10,4.486,10,10c0,1.44-0.312,2.806-0.863,4.044C35.573,30.289,31.508,32.44,28.745,35.733z M41,56c-5.514,0-10-4.486-10-10s4.486-10,10-10s10,4.486,10,10S46.514,56,41,56z"/>
</g>
</svg>
