<?xml version="1.0" encoding="utf-8"?>
<svg version="1.1" xmlns="http://www.w3.org/2000/svg" xmlns:xlink="http://www.w3.org/1999/xlink" x="0px" y="0px" width="60" height="72" viewBox="0 0 60 72" enable-background="new 0 0 60 72" xml:space="preserve">
<g id="bounds"><rect opacity="0" width="60" height="72"/></g>
<g id="icon">
<path d="M35,30H24v11c0,0.553,0.447,1,1,1h11V31C36,30.447,35.553,30,35,30z"/>
<path d="M30,9C15.112,9,3,21.112,3,36s12.112,27,27,27s27-12.112,27-27S44.888,9,30,9z M43,46h-3v3c0,1.104-0.896,2-2,2s-2-0.896-2-2v-3H22c-1.104,0-2-0.896-2-2V30h-3c-1.104,0-2-0.896-2-2s0.896-2,2-2h3v-3c0-1.104,0.896-2,2-2s2,0.896,2,2v3h14c1.104,0,2,0.896,2,2v14h3c1.104,0,2,0.896,2,2S44.104,46,43,46z"/>
</g>
</svg>
