<?xml version="1.0" encoding="utf-8"?>
<svg version="1.1" xmlns="http://www.w3.org/2000/svg" xmlns:xlink="http://www.w3.org/1999/xlink" x="0px" y="0px" width="60" height="72" viewBox="0 0 60 72" enable-background="new 0 0 60 72" xml:space="preserve">
<g id="bounds"><rect opacity="0" width="60" height="72"/></g>
<g id="icon">
<path d="M30,9C15.112,9,3,21.112,3,36s12.112,27,27,27s27-12.112,27-27S44.888,9,30,9z M41,48c0,2.206-1.794,4-4,4H23c-2.206,0-4-1.794-4-4V24c0-2.206,1.794-4,4-4h14c2.206,0,4,1.794,4,4V48z"/>
<path d="M23,25v21.975L26.799,42l2.039,2.549L33,39l3.995,5.516L37,24.999C36.999,24.447,36.552,24,36,24H24C23.447,24,23,24.447,23,25z M29,29c1.104,0,2,0.895,2,2c0,1.105-0.896,2-2,2s-2-0.895-2-2C27,29.895,27.896,29,29,29z"/>
</g>
</svg>
