<?xml version="1.0" encoding="utf-8"?>
<svg version="1.1" xmlns="http://www.w3.org/2000/svg" xmlns:xlink="http://www.w3.org/1999/xlink" x="0px" y="0px" width="60" height="72" viewBox="0 0 60 72" enable-background="new 0 0 60 72" xml:space="preserve">
<g id="bounds"><rect opacity="0" width="60" height="72"/></g>
<g id="icon">
<path d="M34.95,9.463V3c0-0.773-0.445-1.477-1.143-1.808c-0.699-0.331-1.524-0.23-2.122,0.259l-10.95,8.95C20.27,10.781,20,11.35,20,11.95s0.27,1.169,0.734,1.549l10.95,8.949c0.364,0.298,0.813,0.451,1.266,0.451c0.291,0,0.583-0.064,0.856-0.193c0.698-0.33,1.143-1.034,1.143-1.807v-5.286C44.144,17.848,51,26.129,51,36c0,11.579-9.42,21-21,21c-1.657,0-3,1.343-3,3s1.343,3,3,3c14.888,0,27-12.112,27-27C57,22.804,47.481,11.795,34.95,9.463z"/>
<circle cx="14" cy="18" r="3"/>
<circle cx="19" cy="58" r="3"/>
<circle cx="10" cy="51" r="3"/>
<circle cx="6" cy="40" r="3"/>
<circle cx="7" cy="28" r="3"/>
</g>
</svg>
