<?xml version="1.0" encoding="utf-8"?>
<svg version="1.1" xmlns="http://www.w3.org/2000/svg" xmlns:xlink="http://www.w3.org/1999/xlink" x="0px" y="0px" width="70" height="72" viewBox="0 0 70 72" enable-background="new 0 0 70 72" xml:space="preserve">
<g id="bounds"><rect opacity="0" width="70" height="72"/></g>
<g id="icon">
<circle cx="29" cy="26" r="4"/>
<path d="M56,9H14C7.935,9,3,13.935,3,20v29c0,6.065,4.935,11,11,11h42c6.065,0,11-4.935,11-11V20C67,13.935,62.065,9,56,9z M14,15h42c2.757,0,5,2.243,5,5v20.356L48,28L30,47L19,35L9,45.073V20C9,17.243,11.243,15,14,15z"/>
</g>
</svg>
