<?xml version="1.0" encoding="utf-8"?>
<svg version="1.1" xmlns="http://www.w3.org/2000/svg" xmlns:xlink="http://www.w3.org/1999/xlink" x="0px" y="0px" width="70" height="72" viewBox="0 0 70 72" enable-background="new 0 0 70 72" xml:space="preserve">
<g id="bounds"><rect opacity="0" width="70" height="72"/></g>
<g id="icon">
<path d="M19,37c0-8.837,7.163-16,16-16c1.43,0,2.81,0.205,4.128,0.558l8.951-8.951C46.981,11.248,45.69,11,44.14,11H25.994c-1.748,0-3.166,0.308-4.35,2.173C21.19,13.891,20.56,14.957,19.958,16H11c-4.418,0-8,3.582-8,8v29c0,1.355,0.34,2.632,0.935,3.751l15.622-15.622C19.206,39.81,19,38.43,19,37z"/>
<path d="M51,37c0,8.837-7.163,16-16,16c-1.43,0-2.81-0.205-4.128-0.558L22.314,61H59c4.418,0,8-3.582,8-8V24c0-2.129-0.837-4.059-2.194-5.492L50.442,32.871C50.794,34.19,51,35.57,51,37z"/>
<path d="M61.879,5.879l-58,58c-1.172,1.171-1.172,3.071,0,4.242C4.464,68.707,5.232,69,6,69s1.536-0.293,2.121-0.879l58-58c1.172-1.171,1.172-3.071,0-4.242C64.95,4.707,63.05,4.707,61.879,5.879z"/>
</g>
</svg>
