<?xml version="1.0" encoding="utf-8"?>
<svg version="1.1" xmlns="http://www.w3.org/2000/svg" xmlns:xlink="http://www.w3.org/1999/xlink" x="0px" y="0px" width="56" height="72" viewBox="0 0 56 72" enable-background="new 0 0 56 72" xml:space="preserve">
<g id="bounds"><rect opacity="0" width="56" height="72"/></g>
<g id="icon">
<path d="M50.005,58.004c-0.789,0.789-1.824,1.184-2.858,1.184s-2.069-0.395-2.858-1.184L34.102,47.818l-9.528,9.528c-0.953,0.953-1.733,0.287-1.905,0c-2.158-3.336-1.907-9.528,0-13.34L11.233,30.668c0,0-5.753,1.867-7.622,0c-0.953-0.954,0.003-1.905,0.003-1.905l17.149-17.151c0,0,0.953-0.953,1.905,0c1.867,1.869,0,7.622,0,7.622l13.338,11.435c3.812-1.907,10.006-2.158,13.34-0.001c0.287,0.174,0.953,0.953,0,1.907l-9.528,9.528l10.186,10.186C51.584,53.866,51.584,56.427,50.005,58.004z"/>
</g>
</svg>
