<?xml version="1.0" encoding="utf-8"?>
<svg version="1.1" xmlns="http://www.w3.org/2000/svg" xmlns:xlink="http://www.w3.org/1999/xlink" x="0px" y="0px" width="320px" height="180px" viewBox="0 0 320 180" enable-background="new 0 0 320 180" xml:space="preserve">
<rect fill="#1B80D8" width="320" height="180"/>
<path fill="#1D8DEE" d="M320,0h-13.111c-26.457,9.665-45.452,36.076-45.452,67.154c0,5.571,0.61,10.973,1.748,16.185c-56.291-2.975-106.159-31.258-139.561-74.271c-5.823,10.512-9.159,22.717-9.159,35.731c0,24.661,11.956,46.428,30.119,59.171c-11.098-0.375-21.539-3.567-30.667-8.894c-0.01,0.299-0.01,0.597-0.01,0.879c0,34.45,23.339,63.189,54.321,69.715c-5.694,1.618-11.667,2.481-17.836,2.481c-4.375,0-8.621-0.423-12.748-1.254c1.401,4.588,3.236,8.97,5.451,13.1H320V0z"/>
</svg>
