<?xml version="1.0" encoding="utf-8"?>
<svg version="1.1" xmlns="http://www.w3.org/2000/svg" xmlns:xlink="http://www.w3.org/1999/xlink" x="0px" y="0px" width="64" height="72" viewBox="0 0 64 72" enable-background="new 0 0 64 72" xml:space="preserve">
<g id="bounds"><rect opacity="0" width="64" height="72"/></g>
<g id="icon">
<path d="M52.999,36.001C52.999,47.598,43.598,57,32,57c-2.586,0-5.053-0.49-7.34-1.345l-4.569,4.568C23.686,61.998,27.727,63,32,63c14.888,0,27-12.111,27-26.999c0-4.272-1.002-8.314-2.776-11.909l-4.569,4.568C52.509,30.948,52.999,33.415,52.999,36.001z"/>
<path d="M10.999,36.001c0-11.597,9.401-20.999,21-20.999c3.129,0,6.087,0.703,8.754,1.93l4.461-4.461C41.306,10.267,36.799,9.002,32,9.002c-14.888,0-27,12.111-27,26.999c0,4.8,1.265,9.307,3.47,13.217l4.461-4.461C11.703,42.089,10.999,39.13,10.999,36.001z"/>
<path d="M61.122,12.121c1.172-1.171,1.172-3.071,0-4.242c-1.171-1.172-3.071-1.172-4.242,0L38.611,26.147l4.848,3.636L61.122,12.121z"/>
<path d="M21,43.758L3.879,60.879c-1.172,1.171-1.172,3.071,0,4.242C4.465,65.707,5.233,66,6,66s1.536-0.293,2.121-0.879l15.083-15.083C21.815,48.737,21,46.914,21,44.939V43.758z"/>
<path d="M27.106,25.15C26.429,25.489,26,26.182,26,26.94v18c0,0.758,0.428,1.45,1.105,1.789c0.283,0.142,0.589,0.211,0.895,0.211c0.425,0,0.847-0.136,1.2-0.4l12-9c0.503-0.377,0.8-0.97,0.8-1.6c0-0.63-0.296-1.223-0.8-1.6l-12-9C28.594,24.884,27.783,24.812,27.106,25.15z"/>
</g>
</svg>
