<?xml version="1.0" encoding="utf-8"?>
<svg version="1.1" xmlns="http://www.w3.org/2000/svg" xmlns:xlink="http://www.w3.org/1999/xlink" x="0px" y="0px" width="60" height="72" viewBox="0 0 60 72" enable-background="new 0 0 60 72" xml:space="preserve">
<g id="bounds"><rect opacity="0" width="60" height="72"/></g>
<g id="icon">
<path d="M30,8.925c-14.888,0-27,12.112-27,27s12.112,27,27,27s27-12.112,27-27S44.888,8.925,30,8.925z M39.921,37.167L26.012,47.47c-0.271,0.201-0.595,0.303-0.92,0.303c-0.237,0-0.475-0.054-0.695-0.165c-0.521-0.263-0.85-0.797-0.85-1.38V25.622c0-0.583,0.329-1.118,0.85-1.38c0.522-0.263,1.146-0.208,1.615,0.138l13.909,10.303c0.393,0.292,0.626,0.753,0.626,1.242C40.547,36.414,40.315,36.875,39.921,37.167z"/>
</g>
</svg>
