<?xml version="1.0" encoding="utf-8"?>
<svg version="1.1" xmlns="http://www.w3.org/2000/svg" xmlns:xlink="http://www.w3.org/1999/xlink" x="0px" y="0px" width="60" height="72" viewBox="0 0 60 72" enable-background="new 0 0 60 72" xml:space="preserve">
<g id="bounds"><rect opacity="0" width="60" height="72"/></g>
<g id="icon">
<path opacity="0.8" d="M30.001,15C18.421,15,9,24.419,9,35.999s9.42,20.999,21,20.999s21-9.419,21-20.999S41.581,15,30.001,15L30.001,15z"/>
<path opacity="0.8" fill="#FFFFFF" d="M39.201,34.34l-12-9c-0.607-0.455-1.419-0.528-2.095-0.189c-0.677,0.339-1.106,1.031-1.106,1.789v18c0,0.758,0.428,1.45,1.106,1.789c0.283,0.142,0.589,0.211,0.894,0.211c0.425,0,0.847-0.136,1.2-0.4l12-9c0.503-0.377,0.8-0.97,0.8-1.6C40.001,35.31,39.705,34.717,39.201,34.34z"/>
<path opacity="0.8" fill="#FFFFFF" d="M30,15c11.598,0,21,9.402,21,20.999s-9.401,20.999-21,20.999c-11.599,0-21-9.402-21-20.999S18.401,15,30,15 M30,9C15.112,9,3,21.111,3,35.999s12.112,26.999,27,26.999c14.888,0,27-12.111,27-26.999S44.888,9,30,9L30,9z"/>
</g>
</svg>
