<?xml version="1.0" encoding="utf-8"?>
<svg version="1.1" xmlns="http://www.w3.org/2000/svg" xmlns:xlink="http://www.w3.org/1999/xlink" x="0px" y="0px" width="60" height="72" viewBox="0 0 60 72" enable-background="new 0 0 60 72" xml:space="preserve">
<g id="bounds"><rect opacity="0" width="60" height="72"/></g>
<g id="icon">
<path d="M30,15c11.598,0,21,9.402,21,20.999s-9.401,20.999-21,20.999c-11.599,0-21-9.402-21-20.999S18.401,15,30,15 M30,9C15.112,9,3,21.111,3,35.999s12.112,26.999,27,26.999c14.888,0,27-12.111,27-26.999S44.888,9,30,9L30,9z"/>
<path d="M39,33h-6v-6c0-1.657-1.343-3-3-3s-3,1.343-3,3v6h-6c-1.657,0-3,1.343-3,3s1.343,3,3,3h6v6c0,1.657,1.343,3,3,3s3-1.343,3-3v-6h6c1.657,0,3-1.343,3-3S40.657,33,39,33z"/>
</g>
</svg>
