<?xml version="1.0" encoding="utf-8"?>
<svg version="1.1" xmlns="http://www.w3.org/2000/svg" xmlns:xlink="http://www.w3.org/1999/xlink" x="0px" y="0px" width="62" height="72" viewBox="0 0 62 72" enable-background="new 0 0 62 72" xml:space="preserve">
<g id="bounds"><rect opacity="0" width="62" height="72"/></g>
<g id="icon">
<path d="M51,14H11c-4.419,0-8,3.581-8,8v28c0,4.418,3.581,8,8,8h40c4.418,0,8-3.582,8-8V22C59,17.581,55.418,14,51,14z M44,41c0,1.657-1.343,3-3,3s-3-1.343-3-3v-6.758L23.122,49.121C22.536,49.707,21.768,50,21,50s-1.535-0.293-2.121-0.879c-1.172-1.171-1.172-3.071,0-4.242L33.758,30H27c-1.657,0-3-1.343-3-3c0-1.657,1.343-3,3-3h14c1.657,0,3,1.343,3,3V41z"/>
</g>
</svg>
