<?xml version="1.0" encoding="utf-8"?>
<svg version="1.1" xmlns="http://www.w3.org/2000/svg" xmlns:xlink="http://www.w3.org/1999/xlink" x="0px" y="0px" width="11" height="11" viewBox="0 0 11 11" enable-background="new 0 0 11 11" xml:space="preserve">
<g id="bounds"><rect opacity="0" width="11" height="11"/></g>
<g id="icon">
<path d="M10.166,4.384c-0.072-0.223-0.28-0.376-0.516-0.376H6.933L6.012,1.313C5.938,1.095,5.732,0.947,5.5,0.947S5.062,1.094,4.987,1.313l-0.92,2.694H1.35c-0.235,0-0.444,0.152-0.516,0.376c-0.072,0.224,0.01,0.468,0.202,0.604l2.17,1.538L2.281,9.233c-0.076,0.222,0,0.467,0.189,0.607c0.189,0.14,0.445,0.143,0.637,0.008L5.5,8.151l2.393,1.696c0.094,0.067,0.204,0.1,0.314,0.1c0.114,0,0.228-0.036,0.323-0.107C8.718,9.7,8.794,9.455,8.718,9.233L7.794,6.526l2.17-1.538C10.155,4.851,10.237,4.607,10.166,4.384z"/>
</g>
</svg>
