<?xml version="1.0" encoding="utf-8"?>
<svg version="1.1" xmlns="http://www.w3.org/2000/svg" xmlns:xlink="http://www.w3.org/1999/xlink" x="0px" y="0px" width="60" height="72" viewBox="0 0 60 72" enable-background="new 0 0 60 72" xml:space="preserve">
<g id="bounds"><rect opacity="0" width="60" height="72"/></g>
<g id="icon">
<path d="M30,9C15.113,9,3,21.112,3,36c0,1.657,1.343,3,3,3s3-1.343,3-3c0-11.579,9.42-21,21-21s21,9.421,21,21s-9.42,21-21,21c-3.654,0-7.159-0.943-10.261-2.688l3.752-4.894c0.47-0.613,0.545-1.442,0.192-2.13c-0.354-0.688-1.097-1.118-1.842-1.086L7.636,46.652c-0.6,0.019-1.159,0.306-1.524,0.782c-0.365,0.476-0.497,1.091-0.36,1.675l3.252,13.835c0.177,0.752,0.771,1.335,1.527,1.497c0.14,0.03,0.28,0.045,0.42,0.045c0.614,0,1.204-0.283,1.587-0.783l3.511-4.579C20.217,61.648,25.005,63,30,63c14.888,0,27-12.112,27-27S44.888,9,30,9z"/>
</g>
</svg>
