<?xml version="1.0" encoding="utf-8"?>
<!-- Generator: Adobe Illustrator 18.1.1, SVG Export Plug-In . SVG Version: 6.00 Build 0)  -->
<svg version="1.1" xmlns="http://www.w3.org/2000/svg" xmlns:xlink="http://www.w3.org/1999/xlink" x="0px" y="0px" width="62" height="72" viewBox="0 0 62 72" enable-background="new 0 0 62 72" xml:space="preserve">
<g id="bounds"><rect opacity="0" width="62" height="72"/></g>
<g id="icon">
<path d="M41,31h-9V19c0-1.141-0.647-2.183-1.668-2.688c-1.022-0.507-2.243-0.389-3.149,0.302l-21,16C5.437,33.181,5,34.063,5,35s0.437,1.819,1.182,2.387l21,16C27.715,53.792,28.356,54,29.001,54c0.454,0,0.909-0.103,1.331-0.312C31.354,53.183,32,52.141,32,51V39h9c5.514,0,10,4.486,10,10c0,2.209,1.791,4,4,4s4-1.791,4-4C59,39.075,50.925,31,41,31z"/>
</g>
</svg>
