<?xml version="1.0" encoding="utf-8"?>
<svg version="1.1" xmlns="http://www.w3.org/2000/svg" xmlns:xlink="http://www.w3.org/1999/xlink" x="0px" y="0px" width="60" height="72" viewBox="0 0 60 72" enable-background="new 0 0 60 72" xml:space="preserve">
<g id="bounds"><rect opacity="0" width="60" height="72"/></g>
<g id="icon">
<path opacity="0" d="M33.576,32.845h-2.783v-6.419c0-0.823-0.472-1.572-1.213-1.929c-0.741-0.356-1.621-0.255-2.264,0.258l-10.699,8.559c-0.507,0.406-0.803,1.021-0.803,1.671s0.296,1.265,0.803,1.671l10.699,8.559c0.387,0.31,0.86,0.469,1.337,0.469c0.315,0,0.632-0.069,0.926-0.211c0.741-0.356,1.213-1.106,1.213-1.929v-6.419h2.783c2.949,0,5.349,2.4,5.349,5.349c0,1.182,0.958,2.14,2.14,2.14c1.182,0,2.14-0.958,2.14-2.14C43.205,37.165,38.885,32.845,33.576,32.845z"/>
<path d="M30,9C15.112,9,3,21.112,3,36s12.112,27,27,27s27-12.112,27-27S44.888,9,30,9z M41.065,44.614c-1.182,0-2.14-0.958-2.14-2.14c0-2.949-2.4-5.349-5.349-5.349h-2.783v6.419c0,0.823-0.472,1.572-1.213,1.929c-0.295,0.142-0.611,0.211-0.926,0.211c-0.478,0-0.95-0.159-1.337-0.469l-10.699-8.559c-0.507-0.406-0.803-1.021-0.803-1.671c0-0.65,0.296-1.265,0.803-1.671l10.699-8.559c0.643-0.514,1.523-0.614,2.264-0.258c0.741,0.356,1.213,1.106,1.213,1.929v6.419h2.783c5.309,0,9.629,4.32,9.629,9.629C43.205,43.656,42.247,44.614,41.065,44.614z"/>
</g>
</svg>
