<?xml version="1.0" encoding="utf-8"?>
<svg version="1.1" xmlns="http://www.w3.org/2000/svg" xmlns:xlink="http://www.w3.org/1999/xlink" x="0px" y="0px" width="54" height="72" viewBox="0 0 54 72" enable-background="new 0 0 54 72" xml:space="preserve">
<g id="bounds"><rect opacity="0" width="54" height="72"/></g>
<g id="icon">
<path d="M32,10H22C11.5,10,3,18.5,3,29c0,10.1,8,18.5,18,19v9c0,0.8,0.4,1.5,1.1,1.8c0.3,0.1,0.6,0.2,0.9,0.2c0.4,0,0.8-0.1,1.2-0.4l19-14.2c0.5-0.4,1-0.8,1.5-1.2c4-3.6,6.3-8.7,6.3-14.1C51,18.5,42.5,10,32,10z"/>
</g>
</svg>
