<?xml version="1.0" encoding="utf-8"?>
<svg version="1.1" xmlns="http://www.w3.org/2000/svg" xmlns:xlink="http://www.w3.org/1999/xlink" x="0px" y="0px" width="74" height="72" viewBox="0 0 74 72" enable-background="new 0 0 74 72" xml:space="preserve">
<g id="bounds"><rect opacity="0" width="74" height="72"/></g>
<g id="icon">
<path d="M70.676,36.644C70.165,35.636,69.131,35,68,35h-7V19c0-2.209-1.791-4-4-4H34c-2.209,0-4,1.791-4,4s1.791,4,4,4h18c0.552,0,0.998,0.446,1,0.998V35h-7c-1.13,0-2.165,0.636-2.676,1.644c-0.511,1.009-0.412,2.219,0.257,3.131l11,15C55.147,55.545,56.045,56,57.001,56s1.854-0.455,2.419-1.226l11-15C71.088,38.862,71.187,37.652,70.676,36.644z"/>
<path d="M40.001,48H22c-0.539,0-0.97-0.427-0.992-0.96L21.001,36h7c1.13,0,2.165-0.636,2.676-1.644c0.511-1.009,0.412-2.219-0.257-3.131l-11-15C18.854,15.455,17.956,15,17,15s-1.854,0.455-2.419,1.226l-11,15c-0.668,0.912-0.768,2.122-0.256,3.131C3.836,35.364,4.871,36,6.001,36h7l0.011,16.003c0.002,2.208,1.792,3.997,4,3.997h22.989c2.209,0,4-1.791,4-4S42.21,48,40.001,48z"/>
</g>
</svg>
