<?xml version="1.0" encoding="utf-8"?>
<svg version="1.1" xmlns="http://www.w3.org/2000/svg" xmlns:xlink="http://www.w3.org/1999/xlink" x="0px" y="0px" width="60" height="72" viewBox="0 0 60 72" enable-background="new 0 0 60 72" xml:space="preserve">
<g id="bounds"><rect opacity="0" width="60" height="72"/></g>
<g id="icon">
<circle fill="#FFFFFF" cx="30" cy="36" r="25"/>
<path d="M30,9C15.112,9,3,21.112,3,36s12.112,27,27,27s27-12.112,27-27S44.888,9,30,9z M30.307,46.907h-8.36c-1.723,0-3.125-1.402-3.125-3.125v-9.313h-4.167c-0.407,0-0.776-0.237-0.947-0.606c-0.17-0.37-0.109-0.805,0.156-1.113l6.25-7.292c0.396-0.462,1.186-0.462,1.582,0l6.25,7.292c0.264,0.309,0.325,0.744,0.156,1.113c-0.17,0.369-0.54,0.606-0.946,0.606h-4.167v7.23c0,0.576,0.466,1.042,1.042,1.042h6.277c1.15,0,2.083,0.933,2.083,2.083S31.457,46.907,30.307,46.907z M46.135,39.251l-6.25,7.292c-0.197,0.231-0.486,0.364-0.79,0.364s-0.593-0.133-0.791-0.364l-6.25-7.292c-0.264-0.309-0.325-0.744-0.156-1.113c0.17-0.369,0.54-0.606,0.947-0.606h4.167v-7.23c0-0.576-0.466-1.042-1.041-1.042h-6.312c-1.151,0-2.083-0.933-2.083-2.083s0.933-2.083,2.083-2.083h8.395c1.723,0,3.125,1.402,3.125,3.125v9.313h4.167c0.407,0,0.776,0.237,0.946,0.606C46.461,38.508,46.401,38.943,46.135,39.251z"/>
</g>
</svg>
