<?xml version="1.0" encoding="utf-8"?>
<svg version="1.1" xmlns="http://www.w3.org/2000/svg" xmlns:xlink="http://www.w3.org/1999/xlink" x="0px" y="0px" width="20" height="20" viewBox="0 0 20 20" enable-background="new 0 0 20 20" xml:space="preserve">
<g id="bounds"><rect opacity="0" width="20" height="20"/></g>
<g id="icon">
<path fill="#107CDA" d="M9.99,20c-1.664,0-3.327,0-4.991,0c-2.762,0-5-2.237-5-4.999c0-3.334,0-6.669,0-10.003c0-2.761,2.237-4.999,4.999-4.999c3.335,0,6.669,0,10.004,0c2.761,0,4.999,2.237,4.999,4.999c0,3.334-0.001,6.669,0,10.003c0,2.762-2.238,5-5,4.999C13.331,20,11.66,20,9.99,20z"/>
<path fill="#FFFFFF" d="M18.303,6.553c0-0.15,0-0.15-0.149-0.15c-1.582,0-3.164,0-4.745,0c-0.144,0-0.144,0-0.144,0.146c0,1.146,0,2.291,0,3.437c0,1.155,0.001,2.311-0.002,3.466c0,0.099,0.029,0.128,0.127,0.127c0.439-0.005,0.879-0.002,1.318-0.002c0.135,0,0.136-0.001,0.136-0.133c0-0.885,0-1.771,0-2.656c0-0.181-0.029-0.177,0.181-0.177c0.885,0,1.771,0,2.656,0c0.163,0,0.163,0,0.163-0.168c0-0.29,0-0.579,0-0.869c0-0.186,0-0.186-0.185-0.186c-0.895,0-1.79,0-2.685,0c-0.07,0-0.134,0.008-0.133-0.101c0.004-0.485,0.003-0.97,0.001-1.455c0-0.075,0.023-0.109,0.1-0.102c0.036,0.003,0.072,0,0.107,0c1.032,0,2.063,0,3.095,0c0.158,0,0.158,0,0.158-0.162C18.303,7.23,18.303,6.891,18.303,6.553z"/>
<path fill="#FFFFFF" d="M11.386,9.856c-0.442,0.004-0.885,0.004-1.327,0C9.971,9.856,9.941,9.884,9.941,9.974c0.003,1.171,0.003,2.342,0,3.513c0,0.088,0.031,0.11,0.113,0.109c0.439-0.003,0.878-0.001,1.317-0.002c0.13,0,0.13-0.001,0.13-0.128c0-0.576,0-1.151,0-1.727c0-0.586-0.002-1.171,0.002-1.757C11.505,9.893,11.484,9.855,11.386,9.856z"/>
<path fill="#FFFFFF" d="M8.303,9.706c0-0.001,0-0.002,0-0.003C8.288,9.697,8.274,9.699,8.259,9.699c-0.026-0.003-0.05-0.012-0.076-0.012c-0.917,0-1.834,0-2.751,0c-0.026,0-0.051,0.008-0.077,0.012c-0.015,0-0.03-0.003-0.045,0.004c0,0.001,0,0.002,0,0.002c-0.004,0.002-0.008,0-0.012,0.002c-0.001,0.364-0.003,0.728-0.004,1.092c0,0.02,0.007,0.038,0.015,0.056c0,0.003,0,0.007,0,0.01c0,0.003,0.003,0.006,0.005,0.008c0.455,0.001,0.911,0.003,1.366,0.004c0.192,0,0.2,0.001,0.174,0.191c-0.072,0.508-0.346,1.059-1.008,1.255c-0.354,0.105-0.715,0.122-1.08,0.059C4.463,12.331,4.198,12.201,3.969,12c-0.331-0.291-0.52-0.669-0.626-1.089c-0.113-0.447-0.142-0.9-0.083-1.36C3.32,9.096,3.44,8.666,3.702,8.284c0.172-0.251,0.396-0.446,0.676-0.568c0.387-0.169,0.793-0.193,1.201-0.11c0.32,0.065,0.593,0.221,0.801,0.482C6.537,8.286,6.62,8.516,6.694,8.752c0.032,0.02,0.069,0.017,0.104,0.017c0.433,0,0.865,0,1.298,0c0.035,0,0.072,0.005,0.103-0.019c-0.021-0.19-0.054-0.379-0.111-0.562C7.932,7.681,7.643,7.262,7.233,6.926C6.846,6.607,6.401,6.409,5.915,6.309C5.568,6.237,5.218,6.215,4.861,6.243C4.404,6.278,3.968,6.376,3.559,6.58C2.914,6.9,2.436,7.392,2.109,8.03c-0.29,0.567-0.435,1.173-0.452,1.81c-0.014,0.5,0.03,0.992,0.179,1.472c0.225,0.721,0.608,1.333,1.225,1.783c0.565,0.412,1.202,0.617,1.899,0.641c0.124,0.009,0.248,0.008,0.372,0c0.735-0.051,1.342-0.35,1.809-0.959c0.059,0.285,0.111,0.541,0.164,0.797c0.089,0.013,0.179,0.014,0.269,0.013c0.243,0.01,0.486,0.008,0.729-0.008c0.006,0,0.012-0.005,0.018-0.008c0-1.252,0-2.504,0-3.756c0-0.036-0.003-0.071-0.004-0.107C8.312,9.706,8.307,9.708,8.303,9.706z"/>
<path fill="#FFFFFF" d="M10.592,5.149C9.538,5.147,8.684,5.997,8.681,7.053C8.678,8.109,9.526,8.965,10.58,8.968c1.059,0.003,1.916-0.85,1.917-1.908C12.498,6.007,11.645,5.152,10.592,5.149z M10.59,8.429C9.84,8.43,9.223,7.815,9.221,7.063c-0.002-0.756,0.617-1.378,1.37-1.376c0.747,0.002,1.361,0.615,1.362,1.362C11.955,7.812,11.346,8.428,10.59,8.429z"/>
<path fill="#FFFFFF" d="M10.213,7.717c-0.063-0.003-0.077-0.057-0.078-0.12c-0.001-0.188-0.002-0.377-0.003-0.565c-0.001-0.169-0.004-0.338-0.001-0.507c0.002-0.131,0.061-0.164,0.175-0.098c0.304,0.175,0.607,0.352,0.909,0.531c0.115,0.068,0.114,0.142-0.001,0.21c-0.297,0.174-0.596,0.345-0.894,0.518C10.292,7.702,10.264,7.717,10.213,7.717z"/>
</g>
</svg>
