<?xml version="1.0" encoding="utf-8"?>
<svg version="1.1" xmlns="http://www.w3.org/2000/svg" xmlns:xlink="http://www.w3.org/1999/xlink" x="0px" y="0px" width="22" height="22" viewBox="0 0 22 22" enable-background="new 0 0 22 22" xml:space="preserve">
<g id="bounds"><rect opacity="0" width="22" height="22"/></g>
<g id="icon">
<path d="M11,1C5.486,1,1,5.486,1,11c0,5.514,4.486,10,10,10c5.514,0,10-4.486,10-10C21,5.486,16.514,1,11,1z"/>
<path fill="#000000" opacity="0.17" d="M11,0C4.935,0,0,4.935,0,11s4.935,11,11,11s11-4.935,11-11S17.065,0,11,0z M11,21C5.486,21,1,16.514,1,11C1,5.486,5.486,1,11,1c5.514,0,10,4.486,10,10C21,16.514,16.514,21,11,21z"/>
</g>
</svg>
