<?xml version="1.0" encoding="utf-8"?>
<svg version="1.1" xmlns="http://www.w3.org/2000/svg" xmlns:xlink="http://www.w3.org/1999/xlink" x="0px" y="0px" width="64" height="72" viewBox="0 0 64 72" enable-background="new 0 0 64 72" xml:space="preserve">
<g id="bounds"><rect opacity="0" width="64" height="72"/></g>
<g id="icon">
<path d="M58.588,55.8l-8.498-8.5c-1.2-1.2-2.999-1.7-4.599-1.4l-3.9-3.9c2.699-3.5,4.299-7.9,4.299-12.6c0-11.5-9.398-20.9-20.895-20.9S4,17.8,4,29.4s9.398,20.9,20.895,20.9c4.799,0,9.098-1.6,12.597-4.3l3.899,3.9c-0.3,1.6,0.1,3.3,1.4,4.6l8.498,8.5c1,1,2.299,1.5,3.599,1.5s2.599-0.5,3.599-1.5C60.487,61,60.487,57.7,58.588,55.8z M9.699,29.4c0-8.4,6.898-15.3,15.297-15.3S40.292,21,40.292,29.4s-6.898,15.3-15.297,15.3S9.699,37.8,9.699,29.4z"/>
</g>
</svg>
