<?xml version="1.0" encoding="utf-8"?>
<svg version="1.1" xmlns="http://www.w3.org/2000/svg" xmlns:xlink="http://www.w3.org/1999/xlink" x="0px" y="0px" width="44" height="56" viewBox="0 0 44 56" enable-background="new 0 0 44 56" xml:space="preserve">
<g id="bounds"><rect opacity="0" width="44" height="56"/></g>
<g id="icon">
<path d="M40.39,41.297l-5.763-5.763c-0.831-0.831-1.965-1.158-3.045-1.007l-1.811-1.811c1.952-2.6,3.026-5.736,3.029-9.044c0.004-4.044-1.568-7.843-4.426-10.7c-2.852-2.853-6.648-4.424-10.686-4.424c-4.045,0-7.849,1.577-10.712,4.44c-5.896,5.898-5.896,15.491-0.003,21.385c2.856,2.855,6.652,4.428,10.689,4.428c3.311,0,6.451-1.073,9.053-3.028l1.81,1.81c-0.15,1.08,0.177,2.214,1.007,3.045l5.763,5.763c0.705,0.702,1.626,1.054,2.548,1.054s1.843-0.352,2.546-1.055C41.797,44.984,41.797,42.702,40.39,41.297z M27.397,23.675c0,5.37-4.352,9.722-9.722,9.722s-9.722-4.352-9.722-9.722s4.352-9.722,9.722-9.722S27.397,18.305,27.397,23.675z"/>
<path d="M40.39,41.297l-5.763-5.763c-0.831-0.831-1.965-1.158-3.045-1.007l-1.811-1.811c1.952-2.6,3.026-5.736,3.029-9.044c0.004-4.044-1.568-7.843-4.426-10.7c-2.852-2.853-6.648-4.424-10.686-4.424c-4.045,0-7.849,1.577-10.712,4.44c-5.896,5.898-5.896,15.491-0.003,21.385c2.856,2.855,6.652,4.428,10.689,4.428c3.311,0,6.451-1.073,9.053-3.028l1.81,1.81c-0.15,1.08,0.177,2.214,1.007,3.045l5.763,5.763c0.705,0.702,1.626,1.054,2.548,1.054s1.843-0.352,2.546-1.055C41.797,44.984,41.797,42.702,40.39,41.297z M27.397,23.675c0,5.37-4.352,9.722-9.722,9.722s-9.722-4.352-9.722-9.722s4.352-9.722,9.722-9.722S27.397,18.305,27.397,23.675z"/>
</g>
</svg>
