<?xml version="1.0" encoding="utf-8"?>
<svg version="1.1" xmlns="http://www.w3.org/2000/svg" xmlns:xlink="http://www.w3.org/1999/xlink" x="0px" y="0px" width="56" height="72" viewBox="0 0 56 72" enable-background="new 0 0 56 72" xml:space="preserve">
<g id="bounds"><rect opacity="0" width="56" height="72"/></g>
<g id="icon">
<path d="M51.644,53.096l-7.409-7.409c-1.068-1.068-2.526-1.489-3.915-1.295l-2.328-2.328c2.51-3.343,3.89-7.375,3.894-11.628c0.005-5.199-2.016-10.084-5.69-13.757c-3.667-3.668-8.547-5.688-13.739-5.688c-5.201,0-10.092,2.027-13.772,5.708c-7.58,7.583-7.581,19.917-0.004,27.495c3.672,3.671,8.552,5.693,13.743,5.693c4.257,0,8.294-1.379,11.639-3.893l2.327,2.327c-0.193,1.389,0.227,2.847,1.295,3.915l7.409,7.409C46,60.548,47.185,61,48.37,61c1.185,0,2.37-0.452,3.274-1.357C53.453,57.836,53.453,54.903,51.644,53.096z M34.939,30.439c0,6.904-5.596,12.5-12.5,12.5s-12.5-5.596-12.5-12.5s5.596-12.5,12.5-12.5S34.939,23.535,34.939,30.439z"/>
<path d="M51.644,53.096l-7.409-7.409c-1.068-1.068-2.526-1.489-3.915-1.295l-2.328-2.328c2.51-3.343,3.89-7.375,3.894-11.628c0.005-5.199-2.016-10.084-5.69-13.757c-3.667-3.668-8.547-5.688-13.739-5.688c-5.201,0-10.092,2.027-13.772,5.708c-7.58,7.583-7.581,19.917-0.004,27.495c3.672,3.671,8.552,5.693,13.743,5.693c4.257,0,8.294-1.379,11.639-3.893l2.327,2.327c-0.193,1.389,0.227,2.847,1.295,3.915l7.409,7.409C46,60.548,47.185,61,48.37,61c1.185,0,2.37-0.452,3.274-1.357C53.453,57.836,53.453,54.903,51.644,53.096z M34.939,30.439c0,6.904-5.596,12.5-12.5,12.5s-12.5-5.596-12.5-12.5s5.596-12.5,12.5-12.5S34.939,23.535,34.939,30.439z"/>
</g>
</svg>
