<?xml version="1.0" encoding="utf-8"?>
<svg version="1.1" xmlns="http://www.w3.org/2000/svg" xmlns:xlink="http://www.w3.org/1999/xlink" x="0px" y="0px" width="36" height="72" viewBox="0 0 36 72" enable-background="new 0 0 36 72" xml:space="preserve">
<g id="bounds"><rect opacity="0" width="36" height="72"/></g>
<g id="icon">
<path d="M30,18c-1.657,0-3,1.343-3,3v12.786c-0.049-0.045-0.088-0.098-0.141-0.14l-19-15c-0.902-0.713-2.132-0.848-3.167-0.345C3.657,18.802,3,19.851,3,21v30c0,1.149,0.657,2.198,1.692,2.699C5.107,53.901,5.555,54,6,54c0.663,0,1.32-0.219,1.859-0.646l19-15c0.053-0.042,0.092-0.095,0.141-0.14V51c0,1.657,1.343,3,3,3s3-1.343,3-3V21C33,19.343,31.657,18,30,18z"/>
</g>
</svg>
