<?xml version="1.0" encoding="utf-8"?>
<svg version="1.1" xmlns="http://www.w3.org/2000/svg" xmlns:xlink="http://www.w3.org/1999/xlink" x="0px" y="0px" width="60" height="72" viewBox="0 0 60 72" enable-background="new 0 0 60 72" xml:space="preserve">
<g id="bounds"><rect opacity="0" width="60" height="72"/></g>
<g id="icon">
<path opacity="0" d="M21,33c1.658,0,3-1.342,3-3v-3c0-1.658-1.342-3-3-3c-1.658,0-3,1.342-3,3v3C18,31.658,19.342,33,21,33z"/>
<path opacity="0" d="M39,33c1.658,0,3-1.342,3-3v-3c0-1.658-1.342-3-3-3s-3,1.342-3,3v3C36,31.658,37.342,33,39,33z"/>
<path opacity="0" d="M43.049,41.399C42.99,41.444,37.166,45,30,45c-7.148,0-12.993-3.556-13.049-3.601c-0.287-0.214-0.686-0.196-0.955,0.044c-0.264,0.24-0.322,0.636-0.141,0.943C16.049,42.709,20.684,51,30,51c9.317,0,13.951-8.291,14.144-8.613c0.182-0.311,0.123-0.703-0.14-0.943C43.734,41.203,43.336,41.186,43.049,41.399z"/>
<path d="M30.001,9.002C15.113,9.002,3,21.113,3,36.001S15.113,63,30.001,63C44.889,63,57,50.889,57,36.001S44.889,9.002,30.001,9.002z M36,27c0-1.658,1.342-3,3-3s3,1.342,3,3v3c0,1.658-1.342,3-3,3s-3-1.342-3-3V27z M18,27c0-1.658,1.342-3,3-3c1.658,0,3,1.342,3,3v3c0,1.658-1.342,3-3,3c-1.658,0-3-1.342-3-3V27z M44.144,42.387C43.951,42.709,39.316,51,30,51c-9.316,0-13.951-8.291-14.145-8.613c-0.182-0.307-0.123-0.703,0.141-0.943c0.27-0.24,0.668-0.258,0.955-0.044C17.007,41.444,22.852,45,30,45c7.166,0,12.99-3.556,13.049-3.601c0.287-0.214,0.686-0.196,0.955,0.044C44.268,41.683,44.326,42.076,44.144,42.387z"/>
</g>
</svg>
