<?xml version="1.0" encoding="utf-8"?>
<svg version="1.1" xmlns="http://www.w3.org/2000/svg" xmlns:xlink="http://www.w3.org/1999/xlink" x="0px" y="0px" width="60" height="72" viewBox="0 0 60 72" enable-background="new 0 0 60 72" xml:space="preserve">
<g id="bounds"><rect opacity="0" width="60" height="72"/></g>
<g id="icon">
<path d="M22,35c1.658,0,3-1.342,3-3v-3c0-1.658-1.342-3-3-3s-3,1.342-3,3v3C19,33.658,20.342,35,22,35z"/>
<path d="M38,35c1.658,0,3-1.342,3-3v-3c0-1.658-1.342-3-3-3s-3,1.342-3,3v3C35,33.658,36.342,35,38,35z"/>
<path d="M30.001,63C15.113,63,3,50.889,3,36.001S15.113,9.002,30.001,9.002C44.888,9.002,57,21.113,57,36.001S44.888,63,30.001,63zM30.001,15.002C18.421,15.002,9,24.422,9,36.001S18.421,57,30.001,57C41.58,57,51,47.58,51,36.001S41.58,15.002,30.001,15.002z"/>
<path d="M43.187,41.613c0.016-0.33-0.099-0.665-0.351-0.918c-0.223-0.223-0.51-0.334-0.801-0.347c-0.247-0.03-0.506,0.026-0.745,0.204c-0.305,0.227-4.333,3.073-11.29,3.073s-10.985-2.847-11.29-3.073c-0.24-0.178-0.498-0.234-0.745-0.204c-0.291,0.014-0.578,0.125-0.801,0.347c-0.252,0.252-0.367,0.587-0.351,0.918c0,0.004-0.001,0.008-0.001,0.012c0.007,0.118,0.029,0.235,0.07,0.348c0.649,1.543,2.431,3.63,4.247,5.043C23.221,48.643,26.127,50,30,50s6.779-1.357,8.871-2.985c1.816-1.413,3.598-3.5,4.247-5.043c0.041-0.112,0.063-0.23,0.07-0.348C43.188,41.621,43.187,41.617,43.187,41.613z"/>
</g>
</svg>
