<?xml version="1.0" encoding="utf-8"?>
<svg version="1.1" xmlns="http://www.w3.org/2000/svg" xmlns:xlink="http://www.w3.org/1999/xlink" x="0px" y="0px" width="94" height="72" viewBox="0 0 94 72" enable-background="new 0 0 94 72" xml:space="preserve">
<g id="bounds"><rect opacity="0" width="94" height="72"/></g>
<g id="icon">
<path d="M90.417,35.804l-10-10.048c-0.571-0.574-1.433-0.746-2.181-0.438C77.488,25.627,77,26.357,77,27.167v20c0,0.808,0.486,1.537,1.232,1.847c0.248,0.104,0.509,0.153,0.767,0.153c0.519,0,1.029-0.202,1.411-0.582l10-9.952c0.376-0.375,0.588-0.883,0.589-1.413S90.792,36.18,90.417,35.804z"/>
<path d="M15.763,25.318c-0.749-0.308-1.609-0.137-2.181,0.438l-10,10.048C3.208,36.18,2.999,36.689,3,37.22s0.213,1.038,0.589,1.413l10,9.952c0.382,0.38,0.892,0.582,1.411,0.582c0.258,0,0.519-0.05,0.767-0.153C16.514,48.704,17,47.975,17,47.167v-20C17,26.357,16.512,25.627,15.763,25.318z"/>
<path d="M66.975,37.75C66.843,35.66,65.124,34,63,34c-1.202,0-2.267,0.541-3,1.38V34c0-2.209-1.791-4-4-4c-1.202,0-2.267,0.541-3,1.38V30c0-2.209-1.791-4-4-4s-4,1.791-4,4V13c0-2.209-1.791-4-4-4s-4,1.791-4,4v24.75h-0.071C36.475,36.204,33.865,28,29.562,28c-3.625,0-4,3.75-2.75,6.5C28.904,39.102,29,40.833,29,45c0,10.356,8.645,19,19,19s19-8.644,19-19v-7.25H66.975z"/>
</g>
</svg>
