<?xml version="1.0" encoding="utf-8"?>
<svg version="1.1" xmlns="http://www.w3.org/2000/svg" xmlns:xlink="http://www.w3.org/1999/xlink" x="0px" y="0px" width="68" height="72" viewBox="0 0 68 72" enable-background="new 0 0 68 72" xml:space="preserve">
<g id="bounds"><rect opacity="0" width="68" height="72"/></g>
<g id="icon">
<path d="M37.105,9.211c-1.142-0.451-2.447-0.163-3.29,0.733L18.704,26H7c-1.657,0-3,1.343-3,3v14c0,1.657,1.343,3,3,3h11.704l15.111,16.056c0.843,0.896,2.149,1.185,3.29,0.733C38.249,62.335,39,61.229,39,60V12C39,10.771,38.249,9.665,37.105,9.211z"/>
<path d="M58.242,36l5.879-5.879c1.172-1.171,1.172-3.071,0-4.242c-1.171-1.172-3.071-1.172-4.242,0L54,31.758l-5.879-5.879c-1.171-1.172-3.071-1.172-4.242,0c-1.172,1.171-1.172,3.071,0,4.242L49.758,36l-5.879,5.879c-1.172,1.171-1.172,3.071,0,4.242C44.464,46.707,45.232,47,46,47s1.536-0.293,2.121-0.879L54,40.242l5.879,5.879C60.464,46.707,61.232,47,62,47s1.536-0.293,2.121-0.879c1.172-1.171,1.172-3.071,0-4.242L58.242,36z"/>
</g>
</svg>
