<?xml version="1.0" encoding="utf-8"?>
<svg version="1.1" xmlns="http://www.w3.org/2000/svg" xmlns:xlink="http://www.w3.org/1999/xlink" x="0px" y="0px" width="68" height="72" viewBox="0 0 68 72" enable-background="new 0 0 68 72" xml:space="preserve">
<g id="bounds"><rect opacity="0" width="68" height="72"/></g>
<g id="icon">
<path d="M37.105,9.211c-1.142-0.451-2.447-0.163-3.29,0.733L18.704,26H7c-1.657,0-3,1.343-3,3v14c0,1.657,1.343,3,3,3h11.704l15.111,16.056c0.843,0.896,2.149,1.185,3.29,0.733C38.249,62.335,39,61.229,39,60V12C39,10.771,38.249,9.665,37.105,9.211z"/>
<path d="M45,48c-0.746,0-1.492-0.276-2.073-0.832c-1.197-1.146-1.239-3.044-0.094-4.241C44.733,40.938,46,39,46,36s-1.267-4.938-3.168-6.927c-1.145-1.197-1.103-3.096,0.094-4.241c1.198-1.146,3.097-1.103,4.242,0.095C49.417,27.278,52,30.663,52,36s-2.583,8.722-4.832,11.073C46.579,47.689,45.79,48,45,48z"/>
<path d="M54,54c-0.746,0-1.492-0.276-2.073-0.832c-1.197-1.146-1.239-3.044-0.094-4.241c3.365-3.518,5.152-7.991,5.168-12.937c-0.016-4.926-1.803-9.399-5.168-12.917c-1.145-1.197-1.103-3.096,0.094-4.241c1.197-1.145,3.097-1.103,4.242,0.095c4.448,4.65,6.811,10.551,6.832,17.063c-0.021,6.532-2.384,12.434-6.832,17.083C55.579,53.689,54.79,54,54,54z"/>
</g>
</svg>
