<?xml version="1.0" encoding="utf-8"?>
<svg version="1.1" xmlns="http://www.w3.org/2000/svg" xmlns:xlink="http://www.w3.org/1999/xlink" x="0px" y="0px" width="56" height="72" viewBox="0 0 56 72" enable-background="new 0 0 56 72" xml:space="preserve">
<g id="bounds"><rect opacity="0" width="56" height="72"/></g>
<g id="icon">
<path d="M38,32.686V12c0-1.229-0.75-2.335-1.895-2.789c-1.141-0.451-2.447-0.163-3.289,0.733l-8.514,9.044L38,32.686z"/>
<path d="M8.686,26H6c-1.656,0-3,1.343-3,3v14c0,1.657,1.344,3,3,3h11.705l15.111,16.056C33.395,62.671,34.19,63,35.002,63C36.297,63,38,61.969,38,60v-4.686L8.686,26z"/>
<path d="M8.122,9.879c-1.172-1.172-3.07-1.172-4.242,0c-1.172,1.171-1.172,3.071,0,4.242l44,44C48.465,58.707,49.233,59,50,59s1.535-0.293,2.121-0.879c1.172-1.171,1.172-3.071,0-4.242L8.122,9.879z"/>
</g>
</svg>
