<?xml version="1.0" encoding="utf-8"?>
<svg version="1.1" xmlns="http://www.w3.org/2000/svg" xmlns:xlink="http://www.w3.org/1999/xlink" x="0px" y="0px" width="66" height="72" viewBox="0 0 66 72" enable-background="new 0 0 66 72" xml:space="preserve">
<g id="bounds"><rect opacity="0" width="66" height="72"/></g>
<g id="icon">
<path fill="#C900FF" d="M57.809,25.211c-1.069-2.409,0.106-6.53-1.826-8.486c-1.823-1.845-5.967-0.751-8.395-2.059c-2.277-1.227-3.606-5.345-6.281-5.99C38.796,8.072,35.75,11.104,33,11.104c-2.75,0-5.798-3.031-8.309-2.426c-2.674,0.644-4.002,4.762-6.278,5.989c-2.428,1.308-6.572,0.213-8.395,2.059c-1.932,1.956-0.757,6.076-1.826,8.485C7.107,27.656,3.3,29.599,3.3,32.353c0,2.753,3.807,4.696,4.891,7.141c1.069,2.409-0.106,6.53,1.826,8.486c1.788,1.81,5.799,0.805,8.243,1.999l-2.517,10.07c-0.287,1.139,0.198,2.333,1.2,2.95c0.438,0.272,0.928,0.403,1.419,0.403c0.63,0,1.255-0.219,1.756-0.651l9.446-8.097c1.158-0.553,2.322-1.053,3.437-1.053c2.75,0,5.798,3.031,8.309,2.426c2.674-0.644,4.002-4.762,6.278-5.989c2.428-1.308,6.572-0.213,8.395-2.059c1.932-1.956,0.757-6.076,1.826-8.485c1.085-2.446,4.892-4.39,4.892-7.143C62.7,29.6,58.893,27.657,57.809,25.211z"/>
<circle fill="#F5F8FA" cx="19.5" cy="32.353" r="4.05"/>
<circle fill="#F5F8FA" cx="33" cy="32.353" r="4.05"/>
<circle fill="#F5F8FA" cx="46.5" cy="32.353" r="4.05"/>
</g>
</svg>
