<?xml version="1.0" encoding="utf-8"?>
<svg version="1.1" xmlns="http://www.w3.org/2000/svg" xmlns:xlink="http://www.w3.org/1999/xlink" x="0px" y="0px" width="54" height="72" viewBox="0 0 54 72" enable-background="new 0 0 54 72" xml:space="preserve">
<g id="bounds"><rect opacity="0" width="54" height="72"/></g>
<g id="icon">
<circle fill="#19CF86" cx="8.195" cy="57.563" r="5.391"/>
<circle fill="#19CF86" cx="32.454" cy="57.563" r="5.391"/>
<path fill="#19CF86" d="M8.195,47.399c1.489,0,2.695-1.207,2.695-2.695l2.695-31.671c0-1.489-0.73-3.762-5.391-3.762s-5.391,2.274-5.391,3.762L5.5,44.704C5.5,46.192,6.707,47.399,8.195,47.399z"/>
<path fill="#19CF86" d="M35.149,9.046c-9.102,0-16.172,7.07-16.172,16.172c0,2.419,1.624,4.464,4.043,4.464s4.043-2.045,4.043-4.464c0-4.272,3.814-8.086,8.086-8.086s8.086,3.814,8.086,8.086c0,5.278-5.391,8.487-12.298,8.487c0,0-2.022-0.022-2.022,2.126c0,1.091,0.842,8.872,0.842,8.872c0,1.489,1.207,2.695,2.695,2.695c1.489,0,2.695-1.207,2.695-2.695l0.454-3.484l-0.03-0.049c1.219-0.195,2.145-0.412,2.145-0.412c7.657-1.43,13.477-7.475,13.477-15.541C51.195,16.116,44.252,9.046,35.149,9.046z"/>
</g>
</svg>
