<?xml version="1.0" encoding="utf-8"?>
<svg version="1.1" xmlns="http://www.w3.org/2000/svg" xmlns:xlink="http://www.w3.org/1999/xlink" x="0px" y="0px" width="66" height="72" viewBox="0 0 66 72" enable-background="new 0 0 66 72" xml:space="preserve">
<g id="bounds"><rect opacity="0" width="66" height="72"/></g>
<g id="icon">
<path fill="#66757F" d="M52.015,52.301c-1.867,0.467-3.691,0.748-5.538,0.932v5.372c0,1.658,1.342,3.001,2.998,3.001h4.785c1.656,0,2.998-1.343,2.998-3.001V46.993C57.163,48.317,56.436,51.197,52.015,52.301z"/>
<path fill="#66757F" d="M8.741,46.988v11.618c0,1.658,1.342,3.001,2.998,3.001h4.785c1.656,0,2.998-1.343,2.998-3.001v-5.372c-1.847-0.184-3.671-0.465-5.538-0.932C9.557,51.195,8.835,48.309,8.741,46.988z"/>
<path fill="#1B95E0" d="M59.954,26.566h-5.391c-0.053,0-0.095,0.026-0.145,0.029c-0.458-5.193-2.393-16.201-10.637-16.201H22.218c-8.244,0-10.179,11.008-10.637,16.201c-0.05-0.002-0.092-0.029-0.145-0.029H6.046c-1.49,0-2.695,1.206-2.695,2.695c0,1.49,1.206,2.695,2.695,2.695h2.695v14.346c0,0-0.03,0.271,0,0.685c0.093,1.321,0.815,4.208,5.243,5.314c1.867,0.467,3.691,0.748,5.538,0.932C23.614,53.64,27.834,53.52,33,53.52s9.386,0.12,13.477-0.287c1.847-0.184,3.671-0.465,5.538-0.932c4.421-1.104,5.148-3.984,5.243-5.309c0.03-0.418,0-0.69,0-0.69V31.957h2.695c1.49,0,2.695-1.206,2.695-2.695C62.649,27.772,61.444,26.566,59.954,26.566z M20.871,42.738h-2.695c-2.232,0-4.043-1.811-4.043-4.043c0-2.232,1.811-4.043,4.043-4.043h2.695c2.232,0,4.043,1.811,4.043,4.043C24.914,40.927,23.103,42.738,20.871,42.738z M17.333,26.566c0,0,0.195-10.782,5.446-10.782h20.442c5.251,0,5.446,10.782,5.446,10.782H17.333z M41.086,38.695c0-2.232,1.811-4.043,4.043-4.043h2.695c2.232,0,4.043,1.811,4.043,4.043c0,2.232-1.811,4.043-4.043,4.043h-2.695C42.897,42.738,41.086,40.927,41.086,38.695z"/>
<path fill="#FFCC4D" d="M51.868,38.695c0-2.232-1.811-4.043-4.043-4.043h-2.695c-2.232,0-4.043,1.811-4.043,4.043c0,2.232,1.811,4.043,4.043,4.043h2.695C50.057,42.738,51.868,40.927,51.868,38.695z"/>
<path fill="#FFCC4D" d="M20.871,34.652h-2.695c-2.232,0-4.043,1.811-4.043,4.043c0,2.232,1.811,4.043,4.043,4.043h2.695c2.232,0,4.043-1.811,4.043-4.043C24.914,36.463,23.103,34.652,20.871,34.652z"/>
</g>
</svg>
