<?xml version="1.0" encoding="utf-8"?>
<svg version="1.1" xmlns="http://www.w3.org/2000/svg" xmlns:xlink="http://www.w3.org/1999/xlink" x="0px" y="0px" width="58" height="72" viewBox="0 0 58 72" enable-background="new 0 0 58 72" xml:space="preserve">
<g id="bounds"><rect opacity="0" width="58" height="72"/></g>
<g id="icon">
<path fill="#DD2E44" d="M19.403,21.202c-0.161,0.161-0.284,0.355-0.385,0.567l-0.013-0.011L2.884,58.074L2.9,58.089c-0.299,0.58,0.201,1.757,1.226,2.784c1.025,1.025,2.203,1.525,2.782,1.225l0.015,0.014L43.24,45.993l-0.011-0.013c0.212-0.101,0.406-0.223,0.567-0.386c2.246-2.244-1.395-9.525-8.13-16.261C28.93,22.597,21.649,18.957,19.403,21.202z"/>
<ellipse transform="matrix(0.7071 -0.7071 0.7071 0.7071 -14.0223 32.2647)" fill="#A0041E" cx="31.939" cy="33.06" rx="5.424" ry="17.192"/>
<polygon fill="none" points="25.293,29.085 25.293,29.088 25.293,29.085"/>
<path fill="#FFAC33" d="M34.998,31.078c2.494,2.425,5.236,2.218,6.656,0.756c1.42-1.458,1.554-4.206-0.938-6.631c-0.973-0.944-1.02-1.683-0.876-1.834c0.145-0.146,0.883-0.119,1.855,0.828c2.492,2.424,5.235,2.213,6.655,0.755c1.42-1.458,1.554-4.206-0.941-6.63c-0.672-0.655-1.746-0.64-2.399,0.031c-0.652,0.673-0.64,1.746,0.034,2.4c0.973,0.946,1.018,1.682,0.874,1.833c-0.143,0.146-0.883,0.121-1.852-0.824c-2.497-2.425-5.237-2.217-6.657-0.758c-1.421,1.461-1.554,4.206,0.941,6.633c0.971,0.945,1.017,1.683,0.872,1.83c-0.144,0.151-0.881,0.123-1.854-0.823c-2.495-2.426-5.236-2.218-6.656-0.76c-1.421,1.463-1.552,4.211,0.939,6.634c0.674,0.654,1.748,0.639,2.403-0.032c0.653-0.671,0.637-1.748-0.034-2.4c-0.972-0.947-1.019-1.684-0.875-1.832C33.287,30.106,34.027,30.133,34.998,31.078z"/>
<path fill="#50A5E6" d="M53.65,37.537c-1.208-1-3.172-1.508-5.838-1.508c-4.472,0-9.694,1.395-11.187,1.824c-0.805,0.226-1.377,0.974-1.39,1.808c-0.005,0.19,0.021,0.376,0.074,0.558c0.279,0.992,1.379,1.603,2.369,1.319c2.693-0.766,7.015-1.661,10.334-1.661c2.132,0,2.916,0.384,3.198,0.616c0.082,0.066,0.166,0.137,0.134,0.471c-0.013,0.14-0.521,0.413-1.64,0.413l-0.39-0.013c-1,0-1.819,0.753-1.908,1.756c-0.087,1.069,0.679,1.977,1.737,2.072c0.197,0.018,0.413,0.026,0.642,0.026c2.43,0,5.12-1.027,5.378-3.909C55.303,39.775,54.78,38.472,53.65,37.537z"/>
<path fill="#50A5E6" d="M23.688,9.833c-3.467,0.313-4.056,4.075-3.883,6.02c0.087,0.99,0.908,1.74,2.066,1.74c0.005,0,0.011,0,0.016,0c1.05-0.092,1.829-1.027,1.737-2.069c-0.053-0.853,0.163-1.85,0.526-1.877c0.237,0,0.292,0.066,0.355,0.142c1.248,1.511,0.466,8.218-1.048,13.53c-0.142,0.492-0.082,1.008,0.166,1.458c0.25,0.447,0.661,0.771,1.15,0.911c0.171,0.05,0.345,0.074,0.519,0.074h0.037c0.85-0.013,1.582-0.571,1.816-1.39c0.866-3.038,3.446-13.24,0.313-17.025C26.538,10.231,25.23,9.712,23.688,9.833z M25.293,29.085L25.293,29.085v0.003V29.085z"/>
</g>
</svg>
