<?xml version="1.0" encoding="utf-8"?>
<svg version="1.1" xmlns="http://www.w3.org/2000/svg" xmlns:xlink="http://www.w3.org/1999/xlink" x="0px" y="0px" width="60" height="72" viewBox="0 0 60 72" enable-background="new 0 0 60 72" xml:space="preserve">
<g id="bounds">
<rect opacity="0" width="60" height="72"/>
</g>
<g id="icon">
<path fill="none" d="M47.856,33.305c1.164-2.101,2.925-8.744,3.508-13.477h-5.663c-0.647,4.255-1.952,9.077-3.734,13.477H47.856z"/>
<path fill="none" d="M12.144,33.305h5.889c-1.782-4.4-3.088-9.221-3.734-13.477H8.636C9.219,24.561,10.98,31.204,12.144,33.305z"/>
<ellipse fill="#DBE2E7" cx="30" cy="36.027" rx="26.946" ry="26.973"/>
<path fill="#AFB8BE" d="M29.999,12.463c-1.49,0-2.7,1.211-2.7,2.703v10.811c0,1.491,1.21,2.703,2.7,2.703s2.7-1.211,2.7-2.703V15.166C32.699,13.674,31.489,12.463,29.999,12.463z M29.999,27.328L29.999,27.328L29.999,27.328L29.999,27.328z"/>
<path fill="#AFB8BE" d="M38.007,42.771c-0.886-1.135-2.66-1.351-3.792-0.47c-0.57,0.446-0.931,1.085-1.018,1.8c-0.09,0.718,0.105,1.425,0.548,1.995l6.642,8.525c0.517,0.662,1.292,1.04,2.13,1.04c0.596,0,1.187-0.201,1.661-0.57c0.57-0.446,0.931-1.085,1.018-1.8c0.09-0.718-0.105-1.425-0.548-1.995L38.007,42.771z"/>
<path fill="#AFB8BE" d="M21.994,42.771l-6.642,8.525c-0.443,0.57-0.638,1.277-0.548,1.995c0.087,0.715,0.448,1.354,1.018,1.8c0.472,0.367,1.063,0.57,1.661,0.57c0.838,0,1.614-0.377,2.13-1.04l6.642-8.525c0.443-0.57,0.638-1.277,0.548-1.995c-0.087-0.715-0.448-1.354-1.02-1.8C24.644,41.409,22.877,41.638,21.994,42.771z"/>
<path fill="#AFB8BE" d="M52.445,28.402c-0.525-1.357-2.233-2.035-3.723-1.454l-11.892,4.627c-0.77,0.298-1.395,0.882-1.711,1.602c-0.282,0.647-0.303,1.351-0.055,1.985c0.393,1.016,1.4,1.671,2.568,1.671c0.393,0,0.78-0.074,1.152-0.219l11.894-4.627c0.77-0.301,1.392-0.884,1.709-1.607C52.669,29.735,52.69,29.03,52.445,28.402z"/>
<path fill="#AFB8BE" d="M22.366,36.832c1.171,0,2.178-0.655,2.571-1.668c0.274-0.702,0.216-1.504-0.161-2.196c-0.34-0.628-0.91-1.124-1.606-1.394l-11.892-4.627c-1.479-0.578-3.198,0.098-3.72,1.449c-0.248,0.633-0.227,1.341,0.055,1.985c0.316,0.721,0.939,1.306,1.711,1.605l11.889,4.627C21.588,36.758,21.975,36.832,22.366,36.832z"/>
<path fill="#58666F" d="M19.493,13.392c0.19,0.33,0.509,0.565,0.883,0.644l9.339,2.027c0.092,0.021,0.19,0.032,0.285,0.032c0.095,0,0.192-0.011,0.287-0.032l9.337-2.027c0.372-0.079,0.691-0.314,0.881-0.644c0.192-0.33,0.235-0.723,0.119-1.087l-0.412-1.289C37.06,9.724,33.616,9,30,9s-7.06,0.724-10.212,2.015l-0.413,1.289C19.259,12.666,19.301,13.062,19.493,13.392z"/>
<path fill="#58666F" d="M24.98,60.415c0.042-0.377-0.079-0.757-0.33-1.043l-6.323-7.168c-0.129-0.145-0.285-0.261-0.461-0.338l-8.722-3.904c-0.353-0.158-0.746-0.161-1.094-0.005c-0.348,0.153-0.614,0.446-0.736,0.808l-0.407,1.213c3.612,5.977,9.459,10.427,16.393,12.203l1.132-0.822C24.738,61.138,24.938,60.795,24.98,60.415z"/>
<path fill="#58666F" d="M51.951,47.957c-0.353-0.156-0.746-0.153-1.094,0.005l-8.725,3.904c-0.177,0.077-0.332,0.193-0.461,0.338l-6.323,7.168c-0.25,0.285-0.372,0.665-0.33,1.043c0.042,0.38,0.243,0.723,0.551,0.948l1.129,0.819c6.936-1.776,12.783-6.226,16.394-12.204l-0.406-1.213C52.568,48.403,52.299,48.11,51.951,47.957z"/>
<path fill="#58666F" d="M49.262,18.56c-0.38,0-0.741,0.161-0.997,0.441c-0.256,0.28-0.382,0.657-0.348,1.037l0.891,9.523c0.018,0.193,0.076,0.377,0.174,0.546l4.751,8.298c0.19,0.33,0.509,0.565,0.881,0.647c0.095,0.021,0.192,0.032,0.29,0.032c0.277,0,0.551-0.084,0.78-0.248l1.217-0.865C56.948,37.326,57,36.683,57,36.027c0-6.663-2.42-12.752-6.412-17.464l-1.323-0.004H49.262z"/>
<path fill="#58666F" d="M5.097,39.083c0.098,0,0.195-0.011,0.29-0.032c0.372-0.082,0.691-0.317,0.881-0.647l4.751-8.298c0.098-0.169,0.156-0.354,0.174-0.546l0.889-9.523c0.034-0.38-0.092-0.757-0.348-1.037c-0.256-0.282-0.617-0.441-0.997-0.441h-0.003l-1.322,0.003C5.419,23.275,3,29.364,3,36.027c0,0.656,0.052,1.299,0.098,1.944l1.219,0.865C4.546,38.999,4.82,39.083,5.097,39.083z"/>
<path fill="#58666F" d="M30.929,23.614c-0.517-0.491-1.339-0.491-1.856,0l-9.189,8.72c-0.356,0.34-0.501,0.845-0.38,1.32l3.014,11.663c0.156,0.596,0.693,1.014,1.308,1.014h12.35c0.614,0,1.152-0.417,1.308-1.014l3.011-11.663c0.121-0.475-0.024-0.979-0.38-1.32L30.929,23.614z"/>
</g>
</svg>
