<?xml version="1.0" encoding="utf-8"?>
<svg version="1.1" xmlns="http://www.w3.org/2000/svg" xmlns:xlink="http://www.w3.org/1999/xlink" x="0px" y="0px" width="50" height="72" viewBox="0 0 50 72" enable-background="new 0 0 50 72" xml:space="preserve">
<g id="bounds"><rect opacity="0" width="50" height="72"/></g>
<g id="icon">
<path fill="#981CEB" d="M45.205,12.526c-2.661-0.921-6.833-1.371-9.987-1.371c-3.804,0-7.583,0.655-11.237,1.29c-3.648,0.634-7.091,1.232-10.547,1.232c-2.695,0-5.085-0.376-7.312-1.15c-0.613-0.208-1.298-0.118-1.835,0.263c-0.534,0.379-0.85,0.992-0.85,1.648v26.954c0,0.861,0.545,1.627,1.358,1.911c2.661,0.921,5.486,1.371,8.639,1.371c3.804,0,7.583-0.655,11.237-1.29c3.646-0.634,7.091-1.232,10.547-1.232c2.695,0,6.433,0.376,8.66,1.15c0.619,0.211,1.3,0.118,1.835-0.263c0.534-0.379,0.85-0.992,0.85-1.648V14.437C46.563,13.576,46.018,12.81,45.205,12.526z"/>
<path fill="#AAB8C2" d="M6.132,62.954c-1.49,0-2.695-1.206-2.695-2.695V11.741c0-1.49,1.206-2.695,2.695-2.695s2.695,1.206,2.695,2.695v48.517C8.828,61.748,7.622,62.954,6.132,62.954z"/>
</g>
</svg>
