<?xml version="1.0" encoding="utf-8"?>
<svg version="1.1" xmlns="http://www.w3.org/2000/svg" xmlns:xlink="http://www.w3.org/1999/xlink" x="0px" y="0px" width="44" height="72" viewBox="0 0 44 72" enable-background="new 0 0 44 72" xml:space="preserve">
<g id="bounds"><rect opacity="0" width="44" height="72"/></g>
<g id="icon">
<path fill="#FF7B11" d="M37.62,9.13c-3.035,0-7.533,5.391-7.533,16.088c0,8.339,3.872,12.276,5.391,13.477v21.611c0,1.462,1.281,2.647,2.744,2.647s2.647-1.185,2.647-2.647c0,0,0-48.023,0-48.338C40.868,11.075,40.071,9.13,37.62,9.13z"/>
<path fill="#FF7B11" d="M16.609,38.695c4.292-1.422,8.086-6.013,8.086-10.782V11.741c0-1.49-1.206-2.695-2.695-2.695s-2.695,1.206-2.695,2.695v1.348v5.538v6.591c0,0.745-0.603,1.348-1.348,1.348c-0.745,0-1.348-0.603-1.348-1.348v-7.705v-4.424v-1.348c0-1.49-1.206-2.695-2.695-2.695s-2.695,1.206-2.695,2.695v1.348v4.424v7.705c0,0.745-0.603,1.348-1.348,1.348s-1.348-0.603-1.348-1.348v-6.591v-5.538v-1.348c0-1.49-1.206-2.695-2.695-2.695s-2.695,1.206-2.695,2.695v16.172c0,4.769,3.794,9.36,8.086,10.782"/>
<path fill="#FF7B11" d="M11.218,38.695v21.611c0,1.462,1.281,2.647,2.744,2.647s2.647-1.185,2.647-2.647V38.695"/>
</g>
</svg>
