<?xml version="1.0" encoding="utf-8"?>
<svg version="1.1" xmlns="http://www.w3.org/2000/svg" xmlns:xlink="http://www.w3.org/1999/xlink" x="0px" y="0px" width="42" height="72" viewBox="0 0 42 72" enable-background="new 0 0 42 72" xml:space="preserve">
<g id="bounds"><rect opacity="0" width="42" height="72"/></g>
<g id="icon">
<path fill="#CCD6DD" d="M26.391,60.259c0,0-2.414,2.695-5.391,2.695s-5.391-2.695-5.391-2.695H26.391z"/>
<path fill="#FFD983" d="M38.52,26.566c0-9.676-7.844-17.52-17.52-17.52S3.48,16.89,3.48,26.566c0,4.899,2.016,9.322,5.256,12.502c4.198,4.62,4.178,10.409,4.178,10.409h16.172c0,0-0.021-5.789,4.178-10.409C36.504,35.889,38.52,31.465,38.52,26.566z"/>
<path fill="#FFAC33" d="M27.344,26.961c-0.526-0.526-1.379-0.526-1.906,0L21,31.399l-4.438-4.438c-0.526-0.526-1.379-0.526-1.906,0s-0.526,1.379,0,1.906l4.996,4.996v15.614c0,0.745,0.603,1.348,1.348,1.348s1.348-0.603,1.348-1.348V33.863l4.996-4.996C27.87,28.34,27.87,27.487,27.344,26.961z"/>
<path fill="#99AAB5" d="M12.914,49.477v8.086c0,1.482,1.213,2.695,2.695,2.695h10.782c1.483,0,2.695-1.213,2.695-2.695v-8.086	H12.914z"/>
<path fill="#CCD6DD" d="M12.911,58.911c-0.645,0-1.216-0.466-1.327-1.127c-0.124-0.734,0.374-1.429,1.108-1.55l16.172-2.695	c0.721-0.132,1.427,0.371,1.55,1.108c0.124,0.734-0.374,1.429-1.108,1.55l-16.172,2.695	C13.061,58.906,12.985,58.911,12.911,58.911z"/>
<path fill="#CCD6DD" d="M12.911,53.52c-0.645,0-1.216-0.466-1.327-1.127c-0.124-0.734,0.374-1.429,1.108-1.55l16.172-2.695	c0.721-0.132,1.427,0.374,1.55,1.108s-0.374,1.429-1.108,1.55l-16.172,2.695C13.061,53.515,12.985,53.52,12.911,53.52z"/>
</g>
</svg>
