<?xml version="1.0" encoding="utf-8"?>
<svg version="1.1" xmlns="http://www.w3.org/2000/svg" xmlns:xlink="http://www.w3.org/1999/xlink" x="0px" y="0px" width="56" height="72" viewBox="0 0 56 72" enable-background="new 0 0 56 72" xml:space="preserve">
<g id="bounds"><rect opacity="0" width="56" height="72"/></g>
<g id="icon">
<path fill="#19CF86" d="M1.329,30.7c0.379,0.382,2.471,1.529,2.849,2.676c0.378,1.145,1.135,8.893,3.405,10.805c2.34,1.968,11.164,1.235,12.855,0.384c3.782-1.909,4.246-8.49,4.915-11.189c0.377-1.529,2.646-1.529,2.646-1.529s2.269,0,2.647,1.527c0.669,2.701,1.136,9.282,4.915,11.188c1.692,0.855,10.516,1.588,12.86-0.381c2.265-1.912,3.021-9.66,3.4-10.808c0.376-1.146,2.471-2.292,2.848-2.673c0.381-0.382,0.381-2.822,0-3.204c-0.755-0.764-9.88-1.444-19.486-0.382c-1.916,0.212-2.645,0.764-7.184,0.764c-4.536,0-5.267-0.552-7.183-0.763c-9.604-1.063-18.73-0.383-19.487,0.381C0.952,27.878,0.952,30.318,1.329,30.7z"/>
</g>
</svg>
