<?xml version="1.0" encoding="utf-8"?>
<svg version="1.1" xmlns="http://www.w3.org/2000/svg" xmlns:xlink="http://www.w3.org/1999/xlink" x="0px" y="0px" width="50" height="50" viewBox="0 0 50 50" enable-background="new 0 0 50 50" xml:space="preserve">
<g id="bounds"><rect opacity="0" width="50" height="50"/></g>
<g id="icon">
<path d="M41,38V15c0-1.7-1.3-3-3-3s-3,1.3-3,3v15.8L5.1,0.9C3.9-0.3,2-0.3,0.9,0.9c-1.2,1.2-1.2,3.1,0,4.2L30.8,35H15c-1.7,0-3,1.3-3,3s1.3,3,3,3h23C39.7,41,41,39.7,41,38z"/>
<path d="M47,23c-1.7,0-3,1.3-3,3v18H26c-1.7,0-3,1.3-3,3s1.3,3,3,3h21c1.7,0,3-1.3,3-3V26C50,24.3,48.7,23,47,23z"/>
</g>
</svg>
