<?xml version="1.0" encoding="utf-8"?>
<svg version="1.1" xmlns="http://www.w3.org/2000/svg" xmlns:xlink="http://www.w3.org/1999/xlink" x="0px" y="0px" width="50" height="50" viewBox="0 0 50 50" enable-background="new 0 0 50 50" xml:space="preserve">
<g id="bounds"><rect opacity="0" width="50" height="50"/></g>
<g id="icon">
<path d="M38,9H15c-1.7,0-3,1.3-3,3s1.3,3,3,3h15.8L0.9,44.9c-1.2,1.2-1.2,3.1,0,4.2C1.5,49.7,2.2,50,3,50s1.5-0.3,2.1-0.9L35,19.2V35c0,1.7,1.3,3,3,3s3-1.3,3-3V12C41,10.3,39.7,9,38,9z"/>
<path d="M47,0H26c-1.7,0-3,1.3-3,3s1.3,3,3,3h18v18c0,1.7,1.3,3,3,3s3-1.3,3-3V3C50,1.3,48.7,0,47,0z"/>
</g>
</svg>
