<?xml version="1.0" encoding="utf-8"?>
<svg version="1.1" xmlns="http://www.w3.org/2000/svg" xmlns:xlink="http://www.w3.org/1999/xlink" x="0px" y="0px" width="60" height="72" viewBox="0 0 60 72" enable-background="new 0 0 60 72" xml:space="preserve">
<g id="bounds"><rect opacity="0" width="60" height="72"/></g>
<g id="icon">
<path d="M30,9C15.112,9,3,21.112,3,36s12.112,27,27,27s27-12.112,27-27S44.888,9,30,9z M41.156,31.572c0.01,0.233,0.016,0.47,0.016,0.705c0,7.201-5.481,15.505-15.506,15.505c-3.077,0-5.941-0.901-8.353-2.448c0.427,0.051,0.86,0.076,1.299,0.076c2.552,0,4.903-0.872,6.769-2.334c-2.385-0.043-4.397-1.619-5.091-3.784c0.332,0.064,0.674,0.096,1.026,0.096c0.497,0,0.978-0.066,1.436-0.19c-2.494-0.5-4.372-2.704-4.372-5.345c0-0.021,0-0.045,0-0.068c0.735,0.408,1.575,0.653,2.469,0.682c-1.462-0.977-2.424-2.646-2.424-4.536c0-0.998,0.268-1.933,0.737-2.74c2.688,3.298,6.703,5.466,11.233,5.694c-0.092-0.4-0.141-0.814-0.141-1.241c0-3.01,2.44-5.45,5.45-5.45c1.568,0,2.983,0.662,3.977,1.72c1.242-0.243,2.408-0.698,3.461-1.322c-0.407,1.272-1.271,2.341-2.396,3.015c1.103-0.132,2.152-0.425,3.13-0.857C43.145,29.844,42.22,30.802,41.156,31.572z"/>
</g>
</svg>
