<?xml version="1.0" encoding="utf-8"?>
<svg version="1.1" xmlns="http://www.w3.org/2000/svg" xmlns:xlink="http://www.w3.org/1999/xlink" x="0px" y="0px" width="60" height="72" viewBox="0 0 60 72" enable-background="new 0 0 60 72" xml:space="preserve">
<g id="bounds"><rect opacity="0" width="60" height="72"/></g>
<g id="icon">
<path d="M57,37.288c0-4.069-2.251-7.589-5.523-9.26c0.397-1.119,0.613-2.328,0.613-3.598c0-5.683-4.394-10.283-9.818-10.283c-1.212,0-2.368,0.216-3.436,0.64C37.246,11.357,33.886,9,30,9c-3.885,0-7.242,2.357-8.837,5.787c-1.066-0.424-2.228-0.64-3.434-0.64c-5.425,0-9.818,4.6-9.818,10.283c0,1.27,0.216,2.478,0.611,3.598c-3.269,1.671-5.521,5.192-5.521,9.26c0,3.84,2.012,7.193,4.992,8.96c-0.052,0.435-0.083,0.874-0.083,1.323c0,5.682,4.392,10.283,9.818,10.283c1.206,0,2.368-0.218,3.434-0.638C22.758,60.644,26.115,63,30,63c3.887,0,7.246-2.356,8.837-5.784c1.068,0.42,2.224,0.638,3.436,0.638c5.423,0,9.818-4.601,9.818-10.283c0-0.449-0.035-0.887-0.086-1.323C54.981,44.481,57,41.128,57,37.288z M42.203,30.546c0,0-14.558,14.55-14.878,14.872c-0.546,0.548-1.263,0.823-1.98,0.823c-0.712,0-1.425-0.271-1.97-0.813l-6.53-6.498c-1.093-1.088-1.098-2.857-0.01-3.951c1.087-1.094,2.856-1.097,3.95-0.01l4.555,4.532l12.914-12.907c1.091-1.09,2.859-1.089,3.95,0.001C43.295,27.687,43.294,29.455,42.203,30.546z"/>
<path opacity="0" d="M16.846,38.93l6.53,6.498c0.545,0.542,1.258,0.813,1.97,0.813c0.717,0,1.434-0.275,1.98-0.823c0.32-0.322,14.878-14.872,14.878-14.872c1.091-1.091,1.091-2.859,0.001-3.95c-1.091-1.09-2.859-1.091-3.95-0.001L25.341,39.502l-4.555-4.532c-1.093-1.087-2.862-1.084-3.95,0.01C15.748,36.073,15.752,37.842,16.846,38.93z"/>
</g>
</svg>
