<?xml version="1.0" encoding="utf-8"?>
<svg version="1.1" xmlns="http://www.w3.org/2000/svg" xmlns:xlink="http://www.w3.org/1999/xlink" x="0px" y="0px" width="58" height="72" viewBox="0 0 58 72" enable-background="new 0 0 58 72" xml:space="preserve">
<g id="bounds"><rect opacity="0" width="58" height="72"/></g>
<g id="icon">
<path d="M36,32h15c1.657,0,3-1.343,3-3s-1.343-3-3-3H40c-0.553,0-1-0.447-1-1V14c0-1.657-1.343-3-3-3s-3,1.343-3,3v15C33,30.657,34.343,32,36,32z"/>
<path d="M22,11c-1.657,0-3,1.343-3,3v11c0,0.553-0.447,1-1,1H7c-1.657,0-3,1.343-3,3s1.343,3,3,3h15c1.657,0,3-1.343,3-3V14C25,12.343,23.657,11,22,11z"/>
<path d="M51,40H36c-1.657,0-3,1.343-3,3v15c0,1.657,1.343,3,3,3s3-1.343,3-3V47c0-0.553,0.447-1,1-1h11c1.657,0,3-1.343,3-3S52.657,40,51,40z"/>
<path d="M22,40H7c-1.657,0-3,1.343-3,3s1.343,3,3,3h11c0.553,0,1,0.447,1,1v11c0,1.657,1.343,3,3,3s3-1.343,3-3V43C25,41.343,23.657,40,22,40z"/>
</g>
</svg>
