<?xml version="1.0" encoding="utf-8"?>
<svg version="1.1" xmlns="http://www.w3.org/2000/svg" xmlns:xlink="http://www.w3.org/1999/xlink" x="0px" y="0px" width="58" height="72" viewBox="0 0 58 72" enable-background="new 0 0 58 72" xml:space="preserve">
<g id="bounds"><rect opacity="0" width="58" height="72"/></g>
<g id="icon">
<path d="M52,10H37c-1.657,0-3,1.343-3,3s1.343,3,3,3h11c0.553,0,1,0.447,1,1v11c0,1.657,1.343,3,3,3s3-1.343,3-3V13C55,11.343,53.657,10,52,10z"/>
<path d="M21,10H6c-1.657,0-3,1.343-3,3v15c0,1.657,1.343,3,3,3s3-1.343,3-3V17c0-0.553,0.447-1,1-1h11c1.657,0,3-1.343,3-3S22.657,10,21,10z"/>
<path d="M52,41c-1.657,0-3,1.343-3,3v11c0,0.553-0.447,1-1,1H37c-1.657,0-3,1.343-3,3s1.343,3,3,3h15c1.657,0,3-1.343,3-3V44C55,42.343,53.657,41,52,41z"/>
<path d="M21,56H10c-0.553,0-1-0.447-1-1V44c0-1.657-1.343-3-3-3s-3,1.343-3,3v15c0,1.657,1.343,3,3,3h15c1.657,0,3-1.343,3-3S22.657,56,21,56z"/>
</g>
</svg>
