<?xml version="1.0" encoding="utf-8"?>
<svg version="1.1" xmlns="http://www.w3.org/2000/svg" xmlns:xlink="http://www.w3.org/1999/xlink" x="0px" y="0px" width="54" height="72" viewBox="0 0 54 72" enable-background="new 0 0 54 72" xml:space="preserve">
<g id="bounds"><rect opacity="0" width="54" height="72"/></g>
<g id="icon">
<path d="M48.23,31.251c1.211-2.713,1.877-6.236,1.877-9.32c0-8.305-4.205-13.137-11.894-13.137c-7.911,0-12.539,6.136-12.539,14.225c0,8.011,3.709,14.888,9.837,18.019c-2.574,5.194-5.854,9.775-9.265,13.221c-6.201-7.56-11.803-17.645-14.103-37.32H3c4.223,32.773,16.814,43.21,20.143,45.212c1.883,1.146,3.505,1.088,5.227,0.111c2.705-1.555,10.814-9.738,15.32-19.329c1.883-0.006,4.153-0.224,6.417-0.738v-6.454c-1.384,0.318-2.726,0.464-3.934,0.464c-6.776,0-11.997-4.774-11.997-13.082c0-4.068,1.558-6.184,3.767-6.184c2.099,0,3.493,1.902,3.493,5.755c0,2.186-0.575,4.591-1.01,6.011C40.426,28.704,42.519,32.381,48.23,31.251z"/>
</g>
</svg>
