<?xml version="1.0" encoding="utf-8"?>
<svg version="1.1" xmlns="http://www.w3.org/2000/svg" xmlns:xlink="http://www.w3.org/1999/xlink" x="0px" y="0px" width="40" height="20" viewBox="0 0 40 20" enable-background="new 0 0 40 20" xml:space="preserve">
<g id="bounds"><rect opacity="0" width="40" height="20"/></g>
<g id="icon">
<path fill="#FFFFFF" stroke="#BCBEC0" stroke-width="0.1357" d="M37.292,16.134H37.29c-0.002,0-0.003,0.002-0.004,0.002L37.292,16.134z M24.135,7.622c0.002,0.001,0.003,0.001,0.005,0.001c0.002,0.001,0.004,0.001,0.005,0.001L24.135,7.622zM39.27,11.152c-0.255-0.193-0.297-0.223-1.832-0.728c1.329-0.326,1.387-0.361,1.622-0.516c0.533-0.361,0.818-0.96,0.776-1.61l-0.005-0.072c-0.109-1.042-1.452-3.008-2.355-3.449c-0.597-0.285-1.26-0.244-1.782,0.106c-0.246,0.163-0.278,0.185-1.288,1.564C34.31,4.836,34.12,1.996,34.073,1.73l-0.011-0.06l-0.016-0.06c-0.172-0.624-0.661-1.091-1.309-1.254c-1.081-0.27-3.941,0.536-4.709,1.328c-0.451,0.47-0.624,1.103-0.468,1.696l0.031,0.118l0.053,0.11c0.073,0.151,0.267,0.472,1.928,3.077l0.611,0.964c-1.486-0.609-1.544-0.61-1.852-0.613c-0.586-0.026-1.173,0.288-1.526,0.841l-0.007,0.01C26.615,8.182,26.503,8.582,26.432,9c-0.477-0.646-1.199-1.163-2.292-1.377c-0.775-0.156-1.501-0.063-2.186,0.214c-0.628-0.399-1.489-0.447-2.21-0.035c-0.223,0.126-0.389,0.277-0.52,0.438V7.357l-0.069-0.525l-0.021-0.094C18.99,6.166,18.56,5.686,17.984,5.45l-0.006-0.002c-0.632-0.254-1.341-0.194-1.942,0.165c-0.641,0.379-0.969,1.007-0.969,1.866v1.803c-0.228-0.355-0.51-0.663-0.845-0.917c-0.899-0.682-2.106-0.913-3.487-0.665C9.934,7.839,9.264,8.19,8.733,8.702C8.725,8.685,8.716,8.665,8.707,8.649c-0.269-0.483-0.706-0.814-1.266-0.96C6.505,7.431,5.319,7.749,4.828,9.421c0,0-0.08,0.271-0.188,0.64C4.425,9.667,3.869,8.593,3.846,8.56C3.345,7.801,2.341,7.472,1.444,7.829C0.577,8.155,0.075,8.918,0.075,9.815c0,0.282,0.049,0.577,0.153,0.876l0.026,0.074c0,0,1.781,3.627,2.297,4.678c-0.828,0.218-1.418,0.836-1.514,1.683c-0.01,0.081-0.015,0.162-0.015,0.243c0,0.539,0.224,1.054,0.634,1.432c0.623,0.575,1.591,0.764,2.728,0.533c1.236-0.243,1.946-0.988,2.444-2.567l0.757-2.38c0.247,1.002,0.695,1.657,1.121,2.076c0.613,0.606,1.733,1.276,3.589,1.025c1.379-0.193,2.333-0.81,2.848-1.535l0.033,0.175c0.147,0.517,0.546,0.977,1.083,1.222c0.56,0.259,1.211,0.255,1.78-0.013c0.297-0.129,0.549-0.333,0.746-0.587v0.75c0,1.24,0.717,1.768,1.145,1.972c0.558,0.281,1.226,0.304,1.808,0.052c0.549-0.238,0.958-0.691,1.118-1.242l0.024-0.084l0.074-0.513c0,0,0-0.197,0-0.22c0.746,0.077,1.524-0.045,2.211-0.4c0.302-0.158,0.568-0.347,0.805-0.565h0.503c0.274,0.145,0.585,0.234,0.921,0.234c0.336,0,0.647-0.09,0.922-0.234h1.46c0.967,0.545,2.382,0.957,3.139,0.829c0.652-0.116,1.165-0.537,1.383-1.125l0.011-0.029c0.092-0.268,0.107-0.317,0.113-1.83c0.829,1.34,0.873,1.375,1.105,1.559c0.5,0.39,1.158,0.476,1.766,0.232c0.976-0.391,2.466-2.286,2.615-3.326c0.013-0.091,0.02-0.183,0.02-0.272C39.925,11.992,39.69,11.488,39.27,11.152z"/>
<path fill="#E6E7E8" d="M27.668,9.052c-0.237,0.379-0.336,1.57-0.254,2.362c0.029,0.261,0.075,0.479,0.144,0.609c0.094,0.18,0.254,0.288,0.435,0.294c0.115,0.006,0.187-0.014,2.371-0.717c0,0,0.97-0.309,0.974-0.31c0.241-0.062,0.405-0.284,0.421-0.568c0.015-0.292-0.136-0.549-0.384-0.642l-0.684-0.278c-2.347-0.968-2.45-1.005-2.57-1.006C27.941,8.785,27.78,8.877,27.668,9.052z"/>
<path fill="#E6E7E8" d="M32.916,16.261c0.038-0.111,0.042-0.186,0.049-2.479c0,0,0.005-1.013,0.006-1.024c0.015-0.247-0.144-0.474-0.408-0.575c-0.271-0.106-0.563-0.041-0.727,0.163c0,0-0.478,0.568-0.48,0.568c-1.644,1.931-1.712,2.02-1.752,2.135c-0.025,0.066-0.035,0.138-0.026,0.209c0.01,0.102,0.055,0.205,0.133,0.298c0.381,0.454,2.208,1.126,2.791,1.026C32.706,16.546,32.853,16.43,32.916,16.261z"/>
<path fill="#E6E7E8" d="M36.621,15.463c0.552-0.22,1.755-1.749,1.839-2.337c0.028-0.205-0.036-0.381-0.177-0.494c-0.092-0.069-0.164-0.096-2.344-0.813c0,0-0.958-0.316-0.97-0.321c-0.231-0.09-0.495-0.007-0.673,0.212c-0.185,0.226-0.214,0.521-0.066,0.746l0.386,0.627c1.294,2.103,1.393,2.252,1.486,2.325C36.248,15.52,36.431,15.54,36.621,15.463L36.621,15.463z"/>
<path fill="#E6E7E8" d="M35.496,10.048c2.479-0.599,2.575-0.631,2.673-0.696c0.15-0.101,0.225-0.27,0.212-0.477c0-0.007,0.002-0.013,0-0.021c-0.063-0.609-1.13-2.192-1.656-2.449c-0.186-0.089-0.373-0.084-0.526,0.019c-0.096,0.064-0.167,0.156-1.493,1.973c0,0-0.601,0.818-0.608,0.824c-0.157,0.192-0.16,0.469-0.006,0.705c0.16,0.244,0.431,0.364,0.679,0.295c0,0-0.011,0.018-0.014,0.021C34.879,10.197,35.098,10.143,35.496,10.048z"/>
<path fill="#E6E7E8" d="M33.006,8.001L33.006,8.001c-0.042-0.983-0.338-5.358-0.373-5.56c-0.05-0.185-0.193-0.315-0.4-0.367c-0.632-0.157-3.051,0.522-3.499,0.984c-0.144,0.149-0.198,0.335-0.154,0.499c0.071,0.144,3.067,4.858,3.067,4.858c0.443,0.719,0.805,0.607,0.923,0.571C32.688,8.951,33.047,8.839,33.006,8.001z"/>
<path fill="#B12A31" d="M27.867,8.555c-0.236,0.379-0.336,1.57-0.254,2.362c0.029,0.261,0.076,0.479,0.144,0.609c0.094,0.18,0.253,0.287,0.435,0.293c0.116,0.006,0.188-0.014,2.371-0.716c0,0,0.97-0.309,0.974-0.311c0.242-0.061,0.405-0.284,0.421-0.568c0.015-0.291-0.135-0.549-0.383-0.641c0,0-0.684-0.279-0.686-0.279c-2.345-0.967-2.45-1.005-2.569-1.007C28.14,8.289,27.979,8.38,27.867,8.555z"/>
<path fill="#B12A31" d="M33.114,15.764c0.038-0.11,0.042-0.186,0.049-2.479c0,0,0.006-1.013,0.006-1.024c0.015-0.248-0.145-0.473-0.409-0.576c-0.271-0.104-0.563-0.04-0.726,0.165c0,0-0.478,0.568-0.48,0.568c-1.644,1.93-1.712,2.019-1.752,2.133c-0.024,0.068-0.035,0.139-0.026,0.211c0.01,0.102,0.056,0.203,0.133,0.297c0.381,0.454,2.208,1.126,2.792,1.026C32.904,16.048,33.051,15.934,33.114,15.764z"/>
<path fill="#B12A31" d="M36.821,14.966c0.55-0.22,1.753-1.749,1.838-2.337c0.029-0.205-0.035-0.381-0.176-0.494c-0.092-0.069-0.164-0.097-2.345-0.813c0,0-0.957-0.316-0.969-0.322c-0.231-0.09-0.496-0.007-0.674,0.213c-0.184,0.225-0.212,0.521-0.065,0.746l0.385,0.626c1.295,2.103,1.394,2.252,1.487,2.325C36.447,15.024,36.63,15.043,36.821,14.966L36.821,14.966z"/>
<path fill="#B12A31" d="M35.694,9.552c2.479-0.6,2.575-0.632,2.673-0.696c0.15-0.101,0.225-0.27,0.212-0.476c0-0.007,0.001-0.013,0-0.021c-0.063-0.608-1.131-2.192-1.656-2.449c-0.186-0.09-0.373-0.084-0.526,0.02c-0.096,0.063-0.167,0.157-1.494,1.972c0,0-0.6,0.817-0.607,0.825c-0.158,0.192-0.16,0.468-0.006,0.704c0.16,0.244,0.431,0.364,0.679,0.295c0,0-0.01,0.017-0.013,0.021C35.078,9.7,35.296,9.646,35.694,9.552z"/>
<path fill="#B12A31" d="M33.205,7.505L33.205,7.505c-0.042-0.982-0.338-5.357-0.373-5.56c-0.051-0.183-0.193-0.314-0.401-0.367c-0.632-0.157-3.051,0.521-3.499,0.983c-0.144,0.15-0.197,0.335-0.154,0.499c0.07,0.145,3.068,4.86,3.068,4.86c0.443,0.718,0.804,0.607,0.922,0.57C32.887,8.454,33.246,8.343,33.205,7.505z"/>
<path fill="#000000" d="M2.508,17.875c0.312,0.288,0.903,0.37,1.622,0.224c0.674-0.134,1.092-0.434,1.495-1.712l2.002-6.291C7.73,9.762,7.722,9.472,7.604,9.257C7.507,9.083,7.347,8.966,7.12,8.906c-0.356-0.098-0.802-0.088-1.083,0.87l-1.051,3.569c0,0-2.14-4.042-2.142-4.043C2.709,9.032,2.314,8.839,1.91,8.999C1.384,9.198,1.209,9.671,1.419,10.28c0,0,2.603,5.298,2.609,5.313c0,0,0.071,0.188,0.071,0.219c0,0,0.023,0.144,0.023,0.149c-0.005,0.204-0.073,0.375-0.195,0.491c-0.12,0.112-0.287,0.172-0.481,0.163c0,0-0.406-0.008-0.437-0.008c-0.418,0.051-0.679,0.291-0.722,0.661C2.257,17.505,2.334,17.714,2.508,17.875z"/>
<path fill="#000000" d="M14.478,11.424c-0.09-0.909-0.44-1.619-1.016-2.053c-0.613-0.465-1.479-0.613-2.506-0.43C9.67,9.163,8.897,10.084,8.72,11.604c-0.218,1.817,0.081,3.186,0.867,3.961c0.594,0.587,1.47,0.819,2.537,0.675c1.521-0.213,2.205-1.049,2.205-1.577c0-0.388-0.235-0.694-0.58-0.74c-0.198-0.04-0.364,0-0.733,0.328c-0.531,0.464-1.147,0.65-1.692,0.512c-0.416-0.105-0.741-0.393-0.887-0.785c0,0-0.065-0.26-0.062-0.231c-0.044-0.234-0.065-0.466,0.079-0.561l0.039-0.026h3.341c0.308,0,0.464-0.04,0.555-0.137C14.572,12.819,14.557,12.237,14.478,11.424z M12.766,11.909H9.978c-0.076-0.055-0.112-0.148-0.056-0.426c0.036-0.146,0.074-0.277,0.186-0.461c0.035-0.055,0.074-0.111,0.109-0.167c0.204-0.258,0.48-0.423,0.794-0.496c0.98-0.24,1.663,0.257,1.774,1.108C12.839,11.837,12.804,11.909,12.766,11.909z"/>
<path fill="#000000" d="M17.508,6.616c-0.265-0.107-0.563-0.078-0.824,0.078c-0.252,0.149-0.357,0.376-0.357,0.785v7.967c0,0,0.044,0.284,0.048,0.297c0.057,0.199,0.204,0.367,0.408,0.461c0.226,0.104,0.487,0.103,0.72-0.007c0.291-0.125,0.463-0.416,0.463-0.777V7.439c0,0-0.051-0.386-0.051-0.393C17.867,6.861,17.715,6.701,17.508,6.616z"/>
<path fill="#000000" d="M23.894,8.859c-0.739-0.151-1.371-0.025-1.979,0.387c0,0-0.069,0.056-0.095,0.072l-0.053,0.027l-0.167,0.074l-0.047-0.186l-0.04-0.068l-0.014-0.042l-0.005-0.013c0,0-0.04-0.054-0.046-0.062c-0.174-0.272-0.649-0.396-1.077-0.152c-0.209,0.118-0.329,0.285-0.329,0.785V17.5c0,0.428,0.134,0.695,0.428,0.835c0.248,0.125,0.528,0.135,0.766,0.031c0.204-0.088,0.353-0.246,0.409-0.438l0.049-0.334V16.24l-0.013-0.218l0.006-0.065l0.007-0.03l0.081-0.257l0.245,0.163c0,0,0.061,0.04,0.087,0.068l0.073,0.049C22.18,15.951,22.264,16,22.264,16c0.002,0,0.079,0.037,0.079,0.037c0.657,0.31,1.535,0.274,2.24-0.091c0.889-0.464,1.328-1.287,1.43-2.672C26.227,10.51,25.592,9.189,23.894,8.859z M23.812,14.709c-1.104,0-1.279-0.98-1.314-1.718c-0.002-0.003-0.014-0.434-0.014-0.434s0.012-0.321,0.012-0.333c0.072-1.279,0.336-1.783,1.011-1.924c0.453-0.106,0.8-0.054,1.059,0.155c0.39,0.314,0.563,0.98,0.547,2.09C25.101,13.845,24.876,14.709,23.812,14.709z"/>
<path fill="#000000" d="M27.419,14.887c0.252,0,0.464,0.197,0.464,0.457c0,0.265-0.212,0.461-0.464,0.461c-0.253,0-0.463-0.197-0.463-0.457C26.956,15.084,27.167,14.887,27.419,14.887z M27.419,15.739c0.216,0,0.389-0.17,0.389-0.395c0-0.221-0.173-0.391-0.389-0.391c-0.217,0-0.39,0.17-0.39,0.396C27.03,15.569,27.203,15.739,27.419,15.739z M27.247,15.083h0.196c0.127,0,0.187,0.047,0.187,0.154c0,0.095-0.062,0.135-0.141,0.144l0.154,0.235h-0.081l-0.146-0.229h-0.095v0.229h-0.074L27.247,15.083L27.247,15.083zM27.321,15.32h0.092c0.074,0,0.144-0.004,0.144-0.088c0-0.074-0.063-0.083-0.121-0.083h-0.114V15.32z"/>
</g>
</svg>
